Khula-wt221.97.ufo
<glyph name="i" format="1">
  <advance width="466"/>
  <unicode hex="0069"/>
  <outline>
    <contour>
      <point x="308" y="0" type="line"/>
      <point x="158" y="0" type="line"/>
      <point x="158" y="986" type="line"/>
      <point x="308" y="986" type="line"/>
    </contour>
    <contour>
      <point x="146" y="1254" type="curve" smooth="yes"/>
      <point x="146" y="1322"/>
      <point x="183" y="1353"/>
      <point x="234" y="1353" type="curve" smooth="yes"/>
      <point x="282" y="1353"/>
      <point x="322" y="1321"/>
      <point x="322" y="1254" type="curve" smooth="yes"/>
      <point x="322" y="1186"/>
      <point x="282" y="1154"/>
      <point x="234" y="1154" type="curve" smooth="yes"/>
      <point x="183" y="1154"/>
      <point x="146" y="1186"/>
    </contour>
  </outline>
</glyph>
<glyph name="k" format="1">
  <advance width="967"/>
  <unicode hex="006B"/>
  <outline>
    <contour>
      <point x="306" y="505" type="line"/>
      <point x="332" y="542"/>
      <point x="371" y="590"/>
      <point x="424" y="649" type="curve"/>
      <point x="742" y="986" type="line"/>
      <point x="920" y="986" type="line"/>
      <point x="520" y="566" type="line"/>
      <point x="948" y="0" type="line"/>
      <point x="767" y="0" type="line"/>
      <point x="418" y="466" type="line"/>
      <point x="306" y="369" type="line"/>
      <point x="306" y="0" type="line"/>
      <point x="158" y="0" type="line"/>
      <point x="158" y="1400" type="line"/>
      <point x="306" y="1400" type="line"/>
      <point x="306" y="658" type="line" smooth="yes"/>
      <point x="306" y="625"/>
      <point x="304" y="574"/>
      <point x="299" y="505" type="curve"/>
    </contour>
  </outline>
</glyph>
<glyph name="anusvaradeva" format="1">
  <advance width="0"/>
  <unicode hex="0902"/>
  <outline>
    <contour>
      <point x="-312" y="1676" type="curve" smooth="yes"/>
      <point x="-248" y="1676"/>
      <point x="-217" y="1636"/>
      <point x="-217" y="1575" type="curve" smooth="yes"/>
      <point x="-217" y="1515"/>
      <point x="-248" y="1473"/>
      <point x="-312" y="1473" type="curve" smooth="yes"/>
      <point x="-374" y="1473"/>
      <point x="-406" y="1514"/>
      <point x="-406" y="1575" type="curve" smooth="yes"/>
      <point x="-406" y="1636"/>
      <point x="-375" y="1676"/>
    </contour>
    <contour>
      <point x="49" y="8" type="move" name="x12"/>
    </contour>
    <contour>
      <point x="-424" y="1282" type="move" name="_mark0"/>
    </contour>
  </outline>
</glyph>
<glyph name="visargadeva" format="1">
  <advance width="307"/>
  <unicode hex="0903"/>
  <outline>
    <contour>
      <point x="323" y="1166" type="line"/>
      <point x="-14" y="1166" type="line"/>
      <point x="-14" y="1278" type="line"/>
      <point x="323" y="1278" type="line"/>
    </contour>
    <component base="anusvaradeva" xOffset="435" yOffset="-1268"/>
    <component base="anusvaradeva" xOffset="437" yOffset="-759"/>
  </outline>
</glyph>
<glyph name="adeva" format="1">
  <advance width="1599"/>
  <unicode hex="0905"/>
  <outline>
    <contour>
      <point x="360" y="686" type="line"/>
      <point x="330" y="804" type="line"/>
      <point x="341" y="805" type="line"/>
      <point x="648" y="809"/>
      <point x="727" y="897"/>
      <point x="727" y="1013" type="curve" smooth="yes"/>
      <point x="727" y="1100"/>
      <point x="663" y="1167"/>
      <point x="534" y="1167" type="curve" smooth="yes"/>
      <point x="433" y="1167"/>
      <point x="331" y="1132"/>
      <point x="246" y="1080" type="curve"/>
      <point x="203" y="1195" type="line"/>
      <point x="291" y="1243"/>
      <point x="399" y="1285"/>
      <point x="536" y="1285" type="curve" smooth="yes"/>
      <point x="742" y="1285"/>
      <point x="859" y="1175"/>
      <point x="859" y="991" type="curve" smooth="yes"/>
      <point x="859" y="821"/>
      <point x="717" y="693"/>
      <point x="372" y="686" type="curve" smooth="yes"/>
    </contour>
    <contour>
      <point x="652" y="809" type="line"/>
      <point x="814" y="717"/>
      <point x="911" y="619"/>
      <point x="911" y="451" type="curve" smooth="yes"/>
      <point x="911" y="290"/>
      <point x="784" y="148"/>
      <point x="576" y="148" type="curve" smooth="yes"/>
      <point x="426" y="148"/>
      <point x="302" y="200"/>
      <point x="138" y="328" type="curve"/>
      <point x="176" y="444" type="line"/>
      <point x="313" y="325"/>
      <point x="428" y="278"/>
      <point x="536" y="278" type="curve" smooth="yes"/>
      <point x="687" y="278"/>
      <point x="774" y="361"/>
      <point x="774" y="479" type="curve" smooth="yes"/>
      <point x="774" y="574"/>
      <point x="704" y="670"/>
      <point x="565" y="730" type="curve"/>
    </contour>
    <contour>
      <point x="789" y="663" type="line"/>
      <point x="843" y="641"/>
      <point x="952" y="631"/>
      <point x="1005" y="631" type="curve" smooth="yes"/>
      <point x="1069" y="631"/>
      <point x="1170" y="652"/>
      <point x="1233" y="697" type="curve"/>
      <point x="1233" y="553" type="line"/>
      <point x="1191" y="532"/>
      <point x="1095" y="517"/>
      <point x="1038" y="517" type="curve" smooth="yes"/>
      <point x="973" y="517"/>
      <point x="854" y="532"/>
      <point x="802" y="551" type="curve"/>
    </contour>
    <contour>
      <point x="1213" y="1197" type="line"/>
      <point x="1364" y="1197" type="line"/>
      <point x="1364" y="0" type="line"/>
      <point x="1213" y="0" type="line"/>
    </contour>
    <contour>
      <point x="1611" y="1166" type="line"/>
      <point x="992" y="1166" type="line"/>
      <point x="992" y="1278" type="line"/>
      <point x="1611" y="1278" type="line"/>
    </contour>
  </outline>
</glyph>
<glyph name="aadeva" format="1">
  <advance width="2158"/>
  <unicode hex="0906"/>
  <outline>
    <contour>
      <point x="361" y="686" type="line"/>
      <point x="330" y="804" type="line"/>
      <point x="342" y="805" type="line"/>
      <point x="649" y="809"/>
      <point x="727" y="897"/>
      <point x="727" y="1013" type="curve" smooth="yes"/>
      <point x="727" y="1100"/>
      <point x="664" y="1167"/>
      <point x="534" y="1167" type="curve" smooth="yes"/>
      <point x="433" y="1167"/>
      <point x="332" y="1132"/>
      <point x="247" y="1080" type="curve"/>
      <point x="204" y="1195" type="line"/>
      <point x="292" y="1243"/>
      <point x="400" y="1285"/>
      <point x="537" y="1285" type="curve" smooth="yes"/>
      <point x="742" y="1285"/>
      <point x="860" y="1175"/>
      <point x="860" y="991" type="curve" smooth="yes"/>
      <point x="860" y="821"/>
      <point x="718" y="693"/>
      <point x="373" y="686" type="curve" smooth="yes"/>
    </contour>
    <contour>
      <point x="1775" y="1197" type="line"/>
      <point x="1925" y="1197" type="line"/>
      <point x="1925" y="0" type="line"/>
      <point x="1775" y="0" type="line"/>
    </contour>
    <contour>
      <point x="653" y="809" type="line"/>
      <point x="815" y="717"/>
      <point x="912" y="619"/>
      <point x="912" y="451" type="curve" smooth="yes"/>
      <point x="912" y="290"/>
      <point x="785" y="148"/>
      <point x="577" y="148" type="curve" smooth="yes"/>
      <point x="427" y="148"/>
      <point x="303" y="200"/>
      <point x="139" y="328" type="curve"/>
      <point x="176" y="444" type="line"/>
      <point x="313" y="325"/>
      <point x="428" y="278"/>
      <point x="537" y="278" type="curve" smooth="yes"/>
      <point x="688" y="278"/>
      <point x="775" y="361"/>
      <point x="775" y="479" type="curve" smooth="yes"/>
      <point x="775" y="574"/>
      <point x="704" y="670"/>
      <point x="565" y="730" type="curve"/>
    </contour>
    <contour>
      <point x="790" y="663" type="line"/>
      <point x="844" y="641"/>
      <point x="953" y="631"/>
      <point x="1006" y="631" type="curve" smooth="yes"/>
      <point x="1070" y="631"/>
      <point x="1171" y="652"/>
      <point x="1234" y="697" type="curve"/>
      <point x="1234" y="553" type="line"/>
      <point x="1192" y="532"/>
      <point x="1096" y="517"/>
      <point x="1038" y="517" type="curve" smooth="yes"/>
      <point x="974" y="517"/>
      <point x="855" y="532"/>
      <point x="803" y="551" type="curve"/>
    </contour>
    <contour>
      <point x="1213" y="1197" type="line"/>
      <point x="1364" y="1197" type="line"/>
      <point x="1364" y="0" type="line"/>
      <point x="1213" y="0" type="line"/>
    </contour>
    <contour>
      <point x="2171" y="1166" type="line"/>
      <point x="992" y="1166" type="line"/>
      <point x="992" y="1278" type="line"/>
      <point x="2171" y="1278" type="line"/>
    </contour>
  </outline>
</glyph>
<glyph name="ideva" format="1">
  <advance width="1001"/>
  <unicode hex="0907"/>
  <outline>
    <contour>
      <point x="485" y="142" type="curve" smooth="yes"/>
      <point x="758" y="-154" type="line"/>
      <point x="659" y="-222" type="line"/>
      <point x="338" y="135" type="line"/>
      <point x="466" y="71" type="line"/>
      <point x="232" y="76"/>
      <point x="151" y="159"/>
      <point x="151" y="212" type="curve" smooth="yes"/>
      <point x="151" y="259"/>
      <point x="187" y="304"/>
      <point x="253" y="304" type="curve" smooth="yes"/>
      <point x="322" y="304"/>
      <point x="391" y="244"/>
    </contour>
    <contour>
      <point x="635" y="1202" type="line"/>
      <point x="781" y="1202" type="line"/>
      <point x="781" y="839" type="line"/>
      <point x="439" y="839" type="line"/>
      <point x="287" y="839"/>
      <point x="244" y="784"/>
      <point x="245" y="712" type="curve" smooth="yes"/>
      <point x="246" y="646"/>
      <point x="293" y="598"/>
      <point x="394" y="561" type="curve"/>
      <point x="320" y="564" type="line"/>
      <point x="419" y="606"/>
      <point x="492" y="626"/>
      <point x="599" y="626" type="curve" smooth="yes"/>
      <point x="763" y="626"/>
      <point x="885" y="526"/>
      <point x="885" y="361" type="curve" smooth="yes"/>
      <point x="885" y="195"/>
      <point x="701" y="76"/>
      <point x="451" y="76" type="curve"/>
      <point x="431" y="190" type="line"/>
      <point x="616" y="190"/>
      <point x="749" y="264"/>
      <point x="749" y="370" type="curve" smooth="yes"/>
      <point x="749" y="458"/>
      <point x="686" y="507"/>
      <point x="590" y="507" type="curve" smooth="yes"/>
      <point x="504" y="507"/>
      <point x="435" y="489"/>
      <point x="359" y="456" type="curve"/>
      <point x="349" y="456" type="line"/>
      <point x="169" y="540"/>
      <point x="110" y="629"/>
      <point x="110" y="742" type="curve" smooth="yes"/>
      <point x="110" y="863"/>
      <point x="195" y="950"/>
      <point x="413" y="950" type="curve" smooth="yes"/>
      <point x="681" y="950" type="line"/>
      <point x="635" y="904" type="line"/>
    </contour>
    <contour>
      <point x="1018" y="1166" type="line"/>
      <point x="-18" y="1166" type="line"/>
      <point x="-18" y="1278" type="line"/>
      <point x="1018" y="1278" type="line"/>
    </contour>
    <contour>
      <point x="691" y="1282" type="move" name="mark0"/>
    </contour>
    <contour>
      <point x="46" y="8" type="move" name="x51"/>
    </contour>
  </outline>
</glyph>
<glyph name="uudeva" format="1">
  <advance width="1428"/>
  <unicode hex="090A"/>
  <outline>
    <contour>
      <point x="824" y="513" type="curve"/>
      <point x="759" y="648" type="line"/>
      <point x="837" y="693"/>
      <point x="928" y="736"/>
      <point x="1069" y="736" type="curve" smooth="yes"/>
      <point x="1253" y="736"/>
      <point x="1383" y="615"/>
      <point x="1383" y="432" type="curve" smooth="yes"/>
      <point x="1383" y="310"/>
      <point x="1342" y="210"/>
      <point x="1262" y="93" type="curve"/>
      <point x="1136" y="144" type="line"/>
      <point x="1215" y="269"/>
      <point x="1249" y="349"/>
      <point x="1249" y="450" type="curve" smooth="yes"/>
      <point x="1249" y="547"/>
      <point x="1182" y="611"/>
      <point x="1071" y="611" type="curve" smooth="yes"/>
      <point x="975" y="611"/>
      <point x="895" y="573"/>
    </contour>
    <contour>
      <point x="1028" y="1166" type="line"/>
      <point x="1028" y="1278" type="line"/>
      <point x="1462" y="1278" type="line"/>
      <point x="1462" y="1166" type="line"/>
    </contour>
    <component base="udeva"/>
    <contour>
      <point x="873" y="1282" type="move" name="mark0"/>
    </contour>
    <contour>
      <point x="41" y="8" type="move" name="x53"/>
    </contour>
  </outline>
</glyph>
<glyph name="edeva" format="1">
  <advance width="1140"/>
  <unicode hex="090F"/>
  <outline>
    <contour>
      <point x="920" y="1217" type="line"/>
      <point x="920" y="742" type="line"/>
      <point x="920" y="654"/>
      <point x="891" y="575"/>
      <point x="824" y="483" type="curve"/>
      <point x="699" y="551" type="line"/>
      <point x="751" y="635"/>
      <point x="770" y="693"/>
      <point x="770" y="816" type="curve" smooth="yes"/>
      <point x="770" y="1217" type="line"/>
    </contour>
    <contour>
      <point x="-22" y="1166" type="line"/>
      <point x="-22" y="1278" type="line"/>
      <point x="1153" y="1278" type="line"/>
      <point x="1153" y="1166" type="line"/>
    </contour>
    <contour>
      <point x="164" y="1217" type="line"/>
      <point x="314" y="1217" type="line"/>
      <point x="314" y="710" type="line"/>
      <point x="314" y="595"/>
      <point x="348" y="537"/>
      <point x="427" y="484" type="curve" smooth="yes"/>
      <point x="790" y="238" type="line"/>
      <point x="898" y="165"/>
      <point x="945" y="102"/>
      <point x="945" y="25" type="curve" smooth="yes"/>
      <point x="945" y="-35"/>
      <point x="928" y="-79"/>
      <point x="887" y="-161" type="curve"/>
      <point x="739" y="-118" type="line"/>
      <point x="771" y="-66"/>
      <point x="788" y="-22"/>
      <point x="788" y="15" type="curve" smooth="yes"/>
      <point x="788" y="57"/>
      <point x="764" y="96"/>
      <point x="699" y="140" type="curve" smooth="yes"/>
      <point x="334" y="391" type="line"/>
      <point x="206" y="478"/>
      <point x="164" y="569"/>
      <point x="164" y="727" type="curve" smooth="yes"/>
    </contour>
    <contour>
      <point x="-74" y="8" type="move" name="x44"/>
    </contour>
    <contour>
      <point x="823" y="1282" type="move" name="mark0"/>
    </contour>
  </outline>
</glyph>
<glyph name="kadeva" format="1">
  <advance width="1485"/>
  <unicode hex="0915"/>
  <outline>
    <contour>
      <point x="819" y="592" type="curve"/>
      <point x="805" y="764" type="line"/>
      <point x="871" y="799"/>
      <point x="980" y="838"/>
      <point x="1079" y="838" type="curve" smooth="yes"/>
      <point x="1266" y="838"/>
      <point x="1405" y="715"/>
      <point x="1405" y="534" type="curve" smooth="yes"/>
      <point x="1405" y="401"/>
      <point x="1358" y="293"/>
      <point x="1280" y="176" type="curve"/>
      <point x="1155" y="223" type="line"/>
      <point x="1238" y="346"/>
      <point x="1276" y="442"/>
      <point x="1276" y="549" type="curve" smooth="yes"/>
      <point x="1276" y="649"/>
      <point x="1200" y="710"/>
      <point x="1086" y="710" type="curve" smooth="yes"/>
      <point x="1006" y="710"/>
      <point x="897" y="666"/>
    </contour>
    <contour>
      <point x="-39" y="1166" type="line"/>
      <point x="-39" y="1278" type="line"/>
      <point x="1542" y="1278" type="line"/>
      <point x="1542" y="1166" type="line"/>
    </contour>
    <contour>
      <point x="717" y="578" type="curve"/>
      <point x="717" y="406" type="line"/>
      <point x="637" y="338"/>
      <point x="552" y="285"/>
      <point x="430" y="285" type="curve" smooth="yes"/>
      <point x="231" y="285"/>
      <point x="86" y="444"/>
      <point x="86" y="635" type="curve" smooth="yes"/>
      <point x="86" y="787"/>
      <point x="202" y="909"/>
      <point x="403" y="909" type="curve" smooth="yes"/>
      <point x="538" y="909"/>
      <point x="635" y="870"/>
      <point x="722" y="815" type="curve"/>
      <point x="722" y="698" type="line"/>
      <point x="617" y="765"/>
      <point x="536" y="790"/>
      <point x="433" y="790" type="curve" smooth="yes"/>
      <point x="289" y="790"/>
      <point x="215" y="706"/>
      <point x="215" y="603" type="curve" smooth="yes"/>
      <point x="215" y="500"/>
      <point x="294" y="409"/>
      <point x="413" y="409" type="curve" smooth="yes"/>
      <point x="537" y="410"/>
      <point x="630" y="472"/>
    </contour>
    <contour>
      <point x="694" y="1197" type="line"/>
      <point x="844" y="1197" type="line"/>
      <point x="844" y="0" type="line"/>
      <point x="694" y="0" type="line"/>
    </contour>
    <contour>
      <point x="-104" y="8" type="move" name="x47"/>
    </contour>
    <contour>
      <point x="737" y="8" type="move" name="x46"/>
    </contour>
    <contour>
      <point x="737" y="8" type="move" name="mark0"/>
    </contour>
  </outline>
</glyph>
<glyph name="khadeva" format="1">
  <advance width="1662"/>
  <unicode hex="0916"/>
  <outline>
    <contour>
      <point x="1308" y="648" type="curve"/>
      <point x="1308" y="490" type="line"/>
      <point x="1237" y="445"/>
      <point x="1159" y="412"/>
      <point x="1071" y="412" type="curve" smooth="yes"/>
      <point x="895" y="412"/>
      <point x="746" y="539"/>
      <point x="746" y="716" type="curve" smooth="yes"/>
      <point x="746" y="851"/>
      <point x="857" y="956"/>
      <point x="1039" y="956" type="curve" smooth="yes"/>
      <point x="1143" y="956"/>
      <point x="1237" y="928"/>
      <point x="1325" y="879" type="curve"/>
      <point x="1325" y="766" type="line"/>
      <point x="1249" y="816"/>
      <point x="1149" y="844"/>
      <point x="1068" y="844" type="curve" smooth="yes"/>
      <point x="928" y="844"/>
      <point x="871" y="763"/>
      <point x="871" y="687" type="curve" smooth="yes"/>
      <point x="871" y="602"/>
      <point x="951" y="527"/>
      <point x="1046" y="527" type="curve" smooth="yes"/>
      <point x="1138" y="527"/>
      <point x="1229" y="562"/>
    </contour>
    <contour>
      <point x="228" y="652" type="line"/>
      <point x="413" y="723"/>
      <point x="464" y="811"/>
      <point x="464" y="980" type="curve" smooth="yes"/>
      <point x="464" y="1210" type="line"/>
      <point x="614" y="1210" type="line"/>
      <point x="614" y="967" type="line"/>
      <point x="614" y="785"/>
      <point x="561" y="631"/>
      <point x="310" y="527" type="curve"/>
    </contour>
    <contour>
      <point x="-17" y="1166" type="line"/>
      <point x="-17" y="1278" type="line"/>
      <point x="1674" y="1278" type="line"/>
      <point x="1674" y="1166" type="line"/>
    </contour>
    <contour>
      <point x="286" y="614" type="line"/>
      <point x="456" y="287"/>
      <point x="731" y="174"/>
      <point x="959" y="174" type="curve" smooth="yes"/>
      <point x="1105" y="174"/>
      <point x="1199" y="194"/>
      <point x="1326" y="270" type="curve"/>
      <point x="1350" y="142" type="line"/>
      <point x="1229" y="89"/>
      <point x="1122" y="64"/>
      <point x="961" y="64" type="curve" smooth="yes"/>
      <point x="777" y="64"/>
      <point x="544" y="116"/>
      <point x="362" y="299" type="curve" smooth="yes"/>
      <point x="200" y="460"/>
      <point x="70" y="697"/>
      <point x="70" y="755" type="curve" smooth="yes"/>
      <point x="70" y="788"/>
      <point x="97" y="813"/>
      <point x="133" y="813" type="curve" smooth="yes"/>
      <point x="172" y="813"/>
      <point x="205" y="778"/>
      <point x="242" y="719" type="curve" smooth="yes"/>
      <point x="292" y="638" type="line"/>
    </contour>
    <contour>
      <point x="1276" y="1197" type="line"/>
      <point x="1427" y="1197" type="line"/>
      <point x="1427" y="0" type="line"/>
      <point x="1276" y="0" type="line"/>
    </contour>
  </outline>
</glyph>
<glyph name="gadeva" format="1">
  <advance width="1247"/>
  <unicode hex="0917"/>
  <outline>
    <contour>
      <point x="445" y="1204" type="line"/>
      <point x="445" y="436" type="line" smooth="yes"/>
      <point x="445" y="390"/>
      <point x="432" y="368"/>
      <point x="388" y="368" type="curve" smooth="yes"/>
      <point x="318" y="368"/>
      <point x="147" y="531"/>
      <point x="146" y="596" type="curve" smooth="yes"/>
      <point x="146" y="630"/>
      <point x="163" y="653"/>
      <point x="213" y="653" type="curve" smooth="yes"/>
      <point x="326" y="653" type="line"/>
      <point x="295" y="621" type="line"/>
      <point x="295" y="1204" type="line"/>
    </contour>
    <contour>
      <point x="862" y="1197" type="line"/>
      <point x="1012" y="1197" type="line"/>
      <point x="1012" y="0" type="line"/>
      <point x="862" y="0" type="line"/>
    </contour>
    <contour>
      <point x="1259" y="1166" type="line"/>
      <point x="-26" y="1166" type="line"/>
      <point x="-26" y="1278" type="line"/>
      <point x="1259" y="1278" type="line"/>
    </contour>
  </outline>
</glyph>
<glyph name="ghadeva" format="1">
  <advance width="1372"/>
  <unicode hex="0918"/>
  <outline>
    <contour>
      <point x="463" y="753" type="line"/>
      <point x="252" y="806"/>
      <point x="163" y="926"/>
      <point x="163" y="1069" type="curve" smooth="yes"/>
      <point x="163" y="1131"/>
      <point x="178" y="1184"/>
      <point x="215" y="1241" type="curve"/>
      <point x="361" y="1207" type="line"/>
      <point x="322" y="1146"/>
      <point x="311" y="1110"/>
      <point x="311" y="1054" type="curve" smooth="yes"/>
      <point x="311" y="961"/>
      <point x="367" y="871"/>
      <point x="583" y="841" type="curve"/>
    </contour>
    <contour>
      <point x="-40" y="1166" type="line"/>
      <point x="-40" y="1278" type="line"/>
      <point x="1385" y="1278" type="line"/>
      <point x="1385" y="1166" type="line"/>
    </contour>
    <contour>
      <point x="1019" y="557" type="curve"/>
      <point x="1020" y="358" type="line"/>
      <point x="930" y="290"/>
      <point x="798" y="252"/>
      <point x="683" y="252" type="curve" smooth="yes"/>
      <point x="475" y="252"/>
      <point x="332" y="388"/>
      <point x="332" y="570" type="curve" smooth="yes"/>
      <point x="332" y="720"/>
      <point x="444" y="875"/>
      <point x="726" y="875" type="curve" smooth="yes"/>
      <point x="738" y="875" type="line"/>
      <point x="776" y="756" type="line"/>
      <point x="762" y="756" type="line"/>
      <point x="542" y="753"/>
      <point x="467" y="659"/>
      <point x="467" y="549" type="curve" smooth="yes"/>
      <point x="467" y="445"/>
      <point x="555" y="375"/>
      <point x="665" y="376" type="curve" smooth="yes"/>
      <point x="793" y="377"/>
      <point x="927" y="441"/>
    </contour>
    <contour>
      <point x="986" y="1197" type="line"/>
      <point x="1136" y="1197" type="line"/>
      <point x="1136" y="0" type="line"/>
      <point x="986" y="0" type="line"/>
    </contour>
  </outline>
</glyph>
<glyph name="ngadeva" format="1">
  <advance width="1285"/>
  <unicode hex="0919"/>
  <outline>
    <contour>
      <point x="1083" y="1166" type="line"/>
      <point x="1083" y="1278" type="line"/>
      <point x="1352" y="1278" type="line"/>
      <point x="1352" y="1166" type="line"/>
    </contour>
    <contour>
      <point x="1087" y="803" type="curve" smooth="yes"/>
      <point x="1155" y="803"/>
      <point x="1185" y="762"/>
      <point x="1185" y="702" type="curve" smooth="yes"/>
      <point x="1185" y="642"/>
      <point x="1153" y="600"/>
      <point x="1087" y="600" type="curve" smooth="yes"/>
      <point x="1018" y="600"/>
      <point x="989" y="642"/>
      <point x="989" y="702" type="curve" smooth="yes"/>
      <point x="989" y="761"/>
      <point x="1019" y="803"/>
    </contour>
    <component base="ddadeva"/>
    <contour>
      <point x="41" y="8" type="move" name="x56"/>
    </contour>
    <contour>
      <point x="1730" y="8" type="move" name="x57"/>
    </contour>
    <contour>
      <point x="846" y="8" type="move" name="mark0"/>
    </contour>
  </outline>
</glyph>
<glyph name="cadeva" format="1">
  <advance width="1322"/>
  <unicode hex="091A"/>
  <outline>
    <contour>
      <point x="62" y="764" type="line"/>
      <point x="62" y="884" type="line"/>
      <point x="768" y="884" type="line"/>
      <point x="768" y="764" type="line"/>
    </contour>
    <contour>
      <point x="969" y="567" type="curve"/>
      <point x="969" y="373" type="line"/>
      <point x="906" y="310"/>
      <point x="819" y="248"/>
      <point x="672" y="248" type="curve" smooth="yes"/>
      <point x="455" y="248"/>
      <point x="307" y="384"/>
      <point x="307" y="568" type="curve" smooth="yes"/>
      <point x="307" y="719"/>
      <point x="417" y="870"/>
      <point x="645" y="870" type="curve"/>
      <point x="676" y="764" type="line"/>
      <point x="532" y="765"/>
      <point x="445" y="659"/>
      <point x="445" y="551" type="curve" smooth="yes"/>
      <point x="445" y="450"/>
      <point x="539" y="373"/>
      <point x="654" y="373" type="curve" smooth="yes"/>
      <point x="774" y="373"/>
      <point x="880" y="430"/>
    </contour>
    <contour>
      <point x="-18" y="1166" type="line"/>
      <point x="-18" y="1278" type="line"/>
      <point x="1335" y="1278" type="line"/>
      <point x="1335" y="1166" type="line"/>
    </contour>
    <contour>
      <point x="937" y="1197" type="line"/>
      <point x="1087" y="1197" type="line"/>
      <point x="1087" y="0" type="line"/>
      <point x="937" y="0" type="line"/>
    </contour>
  </outline>
</glyph>
<glyph name="chadeva" format="1">
  <advance width="1451"/>
  <unicode hex="091B"/>
  <outline>
    <contour>
      <point x="637" y="774" type="curve"/>
      <point x="676" y="656" type="line"/>
      <point x="674" y="656"/>
      <point x="671" y="656"/>
      <point x="669" y="656" type="curve" smooth="yes"/>
      <point x="434" y="651"/>
      <point x="359" y="537"/>
      <point x="359" y="427" type="curve" smooth="yes"/>
      <point x="359" y="303"/>
      <point x="470" y="201"/>
      <point x="664" y="201" type="curve" smooth="yes"/>
      <point x="954" y="201"/>
      <point x="1225" y="452"/>
      <point x="1225" y="672" type="curve" smooth="yes"/>
      <point x="1225" y="808"/>
      <point x="1154" y="878"/>
      <point x="1066" y="878" type="curve" smooth="yes"/>
      <point x="992" y="878"/>
      <point x="938" y="805"/>
      <point x="938" y="717" type="curve" smooth="yes"/>
      <point x="938" y="617"/>
      <point x="1012" y="519"/>
      <point x="1201" y="391" type="curve"/>
      <point x="1134" y="311" type="line"/>
      <point x="921" y="446"/>
      <point x="810" y="572"/>
      <point x="810" y="745" type="curve" smooth="yes"/>
      <point x="810" y="865"/>
      <point x="899" y="995"/>
      <point x="1045" y="995" type="curve" smooth="yes"/>
      <point x="1220" y="995"/>
      <point x="1349" y="874"/>
      <point x="1349" y="663" type="curve" smooth="yes"/>
      <point x="1349" y="385"/>
      <point x="1041" y="77"/>
      <point x="678" y="77" type="curve" smooth="yes"/>
      <point x="364" y="77"/>
      <point x="215" y="252"/>
      <point x="215" y="449" type="curve" smooth="yes"/>
      <point x="215" y="617"/>
      <point x="349" y="771"/>
      <point x="632" y="774" type="curve" smooth="yes"/>
      <point x="634" y="774"/>
      <point x="635" y="774"/>
    </contour>
    <contour>
      <point x="517" y="738" type="curve"/>
      <point x="402" y="652" type="line"/>
      <point x="210" y="706"/>
      <point x="125" y="824"/>
      <point x="125" y="974" type="curve" smooth="yes"/>
      <point x="125" y="1085"/>
      <point x="201" y="1222"/>
      <point x="429" y="1263" type="curve"/>
      <point x="517" y="1187" type="line"/>
      <point x="338" y="1161"/>
      <point x="269" y="1052"/>
      <point x="269" y="959" type="curve" smooth="yes"/>
      <point x="269" y="870"/>
      <point x="317" y="773"/>
    </contour>
    <contour>
      <point x="1472" y="1166" type="line"/>
      <point x="-33" y="1166" type="line"/>
      <point x="-33" y="1278" type="line"/>
      <point x="1472" y="1278" type="line"/>
    </contour>
    <contour>
      <point x="989" y="1226" type="line"/>
      <point x="1139" y="1226" type="line"/>
      <point x="1139" y="941" type="line"/>
      <point x="989" y="941" type="line"/>
    </contour>
    <contour>
      <point x="855" y="8" type="move" name="mark0"/>
    </contour>
    <contour>
      <point x="-47" y="8" type="move" name="x65"/>
    </contour>
    <contour>
      <point x="1630" y="8" type="move" name="x66"/>
    </contour>
  </outline>
</glyph>
<glyph name="jhadeva" format="1">
  <advance width="1548"/>
  <unicode hex="091D"/>
  <outline>
    <contour>
      <point x="1208" y="406" type="line"/>
      <point x="1169" y="384"/>
      <point x="1079" y="365"/>
      <point x="1014" y="366" type="curve" smooth="yes"/>
      <point x="931" y="366"/>
      <point x="848" y="379"/>
      <point x="810" y="388" type="curve"/>
      <point x="810" y="404"/>
      <point x="802" y="477"/>
      <point x="802" y="505" type="curve"/>
      <point x="836" y="491"/>
      <point x="927" y="483"/>
      <point x="972" y="483" type="curve" smooth="yes"/>
      <point x="1045" y="483"/>
      <point x="1128" y="501"/>
      <point x="1208" y="555" type="curve"/>
    </contour>
    <contour>
      <point x="1162" y="1197" type="line"/>
      <point x="1312" y="1197" type="line"/>
      <point x="1312" y="0" type="line"/>
      <point x="1162" y="0" type="line"/>
    </contour>
    <contour>
      <point x="1560" y="1166" type="line"/>
      <point x="941" y="1166" type="line"/>
      <point x="941" y="1278" type="line"/>
      <point x="1560" y="1278" type="line"/>
    </contour>
    <component base="ideva"/>
  </outline>
</glyph>
<glyph name="nyadeva" format="1">
  <advance width="1539"/>
  <unicode hex="091E"/>
  <outline>
    <contour>
      <point x="814" y="530" type="curve"/>
      <point x="814" y="652" type="line"/>
      <point x="848" y="638"/>
      <point x="934" y="632"/>
      <point x="979" y="632" type="curve" smooth="yes"/>
      <point x="1025" y="632"/>
      <point x="1116" y="642"/>
      <point x="1183" y="673" type="curve"/>
      <point x="1183" y="535" type="line"/>
      <point x="1135" y="517"/>
      <point x="1061" y="509"/>
      <point x="1009" y="509" type="curve" smooth="yes"/>
      <point x="950" y="509"/>
      <point x="873" y="517"/>
    </contour>
    <contour>
      <point x="869" y="567" type="curve" smooth="yes"/>
      <point x="869" y="350"/>
      <point x="731" y="218"/>
      <point x="544" y="218" type="curve" smooth="yes"/>
      <point x="348" y="218"/>
      <point x="223" y="297"/>
      <point x="27" y="492" type="curve"/>
      <point x="81" y="597" type="line"/>
      <point x="266" y="410"/>
      <point x="382" y="349"/>
      <point x="508" y="349" type="curve" smooth="yes"/>
      <point x="654" y="349"/>
      <point x="742" y="449"/>
      <point x="742" y="583" type="curve" smooth="yes"/>
      <point x="741" y="694"/>
      <point x="641" y="784"/>
      <point x="510" y="784" type="curve" smooth="yes"/>
      <point x="424" y="784"/>
      <point x="365" y="761"/>
      <point x="299" y="712" type="curve"/>
      <point x="239" y="819" type="line"/>
      <point x="316" y="872"/>
      <point x="394" y="907"/>
      <point x="500" y="907" type="curve" smooth="yes"/>
      <point x="704" y="907"/>
      <point x="869" y="773"/>
    </contour>
    <contour>
      <point x="-35" y="1166" type="line"/>
      <point x="-35" y="1278" type="line"/>
      <point x="1551" y="1278" type="line"/>
      <point x="1551" y="1166" type="line"/>
    </contour>
    <contour>
      <point x="1153" y="1197" type="line"/>
      <point x="1303" y="1197" type="line"/>
      <point x="1303" y="0" type="line"/>
      <point x="1153" y="0" type="line"/>
    </contour>
  </outline>
</glyph>
<glyph name="ttadeva" format="1">
  <advance width="1103"/>
  <unicode hex="091F"/>
  <outline>
    <contour>
      <point x="700" y="1206" type="line"/>
      <point x="846" y="1206" type="line"/>
      <point x="846" y="769" type="line"/>
      <point x="597" y="769" type="line"/>
      <point x="366" y="769"/>
      <point x="266" y="663"/>
      <point x="266" y="506" type="curve" smooth="yes"/>
      <point x="266" y="356"/>
      <point x="416" y="244"/>
      <point x="594" y="244" type="curve" smooth="yes"/>
      <point x="713" y="244"/>
      <point x="788" y="258"/>
      <point x="910" y="305" type="curve"/>
      <point x="950" y="183" type="line"/>
      <point x="811" y="134"/>
      <point x="745" y="122"/>
      <point x="619" y="122" type="curve" smooth="yes"/>
      <point x="315" y="122"/>
      <point x="120" y="302"/>
      <point x="120" y="530" type="curve" smooth="yes"/>
      <point x="120" y="727"/>
      <point x="262" y="884"/>
      <point x="537" y="884" type="curve" smooth="yes"/>
      <point x="739" y="884" type="line"/>
      <point x="700" y="851" type="line"/>
    </contour>
    <contour>
      <point x="1145" y="1166" type="line"/>
      <point x="-26" y="1166" type="line"/>
      <point x="-26" y="1278" type="line"/>
      <point x="1145" y="1278" type="line"/>
    </contour>
    <contour>
      <point x="603" y="8" type="move" name="mark0"/>
    </contour>
    <contour>
      <point x="1178" y="8" type="move" name="x29"/>
    </contour>
    <contour>
      <point x="-14" y="8" type="move" name="x28"/>
    </contour>
  </outline>
</glyph>
<glyph name="tthadeva" format="1">
  <advance width="1215"/>
  <unicode hex="0920"/>
  <outline>
    <contour>
      <point x="928" y="505" type="curve" smooth="yes"/>
      <point x="928" y="622"/>
      <point x="848" y="732"/>
      <point x="735" y="768" type="curve"/>
      <point x="587" y="768" type="line"/>
      <point x="351" y="768"/>
      <point x="242" y="654"/>
      <point x="242" y="496" type="curve" smooth="yes"/>
      <point x="242" y="351"/>
      <point x="369" y="230"/>
      <point x="593" y="230" type="curve" smooth="yes"/>
      <point x="793" y="230"/>
      <point x="928" y="345"/>
    </contour>
    <contour>
      <point x="1249" y="1166" type="line"/>
      <point x="-19" y="1166" type="line"/>
      <point x="-19" y="1278" type="line"/>
      <point x="1249" y="1278" type="line"/>
    </contour>
    <contour>
      <point x="660" y="1202" type="line"/>
      <point x="806" y="1202" type="line"/>
      <point x="806" y="829" type="line"/>
      <point x="771" y="877" type="line"/>
      <point x="943" y="818"/>
      <point x="1063" y="670"/>
      <point x="1063" y="488" type="curve" smooth="yes"/>
      <point x="1063" y="275"/>
      <point x="902" y="111"/>
      <point x="625" y="111" type="curve" smooth="yes"/>
      <point x="269" y="111"/>
      <point x="98" y="303"/>
      <point x="98" y="522" type="curve" smooth="yes"/>
      <point x="98" y="724"/>
      <point x="257" y="884"/>
      <point x="518" y="884" type="curve" smooth="yes"/>
      <point x="700" y="884" type="line"/>
      <point x="660" y="850" type="line"/>
    </contour>
    <contour>
      <point x="609" y="8" type="move" name="mark0"/>
    </contour>
    <contour>
      <point x="-9" y="8" type="move" name="x34"/>
    </contour>
    <contour>
      <point x="1355" y="8" type="move" name="x35"/>
    </contour>
  </outline>
</glyph>
<glyph name="ddadeva" format="1">
  <advance width="1143"/>
  <unicode hex="0921"/>
  <outline>
    <contour>
      <point x="749" y="1202" type="line"/>
      <point x="895" y="1202" type="line"/>
      <point x="895" y="839" type="line"/>
      <point x="502" y="839" type="line"/>
      <point x="373" y="839"/>
      <point x="331" y="789"/>
      <point x="331" y="709" type="curve" smooth="yes"/>
      <point x="331" y="643"/>
      <point x="385" y="590"/>
      <point x="478" y="553" type="curve"/>
      <point x="403" y="557" type="line"/>
      <point x="521" y="610"/>
      <point x="589" y="625"/>
      <point x="675" y="625" type="curve" smooth="yes"/>
      <point x="873" y="625"/>
      <point x="994" y="514"/>
      <point x="994" y="357" type="curve" smooth="yes"/>
      <point x="994" y="182"/>
      <point x="852" y="75"/>
      <point x="618" y="75" type="curve" smooth="yes"/>
      <point x="460" y="75"/>
      <point x="329" y="120"/>
      <point x="141" y="225" type="curve"/>
      <point x="166" y="344" type="line"/>
      <point x="347" y="233"/>
      <point x="483" y="188"/>
      <point x="604" y="188" type="curve" smooth="yes"/>
      <point x="758" y="188"/>
      <point x="861" y="264"/>
      <point x="861" y="360" type="curve" smooth="yes"/>
      <point x="861" y="448"/>
      <point x="797" y="506"/>
      <point x="670" y="506" type="curve" smooth="yes"/>
      <point x="585" y="506"/>
      <point x="528" y="488"/>
      <point x="444" y="446" type="curve"/>
      <point x="435" y="446" type="line"/>
      <point x="262" y="530"/>
      <point x="196" y="626"/>
      <point x="196" y="739" type="curve" smooth="yes"/>
      <point x="196" y="860"/>
      <point x="282" y="950"/>
      <point x="476" y="950" type="curve" smooth="yes"/>
      <point x="794" y="950" type="line"/>
      <point x="749" y="904" type="line"/>
    </contour>
    <contour>
      <point x="1171" y="1166" type="line"/>
      <point x="-20" y="1166" type="line"/>
      <point x="-20" y="1278" type="line"/>
      <point x="1171" y="1278" type="line"/>
    </contour>
    <contour>
      <point x="1270" y="8" type="move" name="x45"/>
    </contour>
    <contour>
      <point x="-249" y="8" type="move" name="x44"/>
    </contour>
    <contour>
      <point x="556" y="8" type="move" name="mark0"/>
    </contour>
  </outline>
</glyph>
<glyph name="nnadeva" format="1">
  <advance width="1535"/>
  <unicode hex="0923"/>
  <outline>
    <contour>
      <point x="680" y="1202" type="line"/>
      <point x="830" y="1202" type="line"/>
      <point x="830" y="723" type="line"/>
      <point x="830" y="501"/>
      <point x="736" y="366"/>
      <point x="507" y="366" type="curve" smooth="yes"/>
      <point x="285" y="366"/>
      <point x="160" y="500"/>
      <point x="160" y="735" type="curve" smooth="yes"/>
      <point x="160" y="1202" type="line"/>
      <point x="310" y="1202" type="line"/>
      <point x="310" y="689" type="line"/>
      <point x="310" y="554"/>
      <point x="378" y="485"/>
      <point x="488" y="485" type="curve" smooth="yes"/>
      <point x="617" y="485"/>
      <point x="680" y="555"/>
      <point x="680" y="722" type="curve" smooth="yes"/>
    </contour>
    <contour>
      <point x="-24" y="1166" type="line"/>
      <point x="-24" y="1278" type="line"/>
      <point x="1547" y="1278" type="line"/>
      <point x="1547" y="1166" type="line"/>
    </contour>
    <contour>
      <point x="1149" y="1197" type="line"/>
      <point x="1299" y="1197" type="line"/>
      <point x="1299" y="0" type="line"/>
      <point x="1149" y="0" type="line"/>
    </contour>
  </outline>
</glyph>
<glyph name="tadeva" format="1">
  <advance width="1185"/>
  <unicode hex="0924"/>
  <outline>
    <contour>
      <point x="850" y="889" type="line"/>
      <point x="850" y="761" type="line"/>
      <point x="534" y="761" type="line"/>
      <point x="374" y="761"/>
      <point x="281" y="665"/>
      <point x="281" y="524" type="curve" smooth="yes"/>
      <point x="281" y="394"/>
      <point x="337" y="250"/>
      <point x="495" y="17" type="curve"/>
      <point x="375" y="-23" type="line"/>
      <point x="216" y="207"/>
      <point x="141" y="393"/>
      <point x="141" y="558" type="curve" smooth="yes"/>
      <point x="141" y="748"/>
      <point x="257" y="889"/>
      <point x="494" y="889" type="curve" smooth="yes"/>
    </contour>
    <contour>
      <point x="-29" y="1166" type="line"/>
      <point x="-29" y="1278" type="line"/>
      <point x="1197" y="1278" type="line"/>
      <point x="1197" y="1166" type="line"/>
    </contour>
    <contour>
      <point x="799" y="1197" type="line"/>
      <point x="950" y="1197" type="line"/>
      <point x="950" y="0" type="line"/>
      <point x="799" y="0" type="line"/>
    </contour>
  </outline>
</glyph>
<glyph name="thadeva" format="1">
  <advance width="1281"/>
  <unicode hex="0925"/>
  <outline>
    <contour>
      <point x="627" y="957" type="curve" smooth="yes"/>
      <point x="627" y="772"/>
      <point x="480" y="614"/>
      <point x="252" y="522" type="curve"/>
      <point x="256" y="582" type="line"/>
      <point x="342" y="455"/>
      <point x="462" y="386"/>
      <point x="586" y="386" type="curve" smooth="yes"/>
      <point x="730" y="386"/>
      <point x="857" y="449"/>
      <point x="946" y="592" type="curve"/>
      <point x="947" y="402" type="line"/>
      <point x="873" y="312"/>
      <point x="757" y="261"/>
      <point x="621" y="261" type="curve" smooth="yes"/>
      <point x="420" y="261"/>
      <point x="222" y="379"/>
      <point x="111" y="596" type="curve"/>
      <point x="111" y="599" type="line"/>
      <point x="375" y="694"/>
      <point x="498" y="841"/>
      <point x="498" y="987" type="curve" smooth="yes"/>
      <point x="498" y="1113"/>
      <point x="420" y="1197"/>
      <point x="322" y="1197" type="curve" smooth="yes"/>
      <point x="235" y="1197"/>
      <point x="202" y="1144"/>
      <point x="202" y="1077" type="curve" smooth="yes"/>
      <point x="203" y="969"/>
      <point x="306" y="889"/>
      <point x="504" y="835" type="curve"/>
      <point x="451" y="752" type="line"/>
      <point x="186" y="820"/>
      <point x="67" y="954"/>
      <point x="67" y="1109" type="curve" smooth="yes"/>
      <point x="67" y="1218"/>
      <point x="144" y="1313"/>
      <point x="303" y="1313" type="curve" smooth="yes"/>
      <point x="510" y="1313"/>
      <point x="627" y="1147"/>
    </contour>
    <contour>
      <point x="895" y="1197" type="line"/>
      <point x="1045" y="1197" type="line"/>
      <point x="1045" y="0" type="line"/>
      <point x="895" y="0" type="line"/>
    </contour>
    <contour>
      <point x="1293" y="1166" type="line"/>
      <point x="778" y="1166" type="line"/>
      <point x="778" y="1278" type="line"/>
      <point x="1293" y="1278" type="line"/>
    </contour>
  </outline>
</glyph>
<glyph name="dadeva" format="1">
  <advance width="1056"/>
  <unicode hex="0926"/>
  <outline>
    <contour>
      <point x="-31" y="1166" type="line"/>
      <point x="-31" y="1278" type="line"/>
      <point x="1064" y="1278" type="line"/>
      <point x="1064" y="1166" type="line"/>
    </contour>
    <contour>
      <point x="678" y="212" type="line"/>
      <point x="791" y="257" type="line"/>
      <point x="965" y="-97" type="line"/>
      <point x="848" y="-139" type="line"/>
    </contour>
    <contour>
      <point x="563" y="156" type="curve" smooth="yes"/>
      <point x="289" y="156"/>
      <point x="102" y="332"/>
      <point x="102" y="547" type="curve" smooth="yes"/>
      <point x="102" y="732"/>
      <point x="251" y="884"/>
      <point x="530" y="884" type="curve" smooth="yes"/>
      <point x="722" y="884" type="line"/>
      <point x="681" y="836" type="line"/>
      <point x="681" y="1212" type="line"/>
      <point x="827" y="1212" type="line"/>
      <point x="827" y="766" type="line"/>
      <point x="593" y="766" type="line"/>
      <point x="339" y="766"/>
      <point x="246" y="651"/>
      <point x="246" y="514" type="curve" smooth="yes"/>
      <point x="246" y="383"/>
      <point x="384" y="268"/>
      <point x="551" y="268" type="curve" smooth="yes"/>
      <point x="603" y="268"/>
      <point x="655" y="273"/>
      <point x="745" y="311" type="curve"/>
      <point x="662" y="244" type="line"/>
      <point x="634" y="292"/>
      <point x="621" y="337"/>
      <point x="621" y="363" type="curve" smooth="yes"/>
      <point x="621" y="398"/>
      <point x="649" y="427"/>
      <point x="705" y="427" type="curve" smooth="yes"/>
      <point x="838" y="427"/>
      <point x="925" y="375"/>
      <point x="925" y="323" type="curve" smooth="yes"/>
      <point x="925" y="247"/>
      <point x="781" y="156"/>
    </contour>
    <contour>
      <point x="827" y="8" type="move" name="mark0"/>
    </contour>
    <contour>
      <point x="1167" y="8" type="move" name="x43"/>
    </contour>
    <contour>
      <point x="-64" y="8" type="move" name="x42"/>
    </contour>
  </outline>
</glyph>
<glyph name="dhadeva" format="1">
  <advance width="1269"/>
  <unicode hex="0927"/>
  <outline>
    <contour>
      <point x="670" y="756" type="line"/>
      <point x="659" y="756" type="line"/>
      <point x="435" y="753"/>
      <point x="364" y="660"/>
      <point x="364" y="549" type="curve" smooth="yes"/>
      <point x="364" y="445"/>
      <point x="461" y="375"/>
      <point x="571" y="376" type="curve" smooth="yes"/>
      <point x="699" y="377"/>
      <point x="822" y="440"/>
      <point x="915" y="556" type="curve"/>
      <point x="916" y="358" type="line"/>
      <point x="826" y="290"/>
      <point x="704" y="252"/>
      <point x="589" y="252" type="curve" smooth="yes"/>
      <point x="381" y="252"/>
      <point x="229" y="388"/>
      <point x="229" y="570" type="curve" smooth="yes"/>
      <point x="229" y="721"/>
      <point x="338" y="875"/>
      <point x="620" y="875" type="curve" smooth="yes"/>
      <point x="632" y="875" type="line"/>
    </contour>
    <contour>
      <point x="362" y="756" type="line"/>
      <point x="165" y="803"/>
      <point x="45" y="911"/>
      <point x="45" y="1078" type="curve" smooth="yes"/>
      <point x="45" y="1215"/>
      <point x="150" y="1316"/>
      <point x="310" y="1316" type="curve" smooth="yes"/>
      <point x="414" y="1316"/>
      <point x="479" y="1296"/>
      <point x="545" y="1263" type="curve"/>
      <point x="520" y="1156" type="line"/>
      <point x="469" y="1180"/>
      <point x="415" y="1197"/>
      <point x="344" y="1197" type="curve" smooth="yes"/>
      <point x="246" y="1197"/>
      <point x="189" y="1129"/>
      <point x="189" y="1050" type="curve" smooth="yes"/>
      <point x="189" y="941"/>
      <point x="280" y="863"/>
      <point x="479" y="839" type="curve"/>
    </contour>
    <contour>
      <point x="884" y="1197" type="line"/>
      <point x="1034" y="1197" type="line"/>
      <point x="1034" y="0" type="line"/>
      <point x="884" y="0" type="line"/>
    </contour>
    <contour>
      <point x="1281" y="1166" type="line"/>
      <point x="784" y="1166" type="line"/>
      <point x="784" y="1278" type="line"/>
      <point x="1281" y="1278" type="line"/>
    </contour>
  </outline>
</glyph>
<glyph name="nadeva" format="1">
  <advance width="1179"/>
  <unicode hex="0928"/>
  <outline>
    <contour>
      <point x="812" y="789" type="line"/>
      <point x="812" y="664" type="line"/>
      <point x="285" y="664" type="line"/>
      <point x="335" y="715" type="line"/>
      <point x="335" y="473" type="line"/>
      <point x="335" y="426"/>
      <point x="314" y="401"/>
      <point x="271" y="401" type="curve" smooth="yes"/>
      <point x="220" y="401"/>
      <point x="134" y="591"/>
      <point x="134" y="710" type="curve" smooth="yes"/>
      <point x="134" y="762"/>
      <point x="157" y="789"/>
      <point x="224" y="789" type="curve" smooth="yes"/>
    </contour>
    <contour>
      <point x="-33" y="1166" type="line"/>
      <point x="-33" y="1278" type="line"/>
      <point x="1191" y="1278" type="line"/>
      <point x="1191" y="1166" type="line"/>
    </contour>
    <contour>
      <point x="794" y="1197" type="line"/>
      <point x="944" y="1197" type="line"/>
      <point x="944" y="0" type="line"/>
      <point x="794" y="0" type="line"/>
    </contour>
  </outline>
</glyph>
<glyph name="padeva" format="1">
  <advance width="1157"/>
  <unicode hex="092A"/>
  <outline>
    <contour>
      <point x="1170" y="1166" type="line"/>
      <point x="-31" y="1166" type="line"/>
      <point x="-31" y="1278" type="line"/>
      <point x="1170" y="1278" type="line"/>
    </contour>
    <contour>
      <point x="313" y="1224" type="line"/>
      <point x="313" y="728" type="line"/>
      <point x="313" y="589"/>
      <point x="388" y="514"/>
      <point x="523" y="514" type="curve" smooth="yes"/>
      <point x="617" y="514"/>
      <point x="705" y="536"/>
      <point x="802" y="606" type="curve"/>
      <point x="802" y="448" type="line"/>
      <point x="730" y="412"/>
      <point x="638" y="392"/>
      <point x="550" y="392" type="curve" smooth="yes"/>
      <point x="316" y="392"/>
      <point x="163" y="534"/>
      <point x="163" y="764" type="curve" smooth="yes"/>
      <point x="163" y="1224" type="line"/>
    </contour>
    <contour>
      <point x="771" y="1197" type="line"/>
      <point x="921" y="1197" type="line"/>
      <point x="921" y="0" type="line"/>
      <point x="771" y="0" type="line"/>
    </contour>
  </outline>
</glyph>
<glyph name="phadeva" format="1">
  <advance width="1534"/>
  <unicode hex="092B"/>
  <outline>
    <contour>
      <point x="312" y="1224" type="line"/>
      <point x="312" y="774" type="line"/>
      <point x="312" y="634"/>
      <point x="378" y="549"/>
      <point x="513" y="549" type="curve" smooth="yes"/>
      <point x="605" y="549"/>
      <point x="687" y="574"/>
      <point x="785" y="642" type="curve"/>
      <point x="785" y="484" type="line"/>
      <point x="712" y="447"/>
      <point x="626" y="428"/>
      <point x="538" y="428" type="curve" smooth="yes"/>
      <point x="304" y="428"/>
      <point x="162" y="580"/>
      <point x="162" y="809" type="curve" smooth="yes"/>
      <point x="162" y="1224" type="line"/>
    </contour>
    <contour>
      <point x="893" y="531" type="curve"/>
      <point x="863" y="687" type="line"/>
      <point x="931" y="722"/>
      <point x="1035" y="765"/>
      <point x="1152" y="765" type="curve" smooth="yes"/>
      <point x="1329" y="765"/>
      <point x="1465" y="641"/>
      <point x="1465" y="458" type="curve" smooth="yes"/>
      <point x="1465" y="339"/>
      <point x="1428" y="207"/>
      <point x="1354" y="92" type="curve"/>
      <point x="1228" y="140" type="line"/>
      <point x="1304" y="266"/>
      <point x="1337" y="372"/>
      <point x="1337" y="476" type="curve" smooth="yes"/>
      <point x="1337" y="575"/>
      <point x="1264" y="637"/>
      <point x="1170" y="637" type="curve" smooth="yes"/>
      <point x="1071" y="637"/>
      <point x="971" y="599"/>
    </contour>
    <contour>
      <point x="-50" y="1166" type="line"/>
      <point x="-50" y="1278" type="line"/>
      <point x="1566" y="1278" type="line"/>
      <point x="1566" y="1166" type="line"/>
    </contour>
    <contour>
      <point x="752" y="1197" type="line"/>
      <point x="903" y="1197" type="line"/>
      <point x="903" y="0" type="line"/>
      <point x="752" y="0" type="line"/>
    </contour>
    <contour>
      <point x="872" y="8" type="move" name="x2"/>
    </contour>
    <contour>
      <point x="872" y="8" type="move" name="mark0"/>
    </contour>
    <contour>
      <point x="34" y="8" type="move" name="x43"/>
    </contour>
  </outline>
</glyph>
<glyph name="badeva" format="1">
  <advance width="1163"/>
  <unicode hex="092C"/>
  <outline>
    <contour>
      <point x="750" y="423" type="line"/>
      <point x="675" y="365" type="line"/>
      <point x="304" y="792" type="line"/>
      <point x="379" y="849" type="line"/>
    </contour>
    <component base="vadeva"/>
  </outline>
</glyph>
<glyph name="yadeva" format="1">
  <advance width="1220"/>
  <unicode hex="092F"/>
  <outline>
    <contour>
      <point x="-25" y="1166" type="line"/>
      <point x="-25" y="1278" type="line"/>
      <point x="1231" y="1278" type="line"/>
      <point x="1231" y="1166" type="line"/>
    </contour>
    <contour>
      <point x="352" y="1191" type="line"/>
      <point x="502" y="1191" type="line"/>
      <point x="502" y="959" type="line"/>
      <point x="502" y="779"/>
      <point x="407" y="631"/>
      <point x="194" y="562" type="curve"/>
      <point x="197" y="615" type="line"/>
      <point x="287" y="488"/>
      <point x="394" y="407"/>
      <point x="529" y="407" type="curve" smooth="yes"/>
      <point x="681" y="407"/>
      <point x="801" y="489"/>
      <point x="881" y="628" type="curve"/>
      <point x="881" y="433" type="line"/>
      <point x="808" y="343"/>
      <point x="703" y="282"/>
      <point x="556" y="282" type="curve" smooth="yes"/>
      <point x="362" y="282"/>
      <point x="164" y="411"/>
      <point x="56" y="627" type="curve"/>
      <point x="56" y="632" type="line"/>
      <point x="295" y="724"/>
      <point x="352" y="833"/>
      <point x="352" y="981" type="curve" smooth="yes"/>
    </contour>
    <contour>
      <point x="833" y="1197" type="line"/>
      <point x="984" y="1197" type="line"/>
      <point x="984" y="0" type="line"/>
      <point x="833" y="0" type="line"/>
    </contour>
  </outline>
</glyph>
<glyph name="radeva" format="1">
  <advance width="927"/>
  <unicode hex="0930"/>
  <outline>
    <contour>
      <point x="749" y="63" type="line"/>
      <point x="644" y="-11" type="line"/>
      <point x="163" y="648" type="line"/>
      <point x="116" y="710"/>
      <point x="91" y="750"/>
      <point x="91" y="786" type="curve" smooth="yes"/>
      <point x="91" y="817"/>
      <point x="118" y="843"/>
      <point x="153" y="843" type="curve" smooth="yes"/>
      <point x="192" y="843"/>
      <point x="230" y="790"/>
      <point x="273" y="731" type="curve" smooth="yes"/>
      <point x="377" y="586" type="line"/>
      <point x="383" y="566" type="line"/>
    </contour>
    <contour>
      <point x="298" y="611" type="line"/>
      <point x="479" y="653"/>
      <point x="557" y="762"/>
      <point x="557" y="934" type="curve" smooth="yes"/>
      <point x="557" y="1203" type="line"/>
      <point x="707" y="1203" type="line"/>
      <point x="707" y="911" type="line"/>
      <point x="707" y="734"/>
      <point x="629" y="556"/>
      <point x="388" y="494" type="curve"/>
    </contour>
    <contour>
      <point x="-23" y="1166" type="line"/>
      <point x="-23" y="1278" type="line"/>
      <point x="960" y="1278" type="line"/>
      <point x="960" y="1166" type="line"/>
    </contour>
    <contour>
      <point x="44" y="8" type="move" name="x27"/>
    </contour>
    <contour>
      <point x="558" y="8" type="move" name="mark0"/>
    </contour>
  </outline>
</glyph>
<glyph name="ladeva" format="1">
  <advance width="1407"/>
  <unicode hex="0932"/>
  <outline>
    <contour>
      <point x="1071" y="934" type="line"/>
      <point x="1071" y="752" type="line"/>
      <point x="637" y="345" type="line"/>
      <point x="545" y="440" type="line"/>
    </contour>
    <contour>
      <point x="850" y="659" type="curve"/>
      <point x="765" y="568" type="line"/>
      <point x="645" y="704"/>
      <point x="560" y="748"/>
      <point x="442" y="748" type="curve" smooth="yes"/>
      <point x="320" y="748"/>
      <point x="229" y="646"/>
      <point x="228" y="533" type="curve" smooth="yes"/>
      <point x="226" y="397"/>
      <point x="302" y="280"/>
      <point x="488" y="109" type="curve"/>
      <point x="387" y="38" type="line"/>
      <point x="201" y="213"/>
      <point x="92" y="370"/>
      <point x="92" y="562" type="curve" smooth="yes"/>
      <point x="92" y="733"/>
      <point x="223" y="883"/>
      <point x="433" y="883" type="curve" smooth="yes"/>
      <point x="601" y="883"/>
      <point x="723" y="797"/>
    </contour>
    <contour>
      <point x="-19" y="1166" type="line"/>
      <point x="-19" y="1278" type="line"/>
      <point x="1419" y="1278" type="line"/>
      <point x="1419" y="1166" type="line"/>
    </contour>
    <contour>
      <point x="1021" y="1197" type="line"/>
      <point x="1172" y="1197" type="line"/>
      <point x="1172" y="0" type="line"/>
      <point x="1021" y="0" type="line"/>
    </contour>
  </outline>
</glyph>
<glyph name="lladeva" format="1">
  <advance width="1494"/>
  <unicode hex="0933"/>
  <outline>
    <contour>
      <point x="1530" y="1166" type="line"/>
      <point x="-53" y="1166" type="line"/>
      <point x="-53" y="1278" type="line"/>
      <point x="1530" y="1278" type="line"/>
    </contour>
    <contour>
      <point x="698" y="538" type="curve" smooth="yes"/>
      <point x="764" y="750"/>
      <point x="906" y="891"/>
      <point x="1082" y="891" type="curve" smooth="yes"/>
      <point x="1301" y="891"/>
      <point x="1443" y="725"/>
      <point x="1443" y="502" type="curve" smooth="yes"/>
      <point x="1443" y="283"/>
      <point x="1291" y="141"/>
      <point x="1097" y="141" type="curve" smooth="yes"/>
      <point x="958" y="141"/>
      <point x="819" y="214"/>
      <point x="667" y="349" type="curve"/>
      <point x="727" y="444" type="line"/>
      <point x="860" y="322"/>
      <point x="978" y="263"/>
      <point x="1070" y="263" type="curve" smooth="yes"/>
      <point x="1209" y="263"/>
      <point x="1313" y="363"/>
      <point x="1313" y="528" type="curve" smooth="yes"/>
      <point x="1313" y="665"/>
      <point x="1218" y="765"/>
      <point x="1103" y="765" type="curve" smooth="yes"/>
      <point x="993" y="765"/>
      <point x="887" y="672"/>
      <point x="833" y="498" type="curve" smooth="yes"/>
      <point x="763" y="283"/>
      <point x="632" y="135"/>
      <point x="453" y="135" type="curve" smooth="yes"/>
      <point x="254" y="135"/>
      <point x="88" y="264"/>
      <point x="88" y="524" type="curve" smooth="yes"/>
      <point x="88" y="742"/>
      <point x="242" y="889"/>
      <point x="441" y="889" type="curve" smooth="yes"/>
      <point x="612" y="889"/>
      <point x="718" y="810"/>
      <point x="851" y="687" type="curve"/>
      <point x="804" y="581" type="line"/>
      <point x="685" y="701"/>
      <point x="581" y="766"/>
      <point x="464" y="766" type="curve" smooth="yes"/>
      <point x="333" y="766"/>
      <point x="220" y="673"/>
      <point x="220" y="495" type="curve" smooth="yes"/>
      <point x="220" y="331"/>
      <point x="334" y="260"/>
      <point x="432" y="260" type="curve" smooth="yes"/>
      <point x="547" y="260"/>
      <point x="642" y="364"/>
    </contour>
    <contour>
      <point x="1159" y="823" type="line"/>
      <point x="1013" y="824" type="line"/>
      <point x="1013" y="1193" type="line"/>
      <point x="1159" y="1193" type="line"/>
    </contour>
    <contour>
      <point x="955" y="-22" type="move" name="mark0"/>
    </contour>
  </outline>
</glyph>
<glyph name="vadeva" format="1">
  <advance width="1163"/>
  <unicode hex="0935"/>
  <outline>
    <contour>
      <point x="1175" y="1166" type="line"/>
      <point x="-29" y="1166" type="line"/>
      <point x="-29" y="1278" type="line"/>
      <point x="1175" y="1278" type="line"/>
    </contour>
    <contour>
      <point x="810" y="544" type="curve"/>
      <point x="810" y="373" type="line"/>
      <point x="729" y="294"/>
      <point x="618" y="256"/>
      <point x="523" y="256" type="curve" smooth="yes"/>
      <point x="270" y="256"/>
      <point x="116" y="444"/>
      <point x="116" y="641" type="curve" smooth="yes"/>
      <point x="116" y="814"/>
      <point x="266" y="938"/>
      <point x="463" y="938" type="curve" smooth="yes"/>
      <point x="627" y="938"/>
      <point x="697" y="919"/>
      <point x="843" y="858" type="curve"/>
      <point x="842" y="732" type="line"/>
      <point x="700" y="805"/>
      <point x="633" y="820"/>
      <point x="511" y="820" type="curve" smooth="yes"/>
      <point x="342" y="820"/>
      <point x="254" y="731"/>
      <point x="254" y="610" type="curve" smooth="yes"/>
      <point x="254" y="493"/>
      <point x="344" y="380"/>
      <point x="495" y="380" type="curve" smooth="yes"/>
      <point x="613" y="380"/>
      <point x="712" y="421"/>
    </contour>
    <contour>
      <point x="778" y="1197" type="line"/>
      <point x="928" y="1197" type="line"/>
      <point x="928" y="0" type="line"/>
      <point x="778" y="0" type="line"/>
    </contour>
  </outline>
</glyph>
<glyph name="shadeva" format="1">
  <advance width="1504"/>
  <unicode hex="0936"/>
  <outline>
    <contour>
      <point x="464" y="466" type="line"/>
      <point x="811" y="89" type="line"/>
      <point x="715" y="4" type="line"/>
      <point x="358" y="400" type="line"/>
    </contour>
    <contour>
      <point x="277" y="322" type="curve" smooth="yes"/>
      <point x="206" y="322"/>
      <point x="178" y="374"/>
      <point x="178" y="438" type="curve" smooth="yes"/>
      <point x="178" y="503"/>
      <point x="223" y="589"/>
      <point x="294" y="589" type="curve" smooth="yes"/>
      <point x="345" y="589"/>
      <point x="392" y="554"/>
      <point x="456" y="479" type="curve"/>
      <point x="372" y="475" type="line"/>
      <point x="561" y="545"/>
      <point x="726" y="719"/>
      <point x="726" y="947" type="curve" smooth="yes"/>
      <point x="726" y="1076"/>
      <point x="615" y="1193"/>
      <point x="476" y="1193" type="curve" smooth="yes"/>
      <point x="384" y="1193"/>
      <point x="326" y="1135"/>
      <point x="326" y="1056" type="curve" smooth="yes"/>
      <point x="326" y="954"/>
      <point x="451" y="842"/>
      <point x="763" y="835" type="curve"/>
      <point x="724" y="731" type="line"/>
      <point x="348" y="747"/>
      <point x="192" y="906"/>
      <point x="192" y="1079" type="curve" smooth="yes"/>
      <point x="192" y="1204"/>
      <point x="286" y="1309"/>
      <point x="459" y="1309" type="curve" smooth="yes"/>
      <point x="691" y="1309"/>
      <point x="849" y="1156"/>
      <point x="849" y="925" type="curve" smooth="yes"/>
      <point x="849" y="578"/>
      <point x="468" y="322"/>
    </contour>
    <contour>
      <point x="1118" y="1197" type="line"/>
      <point x="1269" y="1197" type="line"/>
      <point x="1269" y="0" type="line"/>
      <point x="1118" y="0" type="line"/>
    </contour>
    <contour>
      <point x="1516" y="1166" type="line"/>
      <point x="936" y="1166" type="line"/>
      <point x="936" y="1278" type="line"/>
      <point x="1516" y="1278" type="line"/>
    </contour>
  </outline>
</glyph>
<glyph name="ssadeva" format="1">
  <advance width="1157"/>
  <unicode hex="0937"/>
  <outline>
    <contour>
      <point x="826" y="577" type="line"/>
      <point x="747" y="520" type="line"/>
      <point x="230" y="1151" type="line"/>
      <point x="308" y="1208" type="line"/>
    </contour>
    <component base="padeva"/>
  </outline>
</glyph>
<glyph name="sadeva" format="1">
  <advance width="1458"/>
  <unicode hex="0938"/>
  <outline>
    <contour>
      <point x="726" y="63" type="line"/>
      <point x="620" y="-12" type="line"/>
      <point x="136" y="652" type="line"/>
      <point x="92" y="711"/>
      <point x="68" y="752"/>
      <point x="68" y="786" type="curve" smooth="yes"/>
      <point x="68" y="819"/>
      <point x="96" y="843"/>
      <point x="129" y="843" type="curve" smooth="yes"/>
      <point x="167" y="843"/>
      <point x="203" y="795"/>
      <point x="246" y="735" type="curve" smooth="yes"/>
      <point x="344" y="598" type="line"/>
      <point x="348" y="583" type="line"/>
    </contour>
    <contour>
      <point x="243" y="613" type="line"/>
      <point x="419" y="654"/>
      <point x="498" y="762"/>
      <point x="498" y="936" type="curve" smooth="yes"/>
      <point x="498" y="1203" type="line"/>
      <point x="648" y="1203" type="line"/>
      <point x="648" y="913" type="line"/>
      <point x="648" y="736"/>
      <point x="571" y="565"/>
      <point x="328" y="499" type="curve"/>
    </contour>
    <contour>
      <point x="-35" y="1166" type="line"/>
      <point x="-35" y="1278" type="line"/>
      <point x="1471" y="1278" type="line"/>
      <point x="1471" y="1166" type="line"/>
    </contour>
    <contour>
      <point x="488" y="603" type="curve"/>
      <point x="538" y="714" type="line"/>
      <point x="650" y="665"/>
      <point x="752" y="649"/>
      <point x="835" y="649" type="curve" smooth="yes"/>
      <point x="928" y="649"/>
      <point x="1028" y="665"/>
      <point x="1096" y="691" type="curve"/>
      <point x="1096" y="557" type="line"/>
      <point x="1047" y="539"/>
      <point x="955" y="521"/>
      <point x="858" y="521" type="curve" smooth="yes"/>
      <point x="755" y="521"/>
      <point x="630" y="541"/>
    </contour>
    <contour>
      <point x="1073" y="1197" type="line"/>
      <point x="1224" y="1197" type="line"/>
      <point x="1224" y="0" type="line"/>
      <point x="1073" y="0" type="line"/>
    </contour>
  </outline>
</glyph>
<glyph name="hadeva" format="1">
  <advance width="1106"/>
  <unicode hex="0939"/>
  <outline>
    <contour>
      <point x="601" y="619" type="curve" smooth="yes"/>
      <point x="839" y="619"/>
      <point x="969" y="486"/>
      <point x="969" y="334" type="curve" smooth="yes"/>
      <point x="969" y="249"/>
      <point x="941" y="178"/>
      <point x="899" y="110" type="curve"/>
      <point x="776" y="144" type="line"/>
      <point x="814" y="200"/>
      <point x="836" y="258"/>
      <point x="836" y="335" type="curve" smooth="yes"/>
      <point x="836" y="414"/>
      <point x="761" y="500"/>
      <point x="611" y="500" type="curve" smooth="yes"/>
      <point x="441" y="500"/>
      <point x="331" y="400"/>
      <point x="331" y="257" type="curve" smooth="yes"/>
      <point x="331" y="85"/>
      <point x="487" y="-56"/>
      <point x="886" y="-105" type="curve"/>
      <point x="858" y="-211" type="line"/>
      <point x="409" y="-164"/>
      <point x="191" y="21"/>
      <point x="191" y="272" type="curve" smooth="yes"/>
      <point x="191" y="467"/>
      <point x="338" y="619"/>
    </contour>
    <contour>
      <point x="1143" y="1166" type="line"/>
      <point x="-19" y="1166" type="line"/>
      <point x="-19" y="1278" type="line"/>
      <point x="1143" y="1278" type="line"/>
    </contour>
    <contour>
      <point x="760" y="1176" type="line"/>
      <point x="910" y="1176" type="line"/>
      <point x="910" y="845" type="line"/>
      <point x="448" y="845" type="line"/>
      <point x="305" y="845"/>
      <point x="256" y="787"/>
      <point x="256" y="711" type="curve" smooth="yes"/>
      <point x="256" y="643"/>
      <point x="299" y="592"/>
      <point x="419" y="536" type="curve"/>
      <point x="324" y="459" type="line"/>
      <point x="194" y="527"/>
      <point x="112" y="621"/>
      <point x="112" y="744" type="curve" smooth="yes"/>
      <point x="112" y="869"/>
      <point x="206" y="957"/>
      <point x="393" y="957" type="curve" smooth="yes"/>
      <point x="799" y="957" type="line"/>
      <point x="760" y="904" type="line"/>
    </contour>
  </outline>
</glyph>
<glyph name="avagrahadeva" format="1">
  <advance width="1077"/>
  <unicode hex="093D"/>
  <outline>
    <contour>
      <point x="940" y="409" type="curve" smooth="yes"/>
      <point x="940" y="205"/>
      <point x="774" y="91"/>
      <point x="579" y="91" type="curve" smooth="yes"/>
      <point x="409" y="91"/>
      <point x="284" y="143"/>
      <point x="116" y="262" type="curve"/>
      <point x="155" y="381" type="line"/>
      <point x="320" y="255"/>
      <point x="431" y="223"/>
      <point x="542" y="223" type="curve" smooth="yes"/>
      <point x="700" y="223"/>
      <point x="795" y="305"/>
      <point x="795" y="429" type="curve" smooth="yes"/>
      <point x="795" y="527"/>
      <point x="703" y="624"/>
      <point x="513" y="720" type="curve" smooth="yes"/>
      <point x="321" y="817"/>
      <point x="224" y="908"/>
      <point x="224" y="1049" type="curve" smooth="yes"/>
      <point x="224" y="1170"/>
      <point x="305" y="1278"/>
      <point x="542" y="1278" type="curve" smooth="yes"/>
      <point x="888" y="1278" type="line"/>
      <point x="888" y="1166" type="line"/>
      <point x="587" y="1166" type="line"/>
      <point x="428" y="1166"/>
      <point x="382" y="1103"/>
      <point x="382" y="1030" type="curve" smooth="yes"/>
      <point x="382" y="955"/>
      <point x="440" y="893"/>
      <point x="631" y="796" type="curve" smooth="yes"/>
      <point x="840" y="688"/>
      <point x="940" y="569"/>
    </contour>
  </outline>
</glyph>
<glyph name="aavowelsigndeva" format="1">
  <advance width="593"/>
  <unicode hex="093E"/>
  <outline>
    <contour>
      <point x="207" y="1197" type="line"/>
      <point x="357" y="1197" type="line"/>
      <point x="357" y="0" type="line"/>
      <point x="207" y="0" type="line"/>
    </contour>
    <contour>
      <point x="605" y="1166" type="line"/>
      <point x="-14" y="1166" type="line"/>
      <point x="-14" y="1278" type="line"/>
      <point x="605" y="1278" type="line"/>
    </contour>
  </outline>
</glyph>
<glyph name="iivowelsigndeva" format="1">
  <advance width="593"/>
  <unicode hex="0940"/>
  <outline>
    <contour>
      <point x="208" y="1239" type="line"/>
      <point x="116" y="1484"/>
      <point x="-62" y="1662"/>
      <point x="-226" y="1662" type="curve" smooth="yes"/>
      <point x="-330" y="1662"/>
      <point x="-383" y="1603"/>
      <point x="-383" y="1516" type="curve" smooth="yes"/>
      <point x="-383" y="1430"/>
      <point x="-335" y="1363"/>
      <point x="-247" y="1258" type="curve"/>
      <point x="-395" y="1258" type="line"/>
      <point x="-463" y="1331"/>
      <point x="-524" y="1439"/>
      <point x="-524" y="1559" type="curve" smooth="yes"/>
      <point x="-524" y="1676"/>
      <point x="-443" y="1793"/>
      <point x="-251" y="1793" type="curve" smooth="yes"/>
      <point x="-1" y="1793"/>
      <point x="220" y="1591"/>
      <point x="354" y="1239" type="curve"/>
    </contour>
    <component base="aavowelsigndeva"/>
  </outline>
</glyph>
<glyph name="uuvowelsigndeva" format="1">
  <advance width="0"/>
  <unicode hex="0942"/>
  <outline>
    <contour>
      <point x="-79" y="-482" type="line"/>
      <point x="-182" y="-516"/>
      <point x="-216" y="-524"/>
      <point x="-301" y="-524" type="curve" smooth="yes"/>
      <point x="-469" y="-524"/>
      <point x="-615" y="-408"/>
      <point x="-615" y="-248" type="curve" smooth="yes"/>
      <point x="-615" y="-103"/>
      <point x="-492" y="15"/>
      <point x="-317" y="15" type="curve" smooth="yes"/>
      <point x="-99" y="15"/>
      <point x="59" y="-78"/>
      <point x="285" y="-372" type="curve"/>
      <point x="215" y="-460" type="line"/>
      <point x="2" y="-195"/>
      <point x="-130" y="-113"/>
      <point x="-279" y="-113" type="curve" smooth="yes"/>
      <point x="-416" y="-113"/>
      <point x="-480" y="-182"/>
      <point x="-480" y="-271" type="curve" smooth="yes"/>
      <point x="-480" y="-346"/>
      <point x="-414" y="-412"/>
      <point x="-300" y="-412" type="curve" smooth="yes"/>
      <point x="-235" y="-412"/>
      <point x="-192" y="-402"/>
      <point x="-119" y="-369" type="curve"/>
    </contour>
    <contour>
      <point x="49" y="8" type="move" name="x24"/>
    </contour>
    <contour>
      <point x="-424" y="8" type="move" name="_mark0"/>
    </contour>
  </outline>
</glyph>
<glyph name="rvocalicvowelsigndeva" format="1">
  <advance width="0"/>
  <unicode hex="0943"/>
  <outline>
    <contour>
      <point x="-162" y="-396" type="line"/>
      <point x="-239" y="-426"/>
      <point x="-289" y="-436"/>
      <point x="-362" y="-436" type="curve" smooth="yes"/>
      <point x="-525" y="-436"/>
      <point x="-640" y="-345"/>
      <point x="-640" y="-206" type="curve" smooth="yes"/>
      <point x="-640" y="-76"/>
      <point x="-523" y="21"/>
      <point x="-348" y="21" type="curve" smooth="yes"/>
      <point x="-307" y="21"/>
      <point x="-263" y="18"/>
      <point x="-235" y="14" type="curve"/>
      <point x="-235" y="-75" type="line"/>
      <point x="-260" y="-75"/>
      <point x="-300" y="-75"/>
      <point x="-327" y="-75" type="curve" smooth="yes"/>
      <point x="-455" y="-75"/>
      <point x="-518" y="-149"/>
      <point x="-518" y="-217" type="curve" smooth="yes"/>
      <point x="-518" y="-285"/>
      <point x="-463" y="-334"/>
      <point x="-362" y="-334" type="curve" smooth="yes"/>
      <point x="-305" y="-334"/>
      <point x="-258" y="-325"/>
      <point x="-183" y="-293" type="curve"/>
    </contour>
    <contour>
      <point x="-365" y="-22" type="move" name="_mark0"/>
    </contour>
  </outline>
</glyph>
<glyph name="rrvocalicvowelsigndeva" format="1">
  <advance width="0"/>
  <unicode hex="0944"/>
  <outline>
    <contour>
      <point x="-90" y="-625" type="line"/>
      <point x="-140" y="-648"/>
      <point x="-214" y="-667"/>
      <point x="-279" y="-667" type="curve" smooth="yes"/>
      <point x="-439" y="-667"/>
      <point x="-513" y="-581"/>
      <point x="-513" y="-486" type="curve" smooth="yes"/>
      <point x="-513" y="-379"/>
      <point x="-422" y="-304"/>
      <point x="-272" y="-302" type="curve"/>
      <point x="-258" y="-372" type="line"/>
      <point x="-350" y="-377"/>
      <point x="-396" y="-430"/>
      <point x="-396" y="-486" type="curve" smooth="yes"/>
      <point x="-396" y="-536"/>
      <point x="-356" y="-575"/>
      <point x="-270" y="-575" type="curve" smooth="yes"/>
      <point x="-221" y="-575"/>
      <point x="-169" y="-562"/>
      <point x="-110" y="-534" type="curve"/>
    </contour>
    <contour>
      <point x="-164" y="-359" type="line"/>
      <point x="-237" y="-380"/>
      <point x="-304" y="-392"/>
      <point x="-361" y="-392" type="curve" smooth="yes"/>
      <point x="-531" y="-392"/>
      <point x="-627" y="-297"/>
      <point x="-627" y="-179" type="curve" smooth="yes"/>
      <point x="-627" y="-69"/>
      <point x="-521" y="21"/>
      <point x="-344" y="21" type="curve" smooth="yes"/>
      <point x="-303" y="21"/>
      <point x="-263" y="18"/>
      <point x="-235" y="15" type="curve"/>
      <point x="-235" y="-71" type="line"/>
      <point x="-260" y="-71"/>
      <point x="-300" y="-71"/>
      <point x="-327" y="-71" type="curve" smooth="yes"/>
      <point x="-453" y="-71"/>
      <point x="-503" y="-132"/>
      <point x="-503" y="-188" type="curve" smooth="yes"/>
      <point x="-503" y="-246"/>
      <point x="-456" y="-295"/>
      <point x="-359" y="-295" type="curve" smooth="yes"/>
      <point x="-309" y="-295"/>
      <point x="-263" y="-286"/>
      <point x="-185" y="-262" type="curve"/>
    </contour>
    <contour>
      <point x="-365" y="-22" type="move" name="_mark0"/>
    </contour>
  </outline>
</glyph>
<glyph name="ecandravowelsigndeva" format="1">
  <advance width="0"/>
  <unicode hex="0945"/>
  <outline>
    <contour>
      <point x="68" y="1589" type="line"/>
      <point x="-28" y="1476"/>
      <point x="-157" y="1416"/>
      <point x="-301" y="1416" type="curve" smooth="yes"/>
      <point x="-444" y="1416"/>
      <point x="-576" y="1469"/>
      <point x="-697" y="1579" type="curve"/>
      <point x="-659" y="1696" type="line"/>
      <point x="-553" y="1596"/>
      <point x="-424" y="1545"/>
      <point x="-309" y="1546" type="curve" smooth="yes"/>
      <point x="-191" y="1547"/>
      <point x="-79" y="1592"/>
      <point x="19" y="1696" type="curve"/>
    </contour>
    <contour>
      <point x="11" y="-22" type="move" name="x14"/>
    </contour>
    <contour>
      <point x="-365" y="1252" type="move" name="_mark0"/>
    </contour>
  </outline>
</glyph>
<glyph name="viramadeva" format="1">
  <advance width="-1"/>
  <unicode hex="094D"/>
  <outline>
    <contour>
      <point x="-390" y="-87" type="line"/>
      <point x="88" y="-330" type="line"/>
      <point x="37" y="-433" type="line"/>
      <point x="-442" y="-196" type="line"/>
    </contour>
    <contour>
      <point x="49" y="8" type="move" name="x12"/>
    </contour>
    <contour>
      <point x="-424" y="8" type="move" name="_mark0"/>
    </contour>
  </outline>
</glyph>
<glyph name="omdeva" format="1">
  <advance width="1950"/>
  <unicode hex="0950"/>
  <outline>
    <contour>
      <point x="360" y="686" type="line"/>
      <point x="330" y="804" type="line"/>
      <point x="341" y="805" type="line"/>
      <point x="648" y="809"/>
      <point x="727" y="897"/>
      <point x="727" y="1013" type="curve" smooth="yes"/>
      <point x="727" y="1100"/>
      <point x="663" y="1167"/>
      <point x="534" y="1167" type="curve" smooth="yes"/>
      <point x="433" y="1167"/>
      <point x="331" y="1132"/>
      <point x="246" y="1080" type="curve"/>
      <point x="203" y="1195" type="line"/>
      <point x="291" y="1243"/>
      <point x="399" y="1285"/>
      <point x="536" y="1285" type="curve" smooth="yes"/>
      <point x="742" y="1285"/>
      <point x="859" y="1175"/>
      <point x="859" y="991" type="curve" smooth="yes"/>
      <point x="859" y="821"/>
      <point x="717" y="693"/>
      <point x="372" y="686" type="curve" smooth="yes"/>
    </contour>
    <contour>
      <point x="652" y="809" type="line"/>
      <point x="814" y="717"/>
      <point x="911" y="619"/>
      <point x="911" y="451" type="curve" smooth="yes"/>
      <point x="911" y="290"/>
      <point x="784" y="148"/>
      <point x="576" y="148" type="curve" smooth="yes"/>
      <point x="426" y="148"/>
      <point x="302" y="200"/>
      <point x="138" y="328" type="curve"/>
      <point x="176" y="444" type="line"/>
      <point x="313" y="325"/>
      <point x="428" y="278"/>
      <point x="536" y="278" type="curve" smooth="yes"/>
      <point x="687" y="278"/>
      <point x="774" y="361"/>
      <point x="774" y="479" type="curve" smooth="yes"/>
      <point x="774" y="574"/>
      <point x="704" y="670"/>
      <point x="565" y="730" type="curve"/>
    </contour>
    <contour>
      <point x="1433" y="986" type="curve" smooth="yes"/>
      <point x="1353" y="1018"/>
      <point x="1317" y="997"/>
      <point x="1312" y="846" type="curve" smooth="yes"/>
      <point x="1325" y="727"/>
      <point x="1289" y="569"/>
      <point x="1169" y="519" type="curve" smooth="yes"/>
      <point x="1141" y="471"/>
      <point x="1070" y="434"/>
      <point x="998" y="439" type="curve"/>
      <point x="956" y="439"/>
      <point x="931" y="513"/>
      <point x="897" y="541" type="curve"/>
      <point x="902" y="536"/>
      <point x="962" y="573"/>
      <point x="987" y="573" type="curve" smooth="yes"/>
      <point x="1082" y="558"/>
      <point x="1165" y="604"/>
      <point x="1243" y="735" type="curve" smooth="yes"/>
      <point x="1343" y="915"/>
      <point x="1450" y="1014"/>
      <point x="1562" y="1035" type="curve" smooth="yes"/>
      <point x="1707" y="1052"/>
      <point x="1805" y="949"/>
      <point x="1793" y="771" type="curve" smooth="yes"/>
      <point x="1780" y="600"/>
      <point x="1647" y="489"/>
      <point x="1502" y="466" type="curve" smooth="yes"/>
      <point x="1380" y="410"/>
      <point x="1249" y="436"/>
      <point x="1095" y="543" type="curve"/>
      <point x="1072" y="543"/>
      <point x="1092" y="594"/>
      <point x="1076" y="598" type="curve"/>
      <point x="1188" y="491"/>
      <point x="1275" y="506"/>
      <point x="1347" y="506" type="curve" smooth="yes"/>
      <point x="1482" y="501"/>
      <point x="1576" y="579"/>
      <point x="1586" y="724" type="curve" smooth="yes"/>
      <point x="1600" y="845"/>
      <point x="1523" y="954"/>
    </contour>
    <component base="candrabindudeva" xOffset="1450" yOffset="-149"/>
  </outline>
</glyph>
<glyph name="anudattadeva" format="1">
  <advance width="22"/>
  <unicode hex="0952"/>
  <outline>
    <contour>
      <point x="-867" y="-318" type="line"/>
      <point x="-867" y="-204" type="line"/>
      <point x="-176" y="-204" type="line"/>
      <point x="-176" y="-318" type="line"/>
    </contour>
  </outline>
</glyph>
<glyph name="dddhadeva" format="1">
  <advance width="1143"/>
  <unicode hex="095C"/>
  <outline>
    <component base="ddadeva"/>
    <component base="nuktadeva" xOffset="1398" yOffset="8"/>
    <contour>
      <point x="990" y="1274" type="move" name="mark0"/>
    </contour>
  </outline>
</glyph>
<glyph name="rhadeva" format="1">
  <advance width="1106"/>
  <unicode hex="095D"/>
  <outline>
    <component base="nuktadeva" xOffset="1408" yOffset="14"/>
    <component base="ddhadeva"/>
    <contour>
      <point x="685" y="1274" type="move" name="mark0"/>
    </contour>
  </outline>
</glyph>
<glyph name="rrvocalicdeva" format="1">
  <advance width="1530"/>
  <unicode hex="0960"/>
  <outline>
    <contour>
      <point x="857" y="667" type="line"/>
      <point x="893" y="651"/>
      <point x="925" y="644"/>
      <point x="983" y="644" type="curve" smooth="yes"/>
      <point x="1062" y="644"/>
      <point x="1163" y="662"/>
      <point x="1243" y="736" type="curve"/>
      <point x="1200" y="670" type="line"/>
      <point x="1164" y="713"/>
      <point x="1150" y="737"/>
      <point x="1150" y="768" type="curve" smooth="yes"/>
      <point x="1150" y="804"/>
      <point x="1181" y="838"/>
      <point x="1244" y="838" type="curve" smooth="yes"/>
      <point x="1323" y="838"/>
      <point x="1398" y="804"/>
      <point x="1398" y="745" type="curve" smooth="yes"/>
      <point x="1398" y="663"/>
      <point x="1226" y="530"/>
      <point x="991" y="531" type="curve" smooth="yes"/>
      <point x="927" y="531"/>
      <point x="872" y="533"/>
      <point x="806" y="559" type="curve"/>
    </contour>
    <contour>
      <point x="853" y="484" type="line"/>
      <point x="287" y="183" type="line"/>
      <point x="212" y="290" type="line"/>
      <point x="787" y="587" type="line"/>
    </contour>
    <contour>
      <point x="-30" y="1166" type="line"/>
      <point x="-30" y="1278" type="line"/>
      <point x="1552" y="1278" type="line"/>
      <point x="1552" y="1166" type="line"/>
    </contour>
    <contour>
      <point x="122" y="801" type="line"/>
      <point x="207" y="833"/>
      <point x="294" y="855"/>
      <point x="382" y="855" type="curve" smooth="yes"/>
      <point x="474" y="855"/>
      <point x="598" y="804"/>
      <point x="811" y="666" type="curve"/>
      <point x="811" y="522" type="line"/>
      <point x="585" y="674"/>
      <point x="476" y="729"/>
      <point x="402" y="729" type="curve" smooth="yes"/>
      <point x="328" y="729"/>
      <point x="237" y="704"/>
      <point x="163" y="675" type="curve"/>
    </contour>
    <contour>
      <point x="760" y="1197" type="line"/>
      <point x="911" y="1197" type="line"/>
      <point x="911" y="0" type="line"/>
      <point x="760" y="0" type="line"/>
    </contour>
    <contour>
      <point x="1280" y="178" type="curve" smooth="yes"/>
      <point x="1280" y="108"/>
      <point x="1346" y="59"/>
      <point x="1441" y="59" type="curve" smooth="yes"/>
      <point x="1498" y="59"/>
      <point x="1535" y="71"/>
      <point x="1605" y="102" type="curve"/>
      <point x="1627" y="-2" type="line"/>
      <point x="1579" y="-20"/>
      <point x="1518" y="-42"/>
      <point x="1440" y="-42" type="curve" smooth="yes"/>
      <point x="1264" y="-42"/>
      <point x="1158" y="56"/>
      <point x="1158" y="185" type="curve" smooth="yes"/>
      <point x="1158" y="306"/>
      <point x="1226" y="394"/>
      <point x="1421" y="462" type="curve"/>
      <point x="1368" y="416" type="line"/>
      <point x="1223" y="625" type="line"/>
      <point x="1321" y="685" type="line"/>
      <point x="1503" y="422" type="line"/>
      <point x="1492" y="384" type="line"/>
      <point x="1334" y="330"/>
      <point x="1280" y="268"/>
    </contour>
    <contour>
      <point x="831" y="1252" type="move" name="mark0"/>
    </contour>
  </outline>
</glyph>
<glyph name="llvocalicdeva" format="1">
  <advance width="1393"/>
  <unicode hex="0961"/>
  <outline>
    <contour>
      <point x="831" y="650" type="curve"/>
      <point x="746" y="563" type="line"/>
      <point x="653" y="694"/>
      <point x="564" y="760"/>
      <point x="436" y="760" type="curve" smooth="yes"/>
      <point x="316" y="760"/>
      <point x="234" y="667"/>
      <point x="234" y="554" type="curve" smooth="yes"/>
      <point x="234" y="433"/>
      <point x="290" y="323"/>
      <point x="482" y="162" type="curve"/>
      <point x="377" y="99" type="line"/>
      <point x="175" y="269"/>
      <point x="92" y="431"/>
      <point x="92" y="583" type="curve" smooth="yes"/>
      <point x="92" y="752"/>
      <point x="216" y="891"/>
      <point x="421" y="891" type="curve" smooth="yes"/>
      <point x="600" y="891"/>
      <point x="719" y="786"/>
    </contour>
    <contour>
      <point x="1404" y="1166" type="line"/>
      <point x="-37" y="1166" type="line"/>
      <point x="-37" y="1278" type="line"/>
      <point x="1404" y="1278" type="line"/>
    </contour>
    <contour>
      <point x="981" y="1197" type="line"/>
      <point x="1131" y="1197" type="line"/>
      <point x="1131" y="777" type="line"/>
      <point x="981" y="777" type="line"/>
    </contour>
    <contour>
      <point x="1189" y="318" type="curve"/>
      <point x="1102" y="253" type="line"/>
      <point x="1182" y="345"/>
      <point x="1223" y="434"/>
      <point x="1223" y="537" type="curve" smooth="yes"/>
      <point x="1223" y="639"/>
      <point x="1154" y="719"/>
      <point x="1039" y="719" type="curve" smooth="yes"/>
      <point x="900" y="719"/>
      <point x="791" y="589"/>
      <point x="741" y="384" type="curve"/>
      <point x="615" y="432" type="line"/>
      <point x="668" y="660"/>
      <point x="801" y="848"/>
      <point x="1031" y="849" type="curve" smooth="yes"/>
      <point x="1227" y="849"/>
      <point x="1354" y="703"/>
      <point x="1354" y="522" type="curve" smooth="yes"/>
      <point x="1354" y="417"/>
      <point x="1306" y="311"/>
      <point x="1238" y="224" type="curve"/>
      <point x="1234" y="224"/>
      <point x="1228" y="224"/>
      <point x="1223" y="224" type="curve" smooth="yes"/>
      <point x="1080" y="224"/>
      <point x="1034" y="155"/>
      <point x="1034" y="91" type="curve" smooth="yes"/>
      <point x="1034" y="33"/>
      <point x="1081" y="-17"/>
      <point x="1178" y="-17" type="curve" smooth="yes"/>
      <point x="1227" y="-17"/>
      <point x="1274" y="-7"/>
      <point x="1352" y="17" type="curve"/>
      <point x="1373" y="-80" type="line"/>
      <point x="1300" y="-101"/>
      <point x="1233" y="-113"/>
      <point x="1176" y="-113" type="curve" smooth="yes"/>
      <point x="1006" y="-113"/>
      <point x="910" y="-18"/>
      <point x="910" y="100" type="curve" smooth="yes"/>
      <point x="910" y="218"/>
      <point x="1008" y="312"/>
    </contour>
    <contour>
      <point x="1447" y="-347" type="line"/>
      <point x="1396" y="-369"/>
      <point x="1323" y="-388"/>
      <point x="1258" y="-388" type="curve" smooth="yes"/>
      <point x="1098" y="-388"/>
      <point x="1024" y="-302"/>
      <point x="1024" y="-207" type="curve" smooth="yes"/>
      <point x="1024" y="-100"/>
      <point x="1114" y="-25"/>
      <point x="1265" y="-23" type="curve"/>
      <point x="1279" y="-93" type="line"/>
      <point x="1187" y="-98"/>
      <point x="1141" y="-151"/>
      <point x="1141" y="-207" type="curve" smooth="yes"/>
      <point x="1141" y="-257"/>
      <point x="1181" y="-296"/>
      <point x="1267" y="-296" type="curve" smooth="yes"/>
      <point x="1316" y="-296"/>
      <point x="1367" y="-283"/>
      <point x="1427" y="-255" type="curve"/>
    </contour>
    <contour>
      <point x="1015" y="1252" type="move" name="mark0"/>
    </contour>
  </outline>
</glyph>
<glyph name="llvocalicvowelsigndeva" format="1">
  <advance width="0"/>
  <unicode hex="0963"/>
  <outline>
    <contour>
      <point x="-362" y="-252" type="curve"/>
      <point x="-414" y="-303" type="line"/>
      <point x="-465" y="-233"/>
      <point x="-512" y="-199"/>
      <point x="-582" y="-199" type="curve" smooth="yes"/>
      <point x="-646" y="-199"/>
      <point x="-686" y="-248"/>
      <point x="-686" y="-303" type="curve" smooth="yes"/>
      <point x="-686" y="-368"/>
      <point x="-656" y="-423"/>
      <point x="-552" y="-508" type="curve"/>
      <point x="-615" y="-549" type="line"/>
      <point x="-726" y="-459"/>
      <point x="-771" y="-372"/>
      <point x="-771" y="-291" type="curve" smooth="yes"/>
      <point x="-771" y="-197"/>
      <point x="-709" y="-122"/>
      <point x="-590" y="-122" type="curve" smooth="yes"/>
      <point x="-492" y="-122"/>
      <point x="-424" y="-179"/>
    </contour>
    <contour>
      <point x="-26" y="-784" type="line"/>
      <point x="-55" y="-799"/>
      <point x="-95" y="-808"/>
      <point x="-131" y="-808" type="curve" smooth="yes"/>
      <point x="-218" y="-808"/>
      <point x="-263" y="-760"/>
      <point x="-263" y="-708" type="curve" smooth="yes"/>
      <point x="-263" y="-651"/>
      <point x="-209" y="-607"/>
      <point x="-126" y="-606" type="curve"/>
      <point x="-118" y="-649" type="line"/>
      <point x="-169" y="-651"/>
      <point x="-189" y="-679"/>
      <point x="-189" y="-707" type="curve" smooth="yes"/>
      <point x="-189" y="-735"/>
      <point x="-169" y="-751"/>
      <point x="-126" y="-751" type="curve" smooth="yes"/>
      <point x="-99" y="-751"/>
      <point x="-70" y="-744"/>
      <point x="-38" y="-729" type="curve"/>
    </contour>
    <contour>
      <point x="-168" y="-426" type="curve"/>
      <point x="-223" y="-462" type="line"/>
      <point x="-179" y="-413"/>
      <point x="-156" y="-365"/>
      <point x="-156" y="-311" type="curve" smooth="yes"/>
      <point x="-156" y="-264"/>
      <point x="-189" y="-222"/>
      <point x="-248" y="-222" type="curve" smooth="yes"/>
      <point x="-324" y="-222"/>
      <point x="-384" y="-288"/>
      <point x="-411" y="-397" type="curve"/>
      <point x="-486" y="-369" type="line"/>
      <point x="-457" y="-247"/>
      <point x="-382" y="-145"/>
      <point x="-256" y="-145" type="curve" smooth="yes"/>
      <point x="-145" y="-144"/>
      <point x="-77" y="-224"/>
      <point x="-77" y="-320" type="curve" smooth="yes"/>
      <point x="-77" y="-376"/>
      <point x="-102" y="-436"/>
      <point x="-140" y="-482" type="curve"/>
      <point x="-143" y="-482"/>
      <point x="-147" y="-482"/>
      <point x="-149" y="-482" type="curve" smooth="yes"/>
      <point x="-223" y="-482"/>
      <point x="-249" y="-517"/>
      <point x="-249" y="-550" type="curve" smooth="yes"/>
      <point x="-249" y="-579"/>
      <point x="-224" y="-602"/>
      <point x="-174" y="-602" type="curve" smooth="yes"/>
      <point x="-147" y="-602"/>
      <point x="-121" y="-597"/>
      <point x="-79" y="-583" type="curve"/>
      <point x="-67" y="-642" type="line"/>
      <point x="-108" y="-654"/>
      <point x="-144" y="-661"/>
      <point x="-175" y="-661" type="curve" smooth="yes"/>
      <point x="-269" y="-661"/>
      <point x="-326" y="-609"/>
      <point x="-326" y="-544" type="curve" smooth="yes"/>
      <point x="-326" y="-482"/>
      <point x="-274" y="-429"/>
    </contour>
    <contour>
      <point x="-365" y="-22" type="move" name="_mark0"/>
    </contour>
  </outline>
</glyph>
<glyph name="zerodeva" format="1">
  <advance width="1189"/>
  <unicode hex="0966"/>
  <outline>
    <contour>
      <point x="570" y="1074" type="curve" smooth="yes"/>
      <point x="840" y="1074"/>
      <point x="1020" y="886"/>
      <point x="1020" y="645" type="curve" smooth="yes"/>
      <point x="1020" y="446"/>
      <point x="863" y="257"/>
      <point x="612" y="257" type="curve" smooth="yes"/>
      <point x="350" y="257"/>
      <point x="160" y="444"/>
      <point x="160" y="690" type="curve" smooth="yes"/>
      <point x="160" y="887"/>
      <point x="324" y="1074"/>
    </contour>
    <contour>
      <point x="587" y="378" type="curve" smooth="yes"/>
      <point x="777" y="378"/>
      <point x="887" y="514"/>
      <point x="887" y="676" type="curve" smooth="yes"/>
      <point x="887" y="826"/>
      <point x="757" y="955"/>
      <point x="599" y="955" type="curve" smooth="yes"/>
      <point x="414" y="955"/>
      <point x="300" y="821"/>
      <point x="300" y="659" type="curve" smooth="yes"/>
      <point x="300" y="500"/>
      <point x="440" y="378"/>
    </contour>
  </outline>
</glyph>
<glyph name="onedeva" format="1">
  <advance width="995"/>
  <unicode hex="0967"/>
  <outline>
    <contour>
      <point x="302" y="375" type="line"/>
      <point x="543" y="645" type="line"/>
      <point x="663" y="782"/>
      <point x="708" y="856"/>
      <point x="708" y="970" type="curve" smooth="yes"/>
      <point x="708" y="1077"/>
      <point x="624" y="1171"/>
      <point x="487" y="1171" type="curve" smooth="yes"/>
      <point x="357" y="1171"/>
      <point x="285" y="1076"/>
      <point x="285" y="973" type="curve" smooth="yes"/>
      <point x="285" y="855"/>
      <point x="376" y="752"/>
      <point x="620" y="703" type="curve"/>
      <point x="540" y="609" type="line"/>
      <point x="275" y="674"/>
      <point x="145" y="814"/>
      <point x="145" y="991" type="curve" smooth="yes"/>
      <point x="145" y="1138"/>
      <point x="265" y="1289"/>
      <point x="484" y="1289" type="curve" smooth="yes"/>
      <point x="713" y="1289"/>
      <point x="843" y="1124"/>
      <point x="843" y="964" type="curve" smooth="yes"/>
      <point x="843" y="834"/>
      <point x="783" y="735"/>
      <point x="697" y="629" type="curve" smooth="yes"/>
      <point x="445" y="330" type="line"/>
      <point x="436" y="416" type="line"/>
      <point x="725" y="212" type="line"/>
      <point x="802" y="157"/>
      <point x="835" y="107"/>
      <point x="836" y="50" type="curve" smooth="yes"/>
      <point x="837" y="-1"/>
      <point x="814" y="-39"/>
      <point x="787" y="-87" type="curve"/>
      <point x="660" y="-50" type="line"/>
      <point x="678" y="-17"/>
      <point x="693" y="4"/>
      <point x="692" y="42" type="curve" smooth="yes"/>
      <point x="691" y="81"/>
      <point x="667" y="107"/>
      <point x="617" y="141" type="curve" smooth="yes"/>
      <point x="302" y="358" type="line"/>
    </contour>
  </outline>
</glyph>
<glyph name="twodeva" format="1">
  <advance width="997"/>
  <unicode hex="0968"/>
  <outline>
    <contour>
      <point x="333" y="490" type="line"/>
      <point x="447" y="540" type="line"/>
      <point x="799" y="42" type="line"/>
      <point x="688" y="-19" type="line"/>
    </contour>
    <contour>
      <point x="272" y="398" type="curve" smooth="yes"/>
      <point x="205" y="398"/>
      <point x="164" y="434"/>
      <point x="164" y="487" type="curve" smooth="yes"/>
      <point x="164" y="557"/>
      <point x="239" y="656"/>
      <point x="317" y="656" type="curve" smooth="yes"/>
      <point x="382" y="656"/>
      <point x="422" y="611"/>
      <point x="459" y="525" type="curve"/>
      <point x="265" y="513" type="line"/>
      <point x="545" y="564"/>
      <point x="719" y="748"/>
      <point x="719" y="921" type="curve" smooth="yes"/>
      <point x="719" y="1076"/>
      <point x="610" y="1165"/>
      <point x="441" y="1165" type="curve" smooth="yes"/>
      <point x="348" y="1165"/>
      <point x="234" y="1135"/>
      <point x="127" y="1081" type="curve"/>
      <point x="80" y="1210" type="line"/>
      <point x="183" y="1256"/>
      <point x="300" y="1291"/>
      <point x="435" y="1291" type="curve" smooth="yes"/>
      <point x="693" y="1290"/>
      <point x="854" y="1147"/>
      <point x="854" y="908" type="curve" smooth="yes"/>
      <point x="854" y="628"/>
      <point x="522" y="398"/>
    </contour>
  </outline>
</glyph>
<glyph name="fourdeva" format="1">
  <advance width="1002"/>
  <unicode hex="096A"/>
  <outline>
    <contour>
      <point x="11" y="1194" type="line"/>
      <point x="103" y="1291" type="line"/>
      <point x="482" y="918" type="line"/>
      <point x="787" y="619"/>
      <point x="863" y="504"/>
      <point x="863" y="354" type="curve" smooth="yes"/>
      <point x="863" y="202"/>
      <point x="748" y="50"/>
      <point x="517" y="50" type="curve" smooth="yes"/>
      <point x="268" y="50"/>
      <point x="136" y="224"/>
      <point x="136" y="373" type="curve" smooth="yes"/>
      <point x="136" y="526"/>
      <point x="201" y="632"/>
      <point x="544" y="951" type="curve" smooth="yes"/>
      <point x="882" y="1288" type="line"/>
      <point x="980" y="1193" type="line"/>
      <point x="657" y="871" type="line"/>
      <point x="346" y="567"/>
      <point x="275" y="479"/>
      <point x="275" y="358" type="curve" smooth="yes"/>
      <point x="275" y="267"/>
      <point x="359" y="170"/>
      <point x="490" y="170" type="curve" smooth="yes"/>
      <point x="650" y="170"/>
      <point x="729" y="273"/>
      <point x="729" y="389" type="curve" smooth="yes"/>
      <point x="729" y="486"/>
      <point x="665" y="568"/>
      <point x="411" y="809" type="curve" smooth="yes"/>
    </contour>
  </outline>
</glyph>
<glyph name="fivedeva" format="1">
  <advance width="1129"/>
  <unicode hex="096B"/>
  <outline>
    <contour>
      <point x="273" y="694" type="curve" smooth="yes"/>
      <point x="273" y="550"/>
      <point x="367" y="422"/>
      <point x="551" y="422" type="curve" smooth="yes"/>
      <point x="653" y="421"/>
      <point x="750" y="466"/>
      <point x="823" y="520" type="curve"/>
      <point x="729" y="440" type="line"/>
      <point x="689" y="490"/>
      <point x="674" y="516"/>
      <point x="674" y="557" type="curve" smooth="yes"/>
      <point x="674" y="604"/>
      <point x="716" y="632"/>
      <point x="799" y="632" type="curve" smooth="yes"/>
      <point x="892" y="632"/>
      <point x="971" y="589"/>
      <point x="971" y="538" type="curve" smooth="yes"/>
      <point x="971" y="441"/>
      <point x="769" y="309"/>
      <point x="566" y="309" type="curve" smooth="yes"/>
      <point x="289" y="309"/>
      <point x="131" y="483"/>
      <point x="131" y="720" type="curve" smooth="yes"/>
      <point x="131" y="917"/>
      <point x="248" y="1124"/>
      <point x="442" y="1281" type="curve"/>
      <point x="559" y="1193" type="line"/>
      <point x="375" y="1050"/>
      <point x="273" y="855"/>
    </contour>
    <contour>
      <point x="708" y="478" type="line"/>
      <point x="827" y="518" type="line"/>
      <point x="1106" y="-21" type="line"/>
      <point x="989" y="-69" type="line"/>
    </contour>
  </outline>
</glyph>
<glyph name="sixdeva" format="1">
  <advance width="907"/>
  <unicode hex="096C"/>
  <outline>
    <contour>
      <point x="730" y="173" type="line"/>
      <point x="842" y="214" type="line"/>
      <point x="1017" y="-124" type="line"/>
      <point x="907" y="-173" type="line"/>
    </contour>
    <contour>
      <point x="346" y="412" type="curve" smooth="yes"/>
      <point x="346" y="299"/>
      <point x="450" y="224"/>
      <point x="617" y="224" type="curve" smooth="yes"/>
      <point x="671" y="224"/>
      <point x="754" y="241"/>
      <point x="827" y="263" type="curve"/>
      <point x="718" y="204" type="line"/>
      <point x="702" y="222"/>
      <point x="680" y="256"/>
      <point x="680" y="295" type="curve" smooth="yes"/>
      <point x="680" y="337"/>
      <point x="712" y="362"/>
      <point x="788" y="362" type="curve" smooth="yes"/>
      <point x="876" y="362"/>
      <point x="956" y="317"/>
      <point x="956" y="262" type="curve" smooth="yes"/>
      <point x="956" y="192"/>
      <point x="807" y="112"/>
      <point x="647" y="112" type="curve" smooth="yes"/>
      <point x="364" y="112"/>
      <point x="214" y="248"/>
      <point x="214" y="443" type="curve" smooth="yes"/>
      <point x="214" y="618"/>
      <point x="348" y="761"/>
      <point x="695" y="803" type="curve"/>
      <point x="730" y="688" type="line"/>
      <point x="432" y="649"/>
      <point x="346" y="552"/>
    </contour>
    <contour>
      <point x="427" y="643" type="line"/>
      <point x="216" y="701"/>
      <point x="118" y="824"/>
      <point x="118" y="969" type="curve" smooth="yes"/>
      <point x="118" y="1123"/>
      <point x="235" y="1280"/>
      <point x="626" y="1279" type="curve"/>
      <point x="657" y="1166" type="line"/>
      <point x="342" y="1166"/>
      <point x="257" y="1053"/>
      <point x="257" y="955" type="curve" smooth="yes"/>
      <point x="257" y="845"/>
      <point x="323" y="773"/>
      <point x="516" y="723" type="curve"/>
    </contour>
  </outline>
</glyph>
<glyph name="sevendeva" format="1">
  <advance width="1307"/>
  <unicode hex="096D"/>
  <outline>
    <contour>
      <point x="1091" y="396" type="curve"/>
      <point x="1090" y="395"/>
      <point x="1034" y="314"/>
      <point x="1034" y="314" type="curve"/>
      <point x="679" y="388"/>
      <point x="554" y="548"/>
      <point x="554" y="738" type="curve" smooth="yes"/>
      <point x="554" y="876"/>
      <point x="653" y="989"/>
      <point x="815" y="989" type="curve" smooth="yes"/>
      <point x="1021" y="989"/>
      <point x="1172" y="823"/>
      <point x="1172" y="541" type="curve" smooth="yes"/>
      <point x="1172" y="297"/>
      <point x="989" y="95"/>
      <point x="754" y="95" type="curve" smooth="yes"/>
      <point x="426" y="95"/>
      <point x="175" y="321"/>
      <point x="175" y="833" type="curve" smooth="yes"/>
      <point x="175" y="969"/>
      <point x="211" y="1151"/>
      <point x="253" y="1278" type="curve"/>
      <point x="382" y="1221" type="line"/>
      <point x="330" y="1068"/>
      <point x="307" y="913"/>
      <point x="307" y="759" type="curve" smooth="yes"/>
      <point x="307" y="361"/>
      <point x="510" y="207"/>
      <point x="732" y="207" type="curve" smooth="yes"/>
      <point x="914" y="207"/>
      <point x="1044" y="370"/>
      <point x="1044" y="580" type="curve" smooth="yes"/>
      <point x="1044" y="749"/>
      <point x="954" y="871"/>
      <point x="838" y="871" type="curve" smooth="yes"/>
      <point x="742" y="871"/>
      <point x="685" y="803"/>
      <point x="685" y="709" type="curve" smooth="yes"/>
      <point x="685" y="589"/>
      <point x="762" y="479"/>
    </contour>
  </outline>
</glyph>
<glyph name="eightdeva" format="1">
  <advance width="1002"/>
  <unicode hex="096E"/>
  <outline>
    <contour>
      <point x="687" y="1284" type="line"/>
      <point x="800" y="1197" type="line"/>
      <point x="386" y="725" type="line"/>
      <point x="278" y="602"/>
      <point x="244" y="522"/>
      <point x="244" y="417" type="curve" smooth="yes"/>
      <point x="244" y="307"/>
      <point x="344" y="208"/>
      <point x="511" y="208" type="curve" smooth="yes"/>
      <point x="636" y="208"/>
      <point x="780" y="258"/>
      <point x="938" y="378" type="curve"/>
      <point x="1011" y="260" type="line"/>
      <point x="864" y="146"/>
      <point x="680" y="78"/>
      <point x="527" y="78" type="curve" smooth="yes"/>
      <point x="298" y="78"/>
      <point x="104" y="229"/>
      <point x="104" y="443" type="curve" smooth="yes"/>
      <point x="104" y="572"/>
      <point x="153" y="681"/>
      <point x="277" y="822" type="curve" smooth="yes"/>
    </contour>
  </outline>
</glyph>
<glyph name="ninedeva" format="1">
  <advance width="947"/>
  <unicode hex="096F"/>
  <outline>
    <contour>
      <point x="362" y="660" type="curve" smooth="yes"/>
      <point x="784" y="248" type="line"/>
      <point x="846" y="186"/>
      <point x="878" y="123"/>
      <point x="878" y="70" type="curve" smooth="yes"/>
      <point x="878" y="10"/>
      <point x="865" y="-26"/>
      <point x="829" y="-84" type="curve"/>
      <point x="693" y="-55" type="line"/>
      <point x="712" y="-17"/>
      <point x="731" y="25"/>
      <point x="731" y="65" type="curve" smooth="yes"/>
      <point x="731" y="104"/>
      <point x="719" y="136"/>
      <point x="678" y="175" type="curve" smooth="yes"/>
      <point x="277" y="561" type="line"/>
      <point x="142" y="688"/>
      <point x="86" y="806"/>
      <point x="86" y="962" type="curve" smooth="yes"/>
      <point x="86" y="1119"/>
      <point x="221" y="1279"/>
      <point x="432" y="1279" type="curve" smooth="yes"/>
      <point x="679" y="1279"/>
      <point x="808" y="1108"/>
      <point x="808" y="926" type="curve" smooth="yes"/>
      <point x="808" y="732"/>
      <point x="663" y="582"/>
      <point x="453" y="517" type="curve"/>
      <point x="374" y="608" type="line"/>
      <point x="559" y="671"/>
      <point x="674" y="791"/>
      <point x="674" y="935" type="curve" smooth="yes"/>
      <point x="674" y="1057"/>
      <point x="588" y="1156"/>
      <point x="457" y="1156" type="curve" smooth="yes"/>
      <point x="316" y="1156"/>
      <point x="229" y="1057"/>
      <point x="229" y="927" type="curve" smooth="yes"/>
      <point x="229" y="826"/>
      <point x="273" y="748"/>
    </contour>
  </outline>
</glyph>
<glyph name="quoteleft.deva" format="1">
  <advance width="313"/>
  <unicode hex="2018"/>
  <outline>
    <contour>
      <point x="33" y="865" type="line"/>
      <point x="22" y="885" type="line"/>
      <point x="35" y="939"/>
      <point x="57" y="1006"/>
      <point x="86" y="1086" type="curve" smooth="yes"/>
      <point x="115" y="1167"/>
      <point x="147" y="1243"/>
      <point x="181" y="1316" type="curve"/>
      <point x="292" y="1316" type="line"/>
      <point x="252" y="1163"/>
      <point x="221" y="1013"/>
      <point x="199" y="865" type="curve"/>
    </contour>
  </outline>
</glyph>
<glyph name="uni20B9.deva" format="1">
  <advance width="987"/>
  <unicode hex="20B9"/>
  <outline>
    <contour>
      <point x="131" y="793" type="line"/>
      <point x="131" y="901" type="line"/>
      <point x="900" y="901" type="line"/>
      <point x="900" y="793" type="line"/>
    </contour>
    <contour>
      <point x="131" y="1171" type="line"/>
      <point x="131" y="1278" type="line"/>
      <point x="900" y="1278" type="line"/>
      <point x="900" y="1171" type="line"/>
    </contour>
    <contour>
      <point x="189" y="479" type="line"/>
      <point x="192" y="550" type="line"/>
      <point x="472" y="566"/>
      <point x="606" y="696"/>
      <point x="606" y="882" type="curve" smooth="yes"/>
      <point x="606" y="1037"/>
      <point x="459" y="1171"/>
      <point x="292" y="1171" type="curve" smooth="yes"/>
      <point x="272" y="1171" type="line"/>
      <point x="272" y="1263" type="line"/>
      <point x="311" y="1263" type="line"/>
      <point x="545" y="1263"/>
      <point x="744" y="1097"/>
      <point x="744" y="872" type="curve" smooth="yes"/>
      <point x="744" y="647"/>
      <point x="577" y="490"/>
      <point x="326" y="458" type="curve"/>
      <point x="326" y="506" type="line"/>
      <point x="735" y="9" type="line"/>
      <point x="736" y="0" type="line"/>
      <point x="583" y="0" type="line"/>
    </contour>
  </outline>
</glyph>
<glyph name="uni25CC" format="1">
  <advance width="1084"/>
  <unicode hex="25CC"/>
  <outline>
    <contour>
      <point x="594" y="1008" type="curve" smooth="yes"/>
      <point x="594" y="985"/>
      <point x="581" y="969"/>
      <point x="550" y="969" type="curve" smooth="yes"/>
      <point x="520" y="969"/>
      <point x="508" y="986"/>
      <point x="508" y="1008" type="curve" smooth="yes"/>
      <point x="508" y="1030"/>
      <point x="520" y="1045"/>
      <point x="550" y="1045" type="curve" smooth="yes"/>
      <point x="580" y="1045"/>
      <point x="594" y="1031"/>
    </contour>
    <contour>
      <point x="316" y="902" type="curve" smooth="yes"/>
      <point x="316" y="880"/>
      <point x="302" y="864"/>
      <point x="272" y="864" type="curve" smooth="yes"/>
      <point x="243" y="864"/>
      <point x="229" y="880"/>
      <point x="229" y="902" type="curve" smooth="yes"/>
      <point x="229" y="924"/>
      <point x="243" y="940"/>
      <point x="272" y="940" type="curve" smooth="yes"/>
      <point x="302" y="940"/>
      <point x="316" y="924"/>
    </contour>
    <contour>
      <point x="874" y="902" type="curve" smooth="yes"/>
      <point x="874" y="880"/>
      <point x="860" y="864"/>
      <point x="830" y="864" type="curve" smooth="yes"/>
      <point x="800" y="864"/>
      <point x="787" y="880"/>
      <point x="787" y="902" type="curve" smooth="yes"/>
      <point x="787" y="924"/>
      <point x="800" y="940"/>
      <point x="830" y="940" type="curve" smooth="yes"/>
      <point x="860" y="940"/>
      <point x="874" y="924"/>
    </contour>
    <contour>
      <point x="971" y="638" type="curve" smooth="yes"/>
      <point x="971" y="615"/>
      <point x="956" y="600"/>
      <point x="925" y="600" type="curve" smooth="yes"/>
      <point x="896" y="600"/>
      <point x="882" y="616"/>
      <point x="882" y="638" type="curve" smooth="yes"/>
      <point x="882" y="660"/>
      <point x="896" y="676"/>
      <point x="925" y="676" type="curve" smooth="yes"/>
      <point x="956" y="676"/>
      <point x="971" y="661"/>
    </contour>
    <contour>
      <point x="219" y="638" type="curve" smooth="yes"/>
      <point x="219" y="616"/>
      <point x="204" y="600"/>
      <point x="175" y="600" type="curve" smooth="yes"/>
      <point x="145" y="600"/>
      <point x="132" y="616"/>
      <point x="132" y="638" type="curve" smooth="yes"/>
      <point x="132" y="660"/>
      <point x="145" y="676"/>
      <point x="175" y="676" type="curve" smooth="yes"/>
      <point x="204" y="676"/>
      <point x="219" y="660"/>
    </contour>
    <contour>
      <point x="316" y="374" type="curve" smooth="yes"/>
      <point x="316" y="352"/>
      <point x="302" y="336"/>
      <point x="272" y="336" type="curve" smooth="yes"/>
      <point x="243" y="336"/>
      <point x="229" y="352"/>
      <point x="229" y="374" type="curve" smooth="yes"/>
      <point x="229" y="396"/>
      <point x="243" y="412"/>
      <point x="272" y="412" type="curve" smooth="yes"/>
      <point x="302" y="412"/>
      <point x="316" y="396"/>
    </contour>
    <contour>
      <point x="874" y="374" type="curve" smooth="yes"/>
      <point x="874" y="352"/>
      <point x="860" y="336"/>
      <point x="830" y="336" type="curve" smooth="yes"/>
      <point x="800" y="336"/>
      <point x="787" y="352"/>
      <point x="787" y="374" type="curve" smooth="yes"/>
      <point x="787" y="396"/>
      <point x="800" y="412"/>
      <point x="830" y="412" type="curve" smooth="yes"/>
      <point x="860" y="412"/>
      <point x="874" y="396"/>
    </contour>
    <contour>
      <point x="594" y="268" type="curve" smooth="yes"/>
      <point x="594" y="245"/>
      <point x="581" y="230"/>
      <point x="550" y="230" type="curve" smooth="yes"/>
      <point x="520" y="230"/>
      <point x="508" y="246"/>
      <point x="508" y="268" type="curve" smooth="yes"/>
      <point x="508" y="290"/>
      <point x="520" y="307"/>
      <point x="550" y="307" type="curve" smooth="yes"/>
      <point x="581" y="307"/>
      <point x="594" y="291"/>
    </contour>
  </outline>
</glyph>
<glyph name="bhaprehalfdeva" format="1">
  <advance width="777"/>
  <outline>
    <contour>
      <point x="378" y="1023" type="line"/>
      <point x="378" y="1145"/>
      <point x="322" y="1203"/>
      <point x="231" y="1203" type="curve" smooth="yes"/>
      <point x="151" y="1203"/>
      <point x="116" y="1148"/>
      <point x="115" y="1077" type="curve" smooth="yes"/>
      <point x="114" y="987"/>
      <point x="196" y="897"/>
      <point x="423" y="885" type="curve"/>
      <point x="397" y="787" type="line"/>
      <point x="143" y="799"/>
      <point x="-22" y="918"/>
      <point x="-22" y="1102" type="curve" smooth="yes"/>
      <point x="-22" y="1218"/>
      <point x="54" y="1322"/>
      <point x="223" y="1322" type="curve" smooth="yes"/>
      <point x="418" y="1322"/>
      <point x="529" y="1201"/>
      <point x="529" y="998" type="curve" smooth="yes"/>
      <point x="529" y="612" type="line"/>
      <point x="496" y="641" type="line"/>
      <point x="1073" y="641" type="line"/>
      <point x="1073" y="519" type="line"/>
      <point x="494" y="519" type="line"/>
      <point x="529" y="547" type="line"/>
      <point x="529" y="408" type="line"/>
      <point x="529" y="365"/>
      <point x="514" y="345"/>
      <point x="471" y="345" type="curve" smooth="yes"/>
      <point x="399" y="345"/>
      <point x="244" y="517"/>
      <point x="244" y="581" type="curve" smooth="yes"/>
      <point x="244" y="619"/>
      <point x="263" y="640"/>
      <point x="306" y="640" type="curve" smooth="yes"/>
      <point x="407" y="640" type="line"/>
      <point x="378" y="611" type="line"/>
    </contour>
  </outline>
</glyph>
<glyph name="bharadeva" format="1">
  <advance width="1311"/>
  <outline>
    <contour>
      <point x="1038" y="441" type="line"/>
      <point x="446" y="-51" type="line"/>
      <point x="358" y="45" type="line"/>
      <point x="960" y="539" type="line"/>
    </contour>
    <contour>
      <point x="391" y="1023" type="line"/>
      <point x="391" y="1145"/>
      <point x="335" y="1203"/>
      <point x="244" y="1203" type="curve" smooth="yes"/>
      <point x="164" y="1203"/>
      <point x="128" y="1148"/>
      <point x="127" y="1077" type="curve" smooth="yes"/>
      <point x="127" y="987"/>
      <point x="209" y="897"/>
      <point x="436" y="885" type="curve"/>
      <point x="409" y="791" type="line"/>
      <point x="156" y="804"/>
      <point x="-9" y="918"/>
      <point x="-9" y="1102" type="curve" smooth="yes"/>
      <point x="-9" y="1218"/>
      <point x="67" y="1322"/>
      <point x="236" y="1322" type="curve" smooth="yes"/>
      <point x="431" y="1322"/>
      <point x="541" y="1201"/>
      <point x="541" y="998" type="curve" smooth="yes"/>
      <point x="541" y="617" type="line"/>
      <point x="509" y="645" type="line"/>
      <point x="982" y="645" type="line"/>
      <point x="982" y="523" type="line"/>
      <point x="506" y="523" type="line"/>
      <point x="541" y="551" type="line"/>
      <point x="541" y="417" type="line"/>
      <point x="541" y="374"/>
      <point x="526" y="354"/>
      <point x="483" y="354" type="curve" smooth="yes"/>
      <point x="416" y="354"/>
      <point x="257" y="525"/>
      <point x="257" y="586" type="curve" smooth="yes"/>
      <point x="257" y="624"/>
      <point x="276" y="644"/>
      <point x="319" y="644" type="curve" smooth="yes"/>
      <point x="420" y="644" type="line"/>
      <point x="391" y="615" type="line"/>
    </contour>
    <contour>
      <point x="931" y="1197" type="line"/>
      <point x="1081" y="1197" type="line"/>
      <point x="1081" y="0" type="line"/>
      <point x="931" y="0" type="line"/>
    </contour>
    <contour>
      <point x="1329" y="1166" type="line"/>
      <point x="781" y="1166" type="line"/>
      <point x="781" y="1278" type="line"/>
      <point x="1329" y="1278" type="line"/>
    </contour>
  </outline>
</glyph>
<glyph name="caprehalfdeva" format="1">
  <advance width="849"/>
  <outline>
    <contour>
      <point x="62" y="764" type="line"/>
      <point x="62" y="884" type="line"/>
      <point x="768" y="884" type="line"/>
      <point x="768" y="764" type="line"/>
    </contour>
    <contour>
      <point x="1049" y="620" type="curve"/>
      <point x="1131" y="506" type="line"/>
      <point x="1018" y="361"/>
      <point x="871" y="248"/>
      <point x="670" y="248" type="curve" smooth="yes"/>
      <point x="448" y="248"/>
      <point x="307" y="390"/>
      <point x="307" y="570" type="curve" smooth="yes"/>
      <point x="307" y="719"/>
      <point x="417" y="870"/>
      <point x="645" y="870" type="curve"/>
      <point x="676" y="764" type="line"/>
      <point x="532" y="765"/>
      <point x="445" y="660"/>
      <point x="445" y="551" type="curve" smooth="yes"/>
      <point x="445" y="450"/>
      <point x="540" y="372"/>
      <point x="654" y="372" type="curve" smooth="yes"/>
      <point x="809" y="372"/>
      <point x="945" y="465"/>
    </contour>
    <contour>
      <point x="-18" y="1166" type="line"/>
      <point x="-18" y="1278" type="line"/>
      <point x="1013" y="1278" type="line"/>
      <point x="1013" y="1166" type="line"/>
    </contour>
  </outline>
</glyph>
<glyph name="caradeva" format="1">
  <advance width="1322"/>
  <outline>
    <contour>
      <point x="1029" y="397" type="line"/>
      <point x="316" y="-63" type="line"/>
      <point x="242" y="43" type="line"/>
      <point x="959" y="498" type="line"/>
    </contour>
    <component base="cadeva"/>
  </outline>
</glyph>
<glyph name="chanuktadeva" format="1">
  <advance width="1451"/>
  <outline>
    <component base="nuktadeva" xOffset="1518" yOffset="11"/>
    <component base="chadeva"/>
    <contour>
      <point x="996" y="1274" type="move" name="mark0"/>
    </contour>
  </outline>
</glyph>
<glyph name="chaprehalfdeva" format="1">
  <advance width="1445"/>
  <outline>
    <contour>
      <point x="637" y="774" type="curve"/>
      <point x="676" y="656" type="line"/>
      <point x="674" y="656"/>
      <point x="671" y="656"/>
      <point x="669" y="656" type="curve" smooth="yes"/>
      <point x="434" y="651"/>
      <point x="359" y="537"/>
      <point x="359" y="427" type="curve" smooth="yes"/>
      <point x="359" y="303"/>
      <point x="470" y="201"/>
      <point x="664" y="201" type="curve" smooth="yes"/>
      <point x="954" y="201"/>
      <point x="1225" y="452"/>
      <point x="1225" y="672" type="curve" smooth="yes"/>
      <point x="1225" y="808"/>
      <point x="1154" y="878"/>
      <point x="1066" y="878" type="curve" smooth="yes"/>
      <point x="992" y="878"/>
      <point x="938" y="805"/>
      <point x="938" y="717" type="curve" smooth="yes"/>
      <point x="938" y="617"/>
      <point x="1012" y="519"/>
      <point x="1201" y="391" type="curve"/>
      <point x="1134" y="311" type="line"/>
      <point x="921" y="446"/>
      <point x="810" y="572"/>
      <point x="810" y="745" type="curve" smooth="yes"/>
      <point x="810" y="865"/>
      <point x="899" y="995"/>
      <point x="1045" y="995" type="curve" smooth="yes"/>
      <point x="1220" y="995"/>
      <point x="1349" y="874"/>
      <point x="1349" y="663" type="curve" smooth="yes"/>
      <point x="1349" y="385"/>
      <point x="1041" y="77"/>
      <point x="678" y="77" type="curve" smooth="yes"/>
      <point x="364" y="77"/>
      <point x="215" y="252"/>
      <point x="215" y="449" type="curve" smooth="yes"/>
      <point x="215" y="617"/>
      <point x="349" y="771"/>
      <point x="632" y="774" type="curve" smooth="yes"/>
      <point x="634" y="774"/>
      <point x="635" y="774"/>
    </contour>
    <contour>
      <point x="517" y="738" type="curve"/>
      <point x="402" y="652" type="line"/>
      <point x="210" y="706"/>
      <point x="125" y="824"/>
      <point x="125" y="974" type="curve" smooth="yes"/>
      <point x="125" y="1085"/>
      <point x="201" y="1222"/>
      <point x="429" y="1263" type="curve"/>
      <point x="517" y="1187" type="line"/>
      <point x="338" y="1161"/>
      <point x="269" y="1052"/>
      <point x="269" y="959" type="curve" smooth="yes"/>
      <point x="269" y="870"/>
      <point x="317" y="773"/>
    </contour>
    <contour>
      <point x="1472" y="1166" type="line"/>
      <point x="-33" y="1166" type="line"/>
      <point x="-33" y="1278" type="line"/>
      <point x="1472" y="1278" type="line"/>
    </contour>
  </outline>
</glyph>
<glyph name="charadeva" format="1">
  <advance width="1448"/>
  <outline>
    <component base="vattudeva" xOffset="1235"/>
    <component base="chadeva"/>
    <contour>
      <point x="1003" y="1274" type="move" name="mark0"/>
    </contour>
  </outline>
</glyph>
<glyph name="chayadeva" format="1">
  <advance width="2620"/>
  <outline>
    <contour>
      <point x="1115" y="871" type="line"/>
      <point x="1041" y="982" type="line"/>
      <point x="1656" y="982" type="line"/>
      <point x="1840" y="982"/>
      <point x="1932" y="864"/>
      <point x="1932" y="735" type="curve" smooth="yes"/>
      <point x="1932" y="613"/>
      <point x="1852" y="490"/>
      <point x="1605" y="428" type="curve"/>
      <point x="1609" y="482" type="line"/>
      <point x="1688" y="353"/>
      <point x="1797" y="273"/>
      <point x="1925" y="273" type="curve" smooth="yes"/>
      <point x="2077" y="273"/>
      <point x="2197" y="356"/>
      <point x="2277" y="495" type="curve"/>
      <point x="2277" y="300" type="line"/>
      <point x="2203" y="209"/>
      <point x="2098" y="148"/>
      <point x="1952" y="148" type="curve" smooth="yes"/>
      <point x="1749" y="148"/>
      <point x="1576" y="276"/>
      <point x="1471" y="495" type="curve"/>
      <point x="1471" y="500" type="line"/>
      <point x="1735" y="566"/>
      <point x="1792" y="660"/>
      <point x="1792" y="738" type="curve" smooth="yes"/>
      <point x="1792" y="812"/>
      <point x="1735" y="871"/>
      <point x="1621" y="871" type="curve" smooth="yes"/>
    </contour>
    <contour>
      <point x="2229" y="1197" type="line"/>
      <point x="2379" y="1197" type="line"/>
      <point x="2379" y="0" type="line"/>
      <point x="2229" y="0" type="line"/>
    </contour>
    <contour>
      <point x="1371" y="1166" type="line"/>
      <point x="1371" y="1278" type="line"/>
      <point x="2627" y="1278" type="line"/>
      <point x="2627" y="1166" type="line"/>
    </contour>
    <contour>
      <point x="627" y="774" type="curve"/>
      <point x="667" y="655" type="line"/>
      <point x="665" y="655"/>
      <point x="662" y="655"/>
      <point x="660" y="655" type="curve" smooth="yes"/>
      <point x="429" y="654"/>
      <point x="350" y="538"/>
      <point x="350" y="427" type="curve" smooth="yes"/>
      <point x="350" y="303"/>
      <point x="459" y="201"/>
      <point x="653" y="201" type="curve" smooth="yes"/>
      <point x="943" y="201"/>
      <point x="1214" y="450"/>
      <point x="1214" y="667" type="curve" smooth="yes"/>
      <point x="1214" y="802"/>
      <point x="1143" y="873"/>
      <point x="1055" y="873" type="curve" smooth="yes"/>
      <point x="982" y="873"/>
      <point x="927" y="800"/>
      <point x="927" y="713" type="curve" smooth="yes"/>
      <point x="927" y="614"/>
      <point x="1001" y="519"/>
      <point x="1190" y="393" type="curve"/>
      <point x="1122" y="313" type="line"/>
      <point x="910" y="444"/>
      <point x="799" y="570"/>
      <point x="799" y="736" type="curve" smooth="yes"/>
      <point x="799" y="858"/>
      <point x="888" y="982"/>
      <point x="1032" y="982" type="curve" smooth="yes"/>
      <point x="1207" y="982"/>
      <point x="1338" y="870"/>
      <point x="1338" y="658" type="curve" smooth="yes"/>
      <point x="1338" y="381"/>
      <point x="1030" y="77"/>
      <point x="667" y="77" type="curve" smooth="yes"/>
      <point x="353" y="77"/>
      <point x="206" y="252"/>
      <point x="206" y="449" type="curve" smooth="yes"/>
      <point x="206" y="619"/>
      <point x="344" y="772"/>
      <point x="623" y="774" type="curve" smooth="yes"/>
      <point x="625" y="774"/>
      <point x="625" y="774"/>
    </contour>
    <contour>
      <point x="510" y="738" type="curve"/>
      <point x="394" y="652" type="line"/>
      <point x="203" y="706"/>
      <point x="118" y="824"/>
      <point x="118" y="974" type="curve" smooth="yes"/>
      <point x="118" y="1085"/>
      <point x="194" y="1222"/>
      <point x="422" y="1263" type="curve"/>
      <point x="510" y="1187" type="line"/>
      <point x="331" y="1161"/>
      <point x="261" y="1052"/>
      <point x="261" y="959" type="curve" smooth="yes"/>
      <point x="261" y="870"/>
      <point x="310" y="773"/>
    </contour>
    <contour>
      <point x="1459" y="1166" type="line"/>
      <point x="-41" y="1166" type="line"/>
      <point x="-41" y="1278" type="line"/>
      <point x="1459" y="1278" type="line"/>
    </contour>
  </outline>
</glyph>
<glyph name="dabhadeva" format="1">
  <advance width="1470"/>
  <outline>
    <contour>
      <point x="-37" y="1166" type="line"/>
      <point x="-37" y="1278" type="line"/>
      <point x="1486" y="1278" type="line"/>
      <point x="1486" y="1166" type="line"/>
    </contour>
    <contour>
      <point x="1092" y="212" type="line"/>
      <point x="1205" y="257" type="line"/>
      <point x="1426" y="-193" type="line"/>
      <point x="1312" y="-240" type="line"/>
    </contour>
    <contour>
      <point x="977" y="156" type="curve" smooth="yes"/>
      <point x="703" y="156"/>
      <point x="516" y="332"/>
      <point x="516" y="547" type="curve" smooth="yes"/>
      <point x="516" y="732"/>
      <point x="665" y="884"/>
      <point x="944" y="884" type="curve" smooth="yes"/>
      <point x="1136" y="884" type="line"/>
      <point x="1095" y="836" type="line"/>
      <point x="1095" y="1212" type="line"/>
      <point x="1241" y="1212" type="line"/>
      <point x="1241" y="766" type="line"/>
      <point x="1007" y="766" type="line"/>
      <point x="753" y="766"/>
      <point x="660" y="651"/>
      <point x="660" y="514" type="curve" smooth="yes"/>
      <point x="660" y="383"/>
      <point x="798" y="268"/>
      <point x="965" y="268" type="curve" smooth="yes"/>
      <point x="1017" y="268"/>
      <point x="1069" y="273"/>
      <point x="1159" y="311" type="curve"/>
      <point x="1076" y="244" type="line"/>
      <point x="1048" y="292"/>
      <point x="1036" y="337"/>
      <point x="1036" y="363" type="curve" smooth="yes"/>
      <point x="1036" y="398"/>
      <point x="1063" y="427"/>
      <point x="1119" y="427" type="curve" smooth="yes"/>
      <point x="1252" y="427"/>
      <point x="1339" y="375"/>
      <point x="1339" y="323" type="curve" smooth="yes"/>
      <point x="1339" y="247"/>
      <point x="1195" y="156"/>
    </contour>
    <contour>
      <point x="362" y="238" type="line"/>
      <point x="309" y="330"/>
      <point x="267" y="365"/>
      <point x="192" y="365" type="curve" smooth="yes"/>
      <point x="124" y="365"/>
      <point x="75" y="304"/>
      <point x="76" y="243" type="curve" smooth="yes"/>
      <point x="76" y="174"/>
      <point x="128" y="116"/>
      <point x="219" y="115" type="curve" smooth="yes"/>
      <point x="276" y="115"/>
      <point x="339" y="141"/>
      <point x="414" y="210" type="curve"/>
      <point x="448" y="115" type="line"/>
      <point x="369" y="48"/>
      <point x="304" y="18"/>
      <point x="212" y="18" type="curve" smooth="yes"/>
      <point x="74" y="18"/>
      <point x="-45" y="108"/>
      <point x="-45" y="253" type="curve" smooth="yes"/>
      <point x="-45" y="374"/>
      <point x="55" y="474"/>
      <point x="192" y="474" type="curve" smooth="yes"/>
      <point x="333" y="474"/>
      <point x="415" y="397"/>
      <point x="482" y="281" type="curve" smooth="yes"/>
      <point x="662" y="-34" type="line"/>
      <point x="620" y="-24" type="line"/>
      <point x="1113" y="229" type="line"/>
      <point x="1169" y="127" type="line"/>
      <point x="674" y="-130" type="line"/>
      <point x="692" y="-90" type="line"/>
      <point x="751" y="-204" type="line"/>
      <point x="760" y="-219"/>
      <point x="763" y="-233"/>
      <point x="763" y="-245" type="curve" smooth="yes"/>
      <point x="762" y="-268"/>
      <point x="737" y="-290"/>
      <point x="694" y="-290" type="curve" smooth="yes"/>
      <point x="592" y="-290"/>
      <point x="425" y="-211"/>
      <point x="425" y="-159" type="curve" smooth="yes"/>
      <point x="425" y="-139"/>
      <point x="434" y="-122"/>
      <point x="459" y="-109" type="curve" smooth="yes"/>
      <point x="558" y="-56" type="line"/>
      <point x="551" y="-97" type="line"/>
    </contour>
    <contour>
      <point x="1786" y="-22" type="move" name="mark0"/>
    </contour>
  </outline>
</glyph>
<glyph name="dadhadeva" format="1">
  <advance width="1352"/>
  <outline>
    <contour>
      <point x="973" y="212" type="line"/>
      <point x="1087" y="257" type="line"/>
      <point x="1307" y="-193" type="line"/>
      <point x="1193" y="-240" type="line"/>
    </contour>
    <contour>
      <point x="672" y="250" type="line"/>
      <point x="540" y="183"/>
      <point x="507" y="99"/>
      <point x="506" y="32" type="curve" smooth="yes"/>
      <point x="506" y="-56"/>
      <point x="566" y="-114"/>
      <point x="667" y="-114" type="curve" smooth="yes"/>
      <point x="821" y="-113"/>
      <point x="950" y="14"/>
      <point x="983" y="211" type="curve"/>
      <point x="1069" y="51" type="line"/>
      <point x="996" y="-112"/>
      <point x="851" y="-227"/>
      <point x="680" y="-227" type="curve" smooth="yes"/>
      <point x="499" y="-227"/>
      <point x="381" y="-121"/>
      <point x="381" y="35" type="curve" smooth="yes"/>
      <point x="381" y="135"/>
      <point x="422" y="236"/>
      <point x="584" y="331" type="curve"/>
    </contour>
    <contour>
      <point x="-45" y="1166" type="line"/>
      <point x="-45" y="1278" type="line"/>
      <point x="1367" y="1278" type="line"/>
      <point x="1367" y="1166" type="line"/>
    </contour>
    <contour>
      <point x="859" y="156" type="curve" smooth="yes"/>
      <point x="584" y="156"/>
      <point x="397" y="332"/>
      <point x="397" y="547" type="curve" smooth="yes"/>
      <point x="397" y="732"/>
      <point x="546" y="884"/>
      <point x="825" y="884" type="curve" smooth="yes"/>
      <point x="1018" y="884" type="line"/>
      <point x="976" y="836" type="line"/>
      <point x="976" y="1212" type="line"/>
      <point x="1122" y="1212" type="line"/>
      <point x="1122" y="766" type="line"/>
      <point x="888" y="766" type="line"/>
      <point x="634" y="766"/>
      <point x="541" y="651"/>
      <point x="541" y="514" type="curve" smooth="yes"/>
      <point x="541" y="383"/>
      <point x="679" y="268"/>
      <point x="846" y="268" type="curve" smooth="yes"/>
      <point x="898" y="268"/>
      <point x="950" y="273"/>
      <point x="1040" y="311" type="curve"/>
      <point x="957" y="244" type="line"/>
      <point x="929" y="292"/>
      <point x="917" y="337"/>
      <point x="917" y="363" type="curve" smooth="yes"/>
      <point x="917" y="398"/>
      <point x="944" y="427"/>
      <point x="1000" y="427" type="curve" smooth="yes"/>
      <point x="1133" y="427"/>
      <point x="1220" y="375"/>
      <point x="1220" y="323" type="curve" smooth="yes"/>
      <point x="1220" y="247"/>
      <point x="1076" y="156"/>
    </contour>
    <contour>
      <point x="462" y="154" type="line"/>
      <point x="408" y="120"/>
      <point x="344" y="102"/>
      <point x="255" y="102" type="curve" smooth="yes"/>
      <point x="89" y="102"/>
      <point x="-31" y="208"/>
      <point x="-31" y="352" type="curve" smooth="yes"/>
      <point x="-31" y="446"/>
      <point x="7" y="530"/>
      <point x="100" y="606" type="curve"/>
      <point x="190" y="534" type="line"/>
      <point x="126" y="475"/>
      <point x="101" y="418"/>
      <point x="101" y="357" type="curve" smooth="yes"/>
      <point x="101" y="269"/>
      <point x="167" y="207"/>
      <point x="273" y="207" type="curve" smooth="yes"/>
      <point x="369" y="208"/>
      <point x="439" y="235"/>
      <point x="518" y="279" type="curve"/>
    </contour>
    <contour>
      <point x="1681" y="-22" type="move" name="mark0"/>
    </contour>
  </outline>
</glyph>
<glyph name="dagadeva" format="1">
  <advance width="1057"/>
  <outline>
    <contour>
      <point x="412" y="269" type="line"/>
      <point x="468" y="-199" type="line"/>
      <point x="472" y="-244"/>
      <point x="460" y="-267"/>
      <point x="417" y="-267" type="curve" smooth="yes"/>
      <point x="350" y="-267"/>
      <point x="204" y="-157"/>
      <point x="204" y="-95" type="curve" smooth="yes"/>
      <point x="204" y="-69"/>
      <point x="220" y="-52"/>
      <point x="258" y="-48" type="curve" smooth="yes"/>
      <point x="344" y="-38" type="line"/>
      <point x="320" y="-70" type="line"/>
      <point x="281" y="255" type="line"/>
    </contour>
    <contour>
      <point x="-264" y="1166" type="line"/>
      <point x="-264" y="1278" type="line"/>
      <point x="1072" y="1278" type="line"/>
      <point x="1072" y="1166" type="line"/>
    </contour>
    <contour>
      <point x="678" y="212" type="line"/>
      <point x="791" y="257" type="line"/>
      <point x="935" y="-217" type="line"/>
      <point x="817" y="-249" type="line"/>
    </contour>
    <contour>
      <point x="564" y="156" type="curve" smooth="yes"/>
      <point x="289" y="156"/>
      <point x="103" y="332"/>
      <point x="103" y="547" type="curve" smooth="yes"/>
      <point x="103" y="732"/>
      <point x="252" y="884"/>
      <point x="530" y="884" type="curve" smooth="yes"/>
      <point x="723" y="884" type="line"/>
      <point x="681" y="836" type="line"/>
      <point x="681" y="1212" type="line"/>
      <point x="827" y="1212" type="line"/>
      <point x="827" y="766" type="line"/>
      <point x="593" y="766" type="line"/>
      <point x="340" y="766"/>
      <point x="247" y="651"/>
      <point x="247" y="514" type="curve" smooth="yes"/>
      <point x="247" y="383"/>
      <point x="384" y="268"/>
      <point x="551" y="268" type="curve" smooth="yes"/>
      <point x="603" y="268"/>
      <point x="655" y="273"/>
      <point x="745" y="311" type="curve"/>
      <point x="661" y="244" type="line"/>
      <point x="637" y="292"/>
      <point x="630" y="337"/>
      <point x="630" y="363" type="curve" smooth="yes"/>
      <point x="630" y="398"/>
      <point x="658" y="427"/>
      <point x="714" y="427" type="curve" smooth="yes"/>
      <point x="847" y="427"/>
      <point x="925" y="375"/>
      <point x="925" y="323" type="curve" smooth="yes"/>
      <point x="925" y="247"/>
      <point x="782" y="156"/>
    </contour>
    <contour>
      <point x="882" y="-22" type="move" name="mark0"/>
    </contour>
  </outline>
</glyph>
<glyph name="daghadeva" format="1">
  <advance width="1349"/>
  <outline>
    <contour>
      <point x="970" y="212" type="line"/>
      <point x="1084" y="257" type="line"/>
      <point x="1304" y="-193" type="line"/>
      <point x="1191" y="-240" type="line"/>
    </contour>
    <contour>
      <point x="670" y="250" type="line"/>
      <point x="538" y="183"/>
      <point x="504" y="99"/>
      <point x="504" y="32" type="curve" smooth="yes"/>
      <point x="504" y="-56"/>
      <point x="564" y="-114"/>
      <point x="664" y="-114" type="curve" smooth="yes"/>
      <point x="819" y="-113"/>
      <point x="947" y="14"/>
      <point x="981" y="211" type="curve"/>
      <point x="1067" y="51" type="line"/>
      <point x="994" y="-112"/>
      <point x="849" y="-227"/>
      <point x="678" y="-227" type="curve" smooth="yes"/>
      <point x="496" y="-227"/>
      <point x="378" y="-121"/>
      <point x="378" y="35" type="curve" smooth="yes"/>
      <point x="378" y="135"/>
      <point x="420" y="236"/>
      <point x="581" y="331" type="curve"/>
    </contour>
    <contour>
      <point x="477" y="152" type="line"/>
      <point x="425" y="116"/>
      <point x="362" y="98"/>
      <point x="271" y="98" type="curve" smooth="yes"/>
      <point x="113" y="98"/>
      <point x="-11" y="201"/>
      <point x="-11" y="363" type="curve" smooth="yes"/>
      <point x="-11" y="505"/>
      <point x="113" y="629"/>
      <point x="313" y="629" type="curve" smooth="yes"/>
      <point x="378" y="629"/>
      <point x="425" y="621"/>
      <point x="485" y="605" type="curve"/>
      <point x="481" y="505" type="line"/>
      <point x="434" y="520"/>
      <point x="386" y="528"/>
      <point x="335" y="528" type="curve" smooth="yes"/>
      <point x="199" y="528"/>
      <point x="119" y="445"/>
      <point x="119" y="353" type="curve" smooth="yes"/>
      <point x="119" y="259"/>
      <point x="192" y="203"/>
      <point x="283" y="203" type="curve" smooth="yes"/>
      <point x="373" y="204"/>
      <point x="436" y="227"/>
      <point x="516" y="277" type="curve"/>
    </contour>
    <contour>
      <point x="-61" y="1166" type="line"/>
      <point x="-61" y="1278" type="line"/>
      <point x="1364" y="1278" type="line"/>
      <point x="1364" y="1166" type="line"/>
    </contour>
    <contour>
      <point x="856" y="156" type="curve" smooth="yes"/>
      <point x="582" y="156"/>
      <point x="395" y="332"/>
      <point x="395" y="547" type="curve" smooth="yes"/>
      <point x="395" y="732"/>
      <point x="544" y="884"/>
      <point x="823" y="884" type="curve" smooth="yes"/>
      <point x="1015" y="884" type="line"/>
      <point x="973" y="836" type="line"/>
      <point x="973" y="1212" type="line"/>
      <point x="1119" y="1212" type="line"/>
      <point x="1119" y="766" type="line"/>
      <point x="886" y="766" type="line"/>
      <point x="632" y="766"/>
      <point x="539" y="651"/>
      <point x="539" y="514" type="curve" smooth="yes"/>
      <point x="539" y="383"/>
      <point x="677" y="268"/>
      <point x="844" y="268" type="curve" smooth="yes"/>
      <point x="896" y="268"/>
      <point x="947" y="273"/>
      <point x="1038" y="311" type="curve"/>
      <point x="954" y="244" type="line"/>
      <point x="927" y="292"/>
      <point x="914" y="337"/>
      <point x="914" y="363" type="curve" smooth="yes"/>
      <point x="914" y="398"/>
      <point x="942" y="427"/>
      <point x="998" y="427" type="curve" smooth="yes"/>
      <point x="1131" y="427"/>
      <point x="1218" y="375"/>
      <point x="1218" y="323" type="curve" smooth="yes"/>
      <point x="1218" y="247"/>
      <point x="1074" y="156"/>
    </contour>
    <contour>
      <point x="1373" y="-22" type="move" name="mark0"/>
    </contour>
  </outline>
</glyph>
<glyph name="danuktaradeva" format="1">
  <advance width="1154"/>
  <outline>
    <component base="daradeva"/>
    <component base="nuktadeva" xOffset="1155" yOffset="25"/>
    <contour>
      <point x="856" y="0" type="move" name="mark0"/>
    </contour>
  </outline>
</glyph>
<glyph name="danuktarvocalicdeva" format="1">
  <advance width="1154"/>
  <outline>
    <component base="darvocalicdeva"/>
    <component base="nuktadeva" xOffset="964" yOffset="152"/>
    <contour>
      <point x="630" y="1274" type="move" name="mark0"/>
    </contour>
  </outline>
</glyph>
<glyph name="danuktaudeva" format="1">
  <advance width="1154"/>
  <outline>
    <contour>
      <point x="0" y="0" type="line"/>
      <point x="1154" y="0" type="line"/>
      <point x="1154" y="20" type="line"/>
      <point x="0" y="20" type="line"/>
    </contour>
  </outline>
</glyph>
<glyph name="danuktauudeva" format="1">
  <advance width="1141"/>
  <outline>
    <contour>
      <point x="0" y="0" type="line"/>
      <point x="1141" y="0" type="line"/>
      <point x="1141" y="20" type="line"/>
      <point x="0" y="20" type="line"/>
    </contour>
  </outline>
</glyph>
<glyph name="davadeva" format="1">
  <advance width="1057"/>
  <outline>
    <contour>
      <point x="678" y="212" type="line"/>
      <point x="792" y="257" type="line"/>
      <point x="1012" y="-193" type="line"/>
      <point x="898" y="-240" type="line"/>
    </contour>
    <contour>
      <point x="352" y="274" type="line"/>
      <point x="222" y="208"/>
      <point x="180" y="125"/>
      <point x="180" y="45" type="curve" smooth="yes"/>
      <point x="180" y="-48"/>
      <point x="255" y="-118"/>
      <point x="368" y="-118" type="curve" smooth="yes"/>
      <point x="526" y="-118"/>
      <point x="659" y="13"/>
      <point x="695" y="206" type="curve"/>
      <point x="779" y="44" type="line"/>
      <point x="701" y="-114"/>
      <point x="561" y="-228"/>
      <point x="379" y="-228" type="curve" smooth="yes"/>
      <point x="189" y="-228"/>
      <point x="51" y="-101"/>
      <point x="51" y="55" type="curve" smooth="yes"/>
      <point x="51" y="168"/>
      <point x="105" y="267"/>
      <point x="252" y="354" type="curve"/>
    </contour>
    <contour>
      <point x="-264" y="1166" type="line"/>
      <point x="-264" y="1278" type="line"/>
      <point x="1072" y="1278" type="line"/>
      <point x="1072" y="1166" type="line"/>
    </contour>
    <contour>
      <point x="564" y="156" type="curve" smooth="yes"/>
      <point x="289" y="156"/>
      <point x="103" y="332"/>
      <point x="103" y="547" type="curve" smooth="yes"/>
      <point x="103" y="732"/>
      <point x="252" y="884"/>
      <point x="530" y="884" type="curve" smooth="yes"/>
      <point x="723" y="884" type="line"/>
      <point x="681" y="836" type="line"/>
      <point x="681" y="1212" type="line"/>
      <point x="827" y="1212" type="line"/>
      <point x="827" y="766" type="line"/>
      <point x="593" y="766" type="line"/>
      <point x="340" y="766"/>
      <point x="247" y="651"/>
      <point x="247" y="514" type="curve" smooth="yes"/>
      <point x="247" y="383"/>
      <point x="384" y="268"/>
      <point x="551" y="268" type="curve" smooth="yes"/>
      <point x="603" y="268"/>
      <point x="655" y="273"/>
      <point x="745" y="311" type="curve"/>
      <point x="662" y="244" type="line"/>
      <point x="634" y="292"/>
      <point x="622" y="337"/>
      <point x="622" y="363" type="curve" smooth="yes"/>
      <point x="622" y="398"/>
      <point x="649" y="427"/>
      <point x="706" y="427" type="curve" smooth="yes"/>
      <point x="838" y="427"/>
      <point x="925" y="375"/>
      <point x="925" y="323" type="curve" smooth="yes"/>
      <point x="925" y="247"/>
      <point x="782" y="156"/>
    </contour>
    <contour>
      <point x="1028" y="-22" type="move" name="mark0"/>
    </contour>
  </outline>
</glyph>
<glyph name="dayadeva" format="1">
  <advance width="1288"/>
  <outline>
    <contour>
      <point x="406" y="1214" type="line"/>
      <point x="556" y="1214" type="line"/>
      <point x="556" y="949" type="line"/>
      <point x="406" y="949" type="line"/>
    </contour>
    <contour>
      <point x="689" y="556" type="line"/>
      <point x="678" y="555" type="line"/>
      <point x="452" y="552"/>
      <point x="383" y="473"/>
      <point x="383" y="380" type="curve" smooth="yes"/>
      <point x="383" y="293"/>
      <point x="466" y="226"/>
      <point x="588" y="227" type="curve" smooth="yes"/>
      <point x="716" y="227"/>
      <point x="841" y="286"/>
      <point x="934" y="397" type="curve"/>
      <point x="934" y="218" type="line"/>
      <point x="845" y="151"/>
      <point x="723" y="114"/>
      <point x="608" y="114" type="curve" smooth="yes"/>
      <point x="388" y="114"/>
      <point x="248" y="241"/>
      <point x="248" y="399" type="curve" smooth="yes"/>
      <point x="248" y="527"/>
      <point x="356" y="662"/>
      <point x="639" y="662" type="curve" smooth="yes"/>
      <point x="650" y="662" type="line"/>
    </contour>
    <contour>
      <point x="368" y="516" type="line"/>
      <point x="170" y="537"/>
      <point x="42" y="655"/>
      <point x="42" y="797" type="curve" smooth="yes"/>
      <point x="42" y="940"/>
      <point x="170" y="1025"/>
      <point x="358" y="1025" type="curve" smooth="yes"/>
      <point x="478" y="1025"/>
      <point x="472" y="1025"/>
      <point x="556" y="1022" type="curve"/>
      <point x="556" y="924" type="line"/>
      <point x="515" y="924"/>
      <point x="470" y="924"/>
      <point x="399" y="924" type="curve" smooth="yes"/>
      <point x="256" y="924"/>
      <point x="187" y="867"/>
      <point x="187" y="776" type="curve" smooth="yes"/>
      <point x="187" y="695"/>
      <point x="284" y="606"/>
      <point x="481" y="605" type="curve"/>
    </contour>
    <contour>
      <point x="903" y="1197" type="line"/>
      <point x="1053" y="1197" type="line"/>
      <point x="1053" y="0" type="line"/>
      <point x="903" y="0" type="line"/>
    </contour>
    <contour>
      <point x="1300" y="1166" type="line"/>
      <point x="-56" y="1166" type="line"/>
      <point x="-56" y="1278" type="line"/>
      <point x="1300" y="1278" type="line"/>
    </contour>
  </outline>
</glyph>
<glyph name="ddaddadeva" format="1">
  <advance width="1054"/>
  <outline>
    <contour>
      <point x="641" y="280" type="line"/>
      <point x="777" y="280" type="line"/>
      <point x="777" y="-12" type="line"/>
      <point x="447" y="-12" type="line"/>
      <point x="346" y="-12"/>
      <point x="299" y="-52"/>
      <point x="299" y="-113" type="curve" smooth="yes"/>
      <point x="299" y="-165"/>
      <point x="341" y="-208"/>
      <point x="425" y="-238" type="curve"/>
      <point x="357" y="-235" type="line"/>
      <point x="456" y="-189"/>
      <point x="515" y="-173"/>
      <point x="597" y="-173" type="curve" smooth="yes"/>
      <point x="765" y="-173"/>
      <point x="866" y="-268"/>
      <point x="866" y="-393" type="curve" smooth="yes"/>
      <point x="866" y="-525"/>
      <point x="747" y="-622"/>
      <point x="539" y="-622" type="curve" smooth="yes"/>
      <point x="404" y="-622"/>
      <point x="293" y="-588"/>
      <point x="132" y="-495" type="curve"/>
      <point x="155" y="-390" type="line"/>
      <point x="309" y="-489"/>
      <point x="424" y="-523"/>
      <point x="527" y="-523" type="curve" smooth="yes"/>
      <point x="666" y="-523"/>
      <point x="744" y="-465"/>
      <point x="744" y="-391" type="curve" smooth="yes"/>
      <point x="744" y="-328"/>
      <point x="691" y="-277"/>
      <point x="584" y="-277" type="curve" smooth="yes"/>
      <point x="512" y="-277"/>
      <point x="463" y="-296"/>
      <point x="392" y="-330" type="curve"/>
      <point x="383" y="-330" type="line"/>
      <point x="234" y="-260"/>
      <point x="177" y="-184"/>
      <point x="177" y="-89" type="curve" smooth="yes"/>
      <point x="177" y="6"/>
      <point x="254" y="85"/>
      <point x="423" y="85" type="curve" smooth="yes"/>
      <point x="683" y="85" type="line"/>
      <point x="641" y="47" type="line"/>
    </contour>
    <contour>
      <point x="683" y="1222" type="line"/>
      <point x="824" y="1222" type="line"/>
      <point x="824" y="896" type="line"/>
      <point x="465" y="896" type="line"/>
      <point x="348" y="896"/>
      <point x="313" y="854"/>
      <point x="313" y="783" type="curve" smooth="yes"/>
      <point x="313" y="724"/>
      <point x="362" y="676"/>
      <point x="447" y="643" type="curve"/>
      <point x="374" y="647" type="line"/>
      <point x="480" y="694"/>
      <point x="543" y="707"/>
      <point x="621" y="707" type="curve" smooth="yes"/>
      <point x="802" y="707"/>
      <point x="916" y="607"/>
      <point x="916" y="462" type="curve" smooth="yes"/>
      <point x="916" y="309"/>
      <point x="782" y="215"/>
      <point x="569" y="215" type="curve" smooth="yes"/>
      <point x="425" y="215"/>
      <point x="306" y="252"/>
      <point x="135" y="346" type="curve"/>
      <point x="158" y="458" type="line"/>
      <point x="323" y="359"/>
      <point x="447" y="319"/>
      <point x="556" y="319" type="curve" smooth="yes"/>
      <point x="695" y="319"/>
      <point x="789" y="381"/>
      <point x="789" y="465" type="curve" smooth="yes"/>
      <point x="789" y="549"/>
      <point x="730" y="595"/>
      <point x="616" y="595" type="curve" smooth="yes"/>
      <point x="539" y="595"/>
      <point x="488" y="578"/>
      <point x="412" y="541" type="curve"/>
      <point x="402" y="541" type="line"/>
      <point x="245" y="616"/>
      <point x="185" y="708"/>
      <point x="185" y="809" type="curve" smooth="yes"/>
      <point x="185" y="917"/>
      <point x="263" y="998"/>
      <point x="439" y="998" type="curve" smooth="yes"/>
      <point x="728" y="998" type="line"/>
      <point x="683" y="957" type="line"/>
    </contour>
    <contour>
      <point x="1073" y="1166" type="line"/>
      <point x="-20" y="1166" type="line"/>
      <point x="-20" y="1278" type="line"/>
      <point x="1073" y="1278" type="line"/>
    </contour>
    <contour>
      <point x="965" y="1252" type="move" name="mark0"/>
    </contour>
  </outline>
</glyph>
<glyph name="ddhaddhadeva" format="1">
  <advance width="1044"/>
  <outline>
    <contour>
      <point x="625" y="276" type="line"/>
      <point x="760" y="276" type="line"/>
      <point x="760" y="-29" type="line"/>
      <point x="537" y="-29" type="line"/>
      <point x="322" y="-29"/>
      <point x="241" y="-116"/>
      <point x="241" y="-248" type="curve" smooth="yes"/>
      <point x="241" y="-378"/>
      <point x="382" y="-502"/>
      <point x="574" y="-502" type="curve" smooth="yes"/>
      <point x="735" y="-502"/>
      <point x="798" y="-444"/>
      <point x="798" y="-377" type="curve" smooth="yes"/>
      <point x="798" y="-324"/>
      <point x="756" y="-285"/>
      <point x="685" y="-285" type="curve" smooth="yes"/>
      <point x="610" y="-285"/>
      <point x="558" y="-332"/>
      <point x="558" y="-406" type="curve" smooth="yes"/>
      <point x="558" y="-449"/>
      <point x="570" y="-488"/>
      <point x="597" y="-532" type="curve"/>
      <point x="491" y="-541" type="line"/>
      <point x="456" y="-487"/>
      <point x="445" y="-442"/>
      <point x="445" y="-380" type="curve" smooth="yes"/>
      <point x="445" y="-286"/>
      <point x="526" y="-192"/>
      <point x="674" y="-192" type="curve" smooth="yes"/>
      <point x="823" y="-192"/>
      <point x="911" y="-274"/>
      <point x="911" y="-385" type="curve" smooth="yes"/>
      <point x="911" y="-491"/>
      <point x="802" y="-590"/>
      <point x="594" y="-590" type="curve" smooth="yes"/>
      <point x="287" y="-590"/>
      <point x="112" y="-408"/>
      <point x="112" y="-224" type="curve" smooth="yes"/>
      <point x="112" y="-58"/>
      <point x="235" y="69"/>
      <point x="480" y="69" type="curve" smooth="yes"/>
      <point x="662" y="69" type="line"/>
      <point x="625" y="40" type="line"/>
    </contour>
    <contour>
      <point x="658" y="1202" type="line"/>
      <point x="800" y="1202" type="line"/>
      <point x="800" y="843" type="line"/>
      <point x="564" y="843" type="line"/>
      <point x="335" y="843"/>
      <point x="248" y="736"/>
      <point x="248" y="592" type="curve" smooth="yes"/>
      <point x="248" y="454"/>
      <point x="390" y="322"/>
      <point x="603" y="322" type="curve" smooth="yes"/>
      <point x="775" y="322"/>
      <point x="842" y="383"/>
      <point x="842" y="454" type="curve" smooth="yes"/>
      <point x="842" y="512"/>
      <point x="797" y="551"/>
      <point x="722" y="551" type="curve" smooth="yes"/>
      <point x="641" y="551"/>
      <point x="586" y="503"/>
      <point x="586" y="425" type="curve" smooth="yes"/>
      <point x="586" y="379"/>
      <point x="594" y="340"/>
      <point x="623" y="293" type="curve"/>
      <point x="517" y="280" type="line"/>
      <point x="480" y="339"/>
      <point x="468" y="386"/>
      <point x="468" y="452" type="curve" smooth="yes"/>
      <point x="468" y="552"/>
      <point x="558" y="653"/>
      <point x="708" y="653" type="curve" smooth="yes"/>
      <point x="862" y="653"/>
      <point x="961" y="565"/>
      <point x="961" y="446" type="curve" smooth="yes"/>
      <point x="961" y="333"/>
      <point x="845" y="225"/>
      <point x="625" y="225" type="curve" smooth="yes"/>
      <point x="300" y="225"/>
      <point x="113" y="422"/>
      <point x="113" y="619" type="curve" smooth="yes"/>
      <point x="113" y="800"/>
      <point x="246" y="946"/>
      <point x="503" y="946" type="curve" smooth="yes"/>
      <point x="699" y="946" type="line"/>
      <point x="658" y="916" type="line"/>
    </contour>
    <contour>
      <point x="1065" y="1166" type="line"/>
      <point x="-24" y="1166" type="line"/>
      <point x="-24" y="1278" type="line"/>
      <point x="1065" y="1278" type="line"/>
    </contour>
    <contour>
      <point x="663" y="1252" type="move" name="mark0"/>
    </contour>
  </outline>
</glyph>
<glyph name="ddharadeva" format="1">
  <advance width="1106"/>
  <outline>
    <component base="vattudeva" xOffset="1111"/>
    <component base="ddhadeva"/>
    <contour>
      <point x="685" y="1274" type="move" name="mark0"/>
    </contour>
  </outline>
</glyph>
<glyph name="ddhayadeva" format="1">
  <advance width="2315"/>
  <outline>
    <contour>
      <point x="1928" y="1197" type="line"/>
      <point x="2079" y="1197" type="line"/>
      <point x="2079" y="0" type="line"/>
      <point x="1928" y="0" type="line"/>
    </contour>
    <contour>
      <point x="740" y="779" type="line"/>
      <point x="740" y="891" type="line"/>
      <point x="1363" y="891" type="line"/>
      <point x="1553" y="891"/>
      <point x="1632" y="791"/>
      <point x="1632" y="685" type="curve" smooth="yes"/>
      <point x="1632" y="571"/>
      <point x="1552" y="484"/>
      <point x="1305" y="422" type="curve"/>
      <point x="1308" y="476" type="line"/>
      <point x="1387" y="347"/>
      <point x="1496" y="268"/>
      <point x="1625" y="268" type="curve" smooth="yes"/>
      <point x="1776" y="268"/>
      <point x="1896" y="350"/>
      <point x="1977" y="489" type="curve"/>
      <point x="1977" y="294" type="line"/>
      <point x="1903" y="204"/>
      <point x="1798" y="142"/>
      <point x="1651" y="142" type="curve" smooth="yes"/>
      <point x="1448" y="142"/>
      <point x="1275" y="271"/>
      <point x="1171" y="489" type="curve"/>
      <point x="1171" y="494" type="line"/>
      <point x="1435" y="560"/>
      <point x="1491" y="618"/>
      <point x="1491" y="688" type="curve" smooth="yes"/>
      <point x="1491" y="739"/>
      <point x="1449" y="779"/>
      <point x="1328" y="779" type="curve" smooth="yes"/>
    </contour>
    <contour>
      <point x="2327" y="1166" type="line"/>
      <point x="-33" y="1166" type="line"/>
      <point x="-33" y="1278" type="line"/>
      <point x="2327" y="1278" type="line"/>
    </contour>
    <contour>
      <point x="714" y="1196" type="line"/>
      <point x="861" y="1196" type="line"/>
      <point x="861" y="779" type="line"/>
      <point x="605" y="779" type="line"/>
      <point x="352" y="779"/>
      <point x="251" y="649"/>
      <point x="251" y="488" type="curve" smooth="yes"/>
      <point x="251" y="334"/>
      <point x="413" y="184"/>
      <point x="648" y="184" type="curve" smooth="yes"/>
      <point x="838" y="184"/>
      <point x="913" y="253"/>
      <point x="913" y="334" type="curve" smooth="yes"/>
      <point x="913" y="398"/>
      <point x="862" y="449"/>
      <point x="778" y="449" type="curve" smooth="yes"/>
      <point x="690" y="449"/>
      <point x="624" y="389"/>
      <point x="624" y="300" type="curve" smooth="yes"/>
      <point x="624" y="248"/>
      <point x="638" y="205"/>
      <point x="671" y="152" type="curve"/>
      <point x="555" y="139" type="line"/>
      <point x="514" y="204"/>
      <point x="501" y="257"/>
      <point x="501" y="330" type="curve" smooth="yes"/>
      <point x="501" y="443"/>
      <point x="600" y="562"/>
      <point x="763" y="562" type="curve" smooth="yes"/>
      <point x="933" y="562"/>
      <point x="1037" y="457"/>
      <point x="1037" y="324" type="curve" smooth="yes"/>
      <point x="1037" y="198"/>
      <point x="913" y="84"/>
      <point x="672" y="84" type="curve" smooth="yes"/>
      <point x="315" y="84"/>
      <point x="110" y="297"/>
      <point x="110" y="517" type="curve" smooth="yes"/>
      <point x="110" y="720"/>
      <point x="257" y="891"/>
      <point x="539" y="891" type="curve" smooth="yes"/>
      <point x="755" y="891" type="line"/>
      <point x="714" y="857" type="line"/>
    </contour>
  </outline>
</glyph>
<glyph name="dhaprehalfdeva" format="1">
  <advance width="808"/>
  <outline>
    <contour>
      <point x="670" y="755" type="line"/>
      <point x="669" y="755"/>
      <point x="662" y="755"/>
      <point x="661" y="755" type="curve"/>
      <point x="444" y="755"/>
      <point x="364" y="665"/>
      <point x="364" y="549" type="curve" smooth="yes"/>
      <point x="364" y="445"/>
      <point x="459" y="376"/>
      <point x="569" y="376" type="curve" smooth="yes"/>
      <point x="706" y="376"/>
      <point x="859" y="445"/>
      <point x="964" y="589" type="curve"/>
      <point x="1050" y="481" type="line"/>
      <point x="924" y="338"/>
      <point x="771" y="252"/>
      <point x="588" y="252" type="curve" smooth="yes"/>
      <point x="378" y="252"/>
      <point x="229" y="388"/>
      <point x="229" y="571" type="curve" smooth="yes"/>
      <point x="229" y="721"/>
      <point x="338" y="875"/>
      <point x="619" y="875" type="curve" smooth="yes"/>
      <point x="620" y="875"/>
      <point x="631" y="875"/>
      <point x="632" y="875" type="curve"/>
    </contour>
    <contour>
      <point x="1128" y="1166" type="line"/>
      <point x="784" y="1166" type="line"/>
      <point x="784" y="1278" type="line"/>
      <point x="1128" y="1278" type="line"/>
    </contour>
    <contour>
      <point x="362" y="756" type="line"/>
      <point x="165" y="803"/>
      <point x="45" y="911"/>
      <point x="45" y="1078" type="curve" smooth="yes"/>
      <point x="45" y="1215"/>
      <point x="150" y="1316"/>
      <point x="310" y="1316" type="curve" smooth="yes"/>
      <point x="414" y="1316"/>
      <point x="479" y="1296"/>
      <point x="545" y="1263" type="curve"/>
      <point x="520" y="1156" type="line"/>
      <point x="469" y="1180"/>
      <point x="415" y="1197"/>
      <point x="344" y="1197" type="curve" smooth="yes"/>
      <point x="246" y="1197"/>
      <point x="189" y="1129"/>
      <point x="189" y="1050" type="curve" smooth="yes"/>
      <point x="189" y="941"/>
      <point x="280" y="863"/>
      <point x="479" y="839" type="curve"/>
    </contour>
  </outline>
</glyph>
<glyph name="gaprehalfdeva" format="1">
  <advance width="707"/>
  <outline>
    <contour>
      <point x="435" y="1204" type="line"/>
      <point x="435" y="436" type="line" smooth="yes"/>
      <point x="435" y="390"/>
      <point x="423" y="368"/>
      <point x="379" y="368" type="curve" smooth="yes"/>
      <point x="308" y="368"/>
      <point x="137" y="531"/>
      <point x="136" y="596" type="curve" smooth="yes"/>
      <point x="136" y="630"/>
      <point x="153" y="653"/>
      <point x="204" y="653" type="curve" smooth="yes"/>
      <point x="316" y="653" type="line"/>
      <point x="285" y="621" type="line"/>
      <point x="285" y="1204" type="line"/>
    </contour>
    <contour>
      <point x="779" y="1166" type="line"/>
      <point x="-37" y="1166" type="line"/>
      <point x="-37" y="1278" type="line"/>
      <point x="779" y="1278" type="line"/>
    </contour>
  </outline>
</glyph>
<glyph name="garadeva" format="1">
  <advance width="1245"/>
  <outline>
    <contour>
      <point x="967" y="422" type="line"/>
      <point x="355" y="-51" type="line"/>
      <point x="277" y="53" type="line"/>
      <point x="894" y="519" type="line"/>
    </contour>
    <contour>
      <point x="445" y="1204" type="line"/>
      <point x="445" y="452" type="line" smooth="yes"/>
      <point x="445" y="405"/>
      <point x="432" y="384"/>
      <point x="388" y="384" type="curve" smooth="yes"/>
      <point x="318" y="384"/>
      <point x="147" y="547"/>
      <point x="146" y="612" type="curve" smooth="yes"/>
      <point x="146" y="646"/>
      <point x="163" y="668"/>
      <point x="213" y="668" type="curve" smooth="yes"/>
      <point x="326" y="668" type="line"/>
      <point x="295" y="636" type="line"/>
      <point x="295" y="1204" type="line"/>
    </contour>
    <contour>
      <point x="862" y="1197" type="line"/>
      <point x="1012" y="1197" type="line"/>
      <point x="1012" y="0" type="line"/>
      <point x="862" y="0" type="line"/>
    </contour>
    <contour>
      <point x="1259" y="1166" type="line"/>
      <point x="-26" y="1166" type="line"/>
      <point x="-26" y="1278" type="line"/>
      <point x="1259" y="1278" type="line"/>
    </contour>
  </outline>
</glyph>
<glyph name="haladeva" format="1">
  <advance width="1423"/>
  <outline>
    <contour>
      <point x="1167" y="359" type="line"/>
      <point x="1167" y="229" type="line"/>
      <point x="916" y="16" type="line"/>
      <point x="840" y="91" type="line"/>
    </contour>
    <contour>
      <point x="1036" y="196" type="curve"/>
      <point x="968" y="136" type="line"/>
      <point x="902" y="211"/>
      <point x="857" y="237"/>
      <point x="793" y="237" type="curve" smooth="yes"/>
      <point x="730" y="237"/>
      <point x="684" y="188"/>
      <point x="683" y="131" type="curve" smooth="yes"/>
      <point x="682" y="64"/>
      <point x="711" y="11"/>
      <point x="807" y="-66" type="curve"/>
      <point x="729" y="-115" type="line"/>
      <point x="625" y="-30"/>
      <point x="574" y="51"/>
      <point x="574" y="148" type="curve" smooth="yes"/>
      <point x="574" y="251"/>
      <point x="651" y="335"/>
      <point x="773" y="335" type="curve" smooth="yes"/>
      <point x="878" y="335"/>
      <point x="946" y="292"/>
    </contour>
    <contour>
      <point x="1467" y="1166" type="line"/>
      <point x="-17" y="1166" type="line"/>
      <point x="-17" y="1278" type="line"/>
      <point x="1467" y="1278" type="line"/>
    </contour>
    <contour>
      <point x="1068" y="1176" type="line"/>
      <point x="1219" y="1176" type="line"/>
      <point x="1219" y="845" type="line"/>
      <point x="436" y="845" type="line"/>
      <point x="300" y="845"/>
      <point x="257" y="780"/>
      <point x="257" y="712" type="curve" smooth="yes"/>
      <point x="257" y="657"/>
      <point x="299" y="592"/>
      <point x="422" y="536" type="curve"/>
      <point x="325" y="452" type="line"/>
      <point x="182" y="536"/>
      <point x="116" y="628"/>
      <point x="116" y="741" type="curve" smooth="yes"/>
      <point x="116" y="855"/>
      <point x="197" y="957"/>
      <point x="390" y="957" type="curve" smooth="yes"/>
      <point x="1107" y="957" type="line"/>
      <point x="1068" y="904" type="line"/>
    </contour>
    <contour>
      <point x="724" y="507" type="curve" smooth="yes"/>
      <point x="441" y="507"/>
      <point x="308" y="351"/>
      <point x="308" y="171" type="curve" smooth="yes"/>
      <point x="308" y="17"/>
      <point x="412" y="-136"/>
      <point x="710" y="-331" type="curve"/>
      <point x="623" y="-412" type="line"/>
      <point x="302" y="-203"/>
      <point x="177" y="-12"/>
      <point x="177" y="197" type="curve" smooth="yes"/>
      <point x="177" y="419"/>
      <point x="346" y="629"/>
      <point x="710" y="629" type="curve" smooth="yes"/>
      <point x="1096" y="629"/>
      <point x="1289" y="455"/>
      <point x="1289" y="209" type="curve" smooth="yes"/>
      <point x="1289" y="-211" type="line"/>
      <point x="1150" y="-211" type="line"/>
      <point x="1150" y="228" type="line"/>
      <point x="1150" y="394"/>
      <point x="997" y="507"/>
    </contour>
    <contour>
      <point x="1162" y="1252" type="move" name="mark0"/>
    </contour>
  </outline>
</glyph>
<glyph name="hamadeva" format="1">
  <advance width="1760"/>
  <outline>
    <contour>
      <point x="314" y="198" type="curve" smooth="yes"/>
      <point x="314" y="43"/>
      <point x="405" y="-94"/>
      <point x="654" y="-281" type="curve"/>
      <point x="567" y="-361" type="line"/>
      <point x="297" y="-163"/>
      <point x="184" y="11"/>
      <point x="184" y="222" type="curve" smooth="yes"/>
      <point x="184" y="446"/>
      <point x="340" y="618"/>
      <point x="599" y="618" type="curve" smooth="yes"/>
      <point x="861" y="618"/>
      <point x="1023" y="460"/>
      <point x="1023" y="225" type="curve" smooth="yes"/>
      <point x="1023" y="112" type="line"/>
      <point x="980" y="155" type="line"/>
      <point x="1435" y="155" type="line"/>
      <point x="1435" y="32" type="line"/>
      <point x="988" y="32" type="line"/>
      <point x="1023" y="61" type="line"/>
      <point x="1023" y="-71" type="line"/>
      <point x="1023" y="-114"/>
      <point x="1006" y="-135"/>
      <point x="963" y="-135" type="curve" smooth="yes"/>
      <point x="903" y="-135"/>
      <point x="745" y="29"/>
      <point x="745" y="97" type="curve" smooth="yes"/>
      <point x="745" y="131"/>
      <point x="765" y="154"/>
      <point x="812" y="154" type="curve" smooth="yes"/>
      <point x="912" y="154" type="line"/>
      <point x="885" y="117" type="line"/>
      <point x="885" y="247" type="line"/>
      <point x="885" y="407"/>
      <point x="773" y="498"/>
      <point x="606" y="498" type="curve" smooth="yes"/>
      <point x="436" y="498"/>
      <point x="314" y="381"/>
    </contour>
    <contour>
      <point x="826" y="1176" type="line"/>
      <point x="977" y="1176" type="line"/>
      <point x="977" y="845" type="line"/>
      <point x="452" y="845" type="line"/>
      <point x="309" y="845"/>
      <point x="260" y="787"/>
      <point x="260" y="711" type="curve" smooth="yes"/>
      <point x="260" y="643"/>
      <point x="303" y="592"/>
      <point x="423" y="536" type="curve"/>
      <point x="328" y="459" type="line"/>
      <point x="198" y="527"/>
      <point x="116" y="621"/>
      <point x="116" y="744" type="curve" smooth="yes"/>
      <point x="116" y="869"/>
      <point x="210" y="957"/>
      <point x="397" y="957" type="curve" smooth="yes"/>
      <point x="865" y="957" type="line"/>
      <point x="826" y="904" type="line"/>
    </contour>
    <contour>
      <point x="-14" y="1166" type="line"/>
      <point x="-14" y="1278" type="line"/>
      <point x="1772" y="1278" type="line"/>
      <point x="1772" y="1166" type="line"/>
    </contour>
    <contour>
      <point x="1374" y="1197" type="line"/>
      <point x="1524" y="1197" type="line"/>
      <point x="1524" y="-328" type="line"/>
      <point x="1374" y="-328" type="line"/>
    </contour>
  </outline>
</glyph>
<glyph name="hanadeva" format="1">
  <advance width="1372"/>
  <outline>
    <contour>
      <point x="308" y="174" type="curve" smooth="yes"/>
      <point x="308" y="15"/>
      <point x="417" y="-140"/>
      <point x="710" y="-331" type="curve"/>
      <point x="623" y="-412" type="line"/>
      <point x="305" y="-204"/>
      <point x="178" y="-17"/>
      <point x="178" y="200" type="curve" smooth="yes"/>
      <point x="178" y="421"/>
      <point x="350" y="629"/>
      <point x="690" y="629" type="curve" smooth="yes"/>
      <point x="1065" y="629"/>
      <point x="1252" y="455"/>
      <point x="1252" y="209" type="curve" smooth="yes"/>
      <point x="1252" y="-211" type="line"/>
      <point x="1112" y="-211" type="line"/>
      <point x="1112" y="228" type="line"/>
      <point x="1112" y="394"/>
      <point x="966" y="507"/>
      <point x="704" y="507" type="curve" smooth="yes"/>
      <point x="444" y="507"/>
      <point x="308" y="357"/>
    </contour>
    <contour>
      <point x="1400" y="1166" type="line"/>
      <point x="-17" y="1166" type="line"/>
      <point x="-17" y="1278" type="line"/>
      <point x="1400" y="1278" type="line"/>
    </contour>
    <contour>
      <point x="1015" y="1176" type="line"/>
      <point x="1165" y="1176" type="line"/>
      <point x="1165" y="845" type="line"/>
      <point x="436" y="845" type="line"/>
      <point x="300" y="845"/>
      <point x="257" y="780"/>
      <point x="257" y="712" type="curve" smooth="yes"/>
      <point x="257" y="657"/>
      <point x="299" y="592"/>
      <point x="422" y="536" type="curve"/>
      <point x="325" y="452" type="line"/>
      <point x="182" y="536"/>
      <point x="116" y="628"/>
      <point x="116" y="741" type="curve" smooth="yes"/>
      <point x="116" y="855"/>
      <point x="197" y="957"/>
      <point x="390" y="957" type="curve" smooth="yes"/>
      <point x="1054" y="957" type="line"/>
      <point x="1015" y="904" type="line"/>
    </contour>
    <contour>
      <point x="1187" y="260" type="line"/>
      <point x="1187" y="143" type="line"/>
      <point x="769" y="143" type="line"/>
      <point x="803" y="170" type="line"/>
      <point x="803" y="-6" type="line"/>
      <point x="803" y="-43"/>
      <point x="782" y="-69"/>
      <point x="747" y="-69" type="curve" smooth="yes"/>
      <point x="699" y="-69"/>
      <point x="616" y="104"/>
      <point x="616" y="192" type="curve" smooth="yes"/>
      <point x="616" y="233"/>
      <point x="637" y="260"/>
      <point x="693" y="260" type="curve" smooth="yes"/>
    </contour>
    <contour>
      <point x="973" y="1252" type="move" name="mark0"/>
    </contour>
  </outline>
</glyph>
<glyph name="hannadeva" format="1">
  <advance width="1423"/>
  <outline>
    <contour>
      <point x="861" y="526" type="line"/>
      <point x="985" y="526" type="line"/>
      <point x="985" y="221" type="line"/>
      <point x="985" y="74"/>
      <point x="930" y="-35"/>
      <point x="764" y="-38" type="curve" smooth="yes"/>
      <point x="602" y="-40"/>
      <point x="524" y="72"/>
      <point x="524" y="244" type="curve" smooth="yes"/>
      <point x="524" y="526" type="line"/>
      <point x="648" y="526" type="line"/>
      <point x="648" y="203" type="line"/>
      <point x="648" y="128"/>
      <point x="676" y="65"/>
      <point x="748" y="65" type="curve" smooth="yes"/>
      <point x="827" y="65"/>
      <point x="861" y="121"/>
      <point x="861" y="217" type="curve" smooth="yes"/>
    </contour>
    <contour>
      <point x="1467" y="1166" type="line"/>
      <point x="-17" y="1166" type="line"/>
      <point x="-17" y="1278" type="line"/>
      <point x="1467" y="1278" type="line"/>
    </contour>
    <contour>
      <point x="1077" y="1176" type="line"/>
      <point x="1227" y="1176" type="line"/>
      <point x="1227" y="845" type="line"/>
      <point x="436" y="845" type="line"/>
      <point x="300" y="845"/>
      <point x="257" y="780"/>
      <point x="257" y="712" type="curve" smooth="yes"/>
      <point x="257" y="657"/>
      <point x="299" y="592"/>
      <point x="422" y="536" type="curve"/>
      <point x="325" y="452" type="line"/>
      <point x="182" y="536"/>
      <point x="116" y="628"/>
      <point x="116" y="741" type="curve" smooth="yes"/>
      <point x="116" y="855"/>
      <point x="197" y="957"/>
      <point x="390" y="957" type="curve" smooth="yes"/>
      <point x="1116" y="957" type="line"/>
      <point x="1077" y="904" type="line"/>
    </contour>
    <contour>
      <point x="724" y="507" type="curve" smooth="yes"/>
      <point x="441" y="507"/>
      <point x="310" y="352"/>
      <point x="310" y="171" type="curve" smooth="yes"/>
      <point x="310" y="16"/>
      <point x="412" y="-136"/>
      <point x="713" y="-331" type="curve"/>
      <point x="625" y="-412" type="line"/>
      <point x="302" y="-203"/>
      <point x="180" y="-12"/>
      <point x="180" y="197" type="curve" smooth="yes"/>
      <point x="180" y="423"/>
      <point x="348" y="629"/>
      <point x="710" y="629" type="curve" smooth="yes"/>
      <point x="1096" y="629"/>
      <point x="1289" y="455"/>
      <point x="1289" y="209" type="curve" smooth="yes"/>
      <point x="1289" y="-211" type="line"/>
      <point x="1150" y="-211" type="line"/>
      <point x="1150" y="228" type="line"/>
      <point x="1150" y="394"/>
      <point x="997" y="507"/>
    </contour>
    <contour>
      <point x="1124" y="1252" type="move" name="mark0"/>
    </contour>
  </outline>
</glyph>
<glyph name="haradeva" format="1">
  <advance width="1120"/>
  <outline>
    <contour>
      <point x="883" y="493" type="line"/>
      <point x="612" y="114" type="line"/>
      <point x="504" y="170" type="line"/>
      <point x="778" y="547" type="line"/>
    </contour>
    <contour>
      <point x="637" y="624" type="curve" smooth="yes"/>
      <point x="889" y="624"/>
      <point x="1038" y="483"/>
      <point x="1038" y="318" type="curve" smooth="yes"/>
      <point x="1038" y="246"/>
      <point x="1021" y="178"/>
      <point x="989" y="112" type="curve"/>
      <point x="870" y="146" type="line"/>
      <point x="897" y="201"/>
      <point x="910" y="254"/>
      <point x="910" y="321" type="curve" smooth="yes"/>
      <point x="910" y="420"/>
      <point x="812" y="508"/>
      <point x="654" y="508" type="curve" smooth="yes"/>
      <point x="438" y="508"/>
      <point x="327" y="400"/>
      <point x="327" y="250" type="curve" smooth="yes"/>
      <point x="327" y="79"/>
      <point x="491" y="-64"/>
      <point x="884" y="-114" type="curve"/>
      <point x="855" y="-220" type="line"/>
      <point x="406" y="-173"/>
      <point x="191" y="21"/>
      <point x="191" y="272" type="curve" smooth="yes"/>
      <point x="191" y="465"/>
      <point x="336" y="624"/>
    </contour>
    <contour>
      <point x="1157" y="1166" type="line"/>
      <point x="-19" y="1166" type="line"/>
      <point x="-19" y="1278" type="line"/>
      <point x="1157" y="1278" type="line"/>
    </contour>
    <contour>
      <point x="852" y="1176" type="line"/>
      <point x="1003" y="1176" type="line"/>
      <point x="1003" y="845" type="line"/>
      <point x="448" y="845" type="line"/>
      <point x="305" y="845"/>
      <point x="256" y="787"/>
      <point x="256" y="711" type="curve" smooth="yes"/>
      <point x="256" y="643"/>
      <point x="299" y="592"/>
      <point x="419" y="536" type="curve"/>
      <point x="324" y="459" type="line"/>
      <point x="194" y="527"/>
      <point x="112" y="621"/>
      <point x="112" y="744" type="curve" smooth="yes"/>
      <point x="112" y="869"/>
      <point x="206" y="957"/>
      <point x="393" y="957" type="curve" smooth="yes"/>
      <point x="891" y="957" type="line"/>
      <point x="852" y="904" type="line"/>
    </contour>
  </outline>
</glyph>
<glyph name="harauuUIdeva" format="1">
  <advance width="1441"/>
  <outline>
    <contour>
      <point x="489" y="250" type="curve" smooth="yes"/>
      <point x="489" y="161"/>
      <point x="554" y="103"/>
      <point x="665" y="46" type="curve"/>
      <point x="665" y="60" type="line"/>
      <point x="523" y="241" type="line"/>
      <point x="864" y="361" type="line"/>
      <point x="864" y="375" type="line"/>
      <point x="828" y="382"/>
      <point x="784" y="385"/>
      <point x="741" y="385" type="curve" smooth="yes"/>
      <point x="578" y="385"/>
      <point x="489" y="333"/>
    </contour>
    <contour>
      <point x="217" y="-255" type="curve" smooth="yes"/>
      <point x="217" y="-179"/>
      <point x="251" y="-112"/>
      <point x="321" y="-51" type="curve"/>
      <point x="321" y="-41" type="line"/>
      <point x="177" y="62"/>
      <point x="106" y="163"/>
      <point x="106" y="288" type="curve" smooth="yes"/>
      <point x="106" y="348"/>
      <point x="145" y="413"/>
      <point x="214" y="471" type="curve"/>
      <point x="214" y="481" type="line"/>
      <point x="158" y="543"/>
      <point x="134" y="605"/>
      <point x="134" y="671" type="curve" smooth="yes"/>
      <point x="134" y="756"/>
      <point x="184" y="823"/>
      <point x="260" y="873" type="curve" smooth="yes"/>
      <point x="293" y="895"/>
      <point x="344" y="912"/>
      <point x="403" y="924" type="curve"/>
      <point x="452" y="932"/>
      <point x="520" y="937"/>
      <point x="607" y="937" type="curve"/>
      <point x="869" y="937" type="line"/>
      <point x="869" y="1036" type="line"/>
      <point x="8" y="1036" type="line"/>
      <point x="8" y="1274" type="line"/>
      <point x="1457" y="1274" type="line"/>
      <point x="1457" y="1036" type="line"/>
      <point x="1248" y="1036" type="line"/>
      <point x="1248" y="715" type="line"/>
      <point x="612" y="715" type="line"/>
      <point x="576" y="715"/>
      <point x="553" y="712"/>
      <point x="533" y="706" type="curve" smooth="yes"/>
      <point x="517" y="700"/>
      <point x="509" y="677"/>
      <point x="509" y="640" type="curve" smooth="yes"/>
      <point x="509" y="620"/>
      <point x="512" y="604"/>
      <point x="518" y="592" type="curve"/>
      <point x="593" y="603"/>
      <point x="669" y="608"/>
      <point x="748" y="608" type="curve" smooth="yes"/>
      <point x="936" y="608"/>
      <point x="1080" y="573"/>
      <point x="1176" y="509" type="curve"/>
      <point x="1280" y="438"/>
      <point x="1339" y="341"/>
      <point x="1339" y="233" type="curve" smooth="yes"/>
      <point x="1339" y="193"/>
      <point x="1331" y="136"/>
      <point x="1321" y="87" type="curve"/>
      <point x="1311" y="47"/>
      <point x="1292" y="-7"/>
      <point x="1265" y="-60" type="curve"/>
      <point x="949" y="39" type="line"/>
      <point x="971" y="88"/>
      <point x="985" y="139"/>
      <point x="990" y="185" type="curve"/>
      <point x="990" y="195" type="line"/>
      <point x="898" y="158" type="line"/>
      <point x="823" y="127"/>
      <point x="735" y="91"/>
      <point x="663" y="61" type="curve"/>
      <point x="663" y="46" type="line"/>
      <point x="807" y="45"/>
      <point x="932" y="16"/>
      <point x="1041" y="-42" type="curve"/>
      <point x="1041" y="-41" type="line"/>
      <point x="1164" y="-110"/>
      <point x="1285" y="-209"/>
      <point x="1401" y="-351" type="curve"/>
      <point x="1134" y="-502" type="line"/>
      <point x="965" y="-272"/>
      <point x="821" y="-173"/>
      <point x="674" y="-173" type="curve" smooth="yes"/>
      <point x="603" y="-173"/>
      <point x="563" y="-200"/>
      <point x="563" y="-251" type="curve" smooth="yes"/>
      <point x="563" y="-298"/>
      <point x="593" y="-322"/>
      <point x="648" y="-322" type="curve" smooth="yes"/>
      <point x="692" y="-322"/>
      <point x="754" y="-306"/>
      <point x="844" y="-271" type="curve"/>
      <point x="926" y="-486" type="line"/>
      <point x="820" y="-523"/>
      <point x="721" y="-541"/>
      <point x="635" y="-541" type="curve" smooth="yes"/>
      <point x="507" y="-541"/>
      <point x="406" y="-512"/>
      <point x="337" y="-460" type="curve"/>
      <point x="338" y="-460" type="line"/>
      <point x="260" y="-400"/>
      <point x="217" y="-328"/>
    </contour>
  </outline>
</glyph>
<glyph name="harvocalicdeva" format="1">
  <advance width="1106"/>
  <outline>
    <contour>
      <point x="1143" y="1166" type="line"/>
      <point x="-19" y="1166" type="line"/>
      <point x="-19" y="1278" type="line"/>
      <point x="1143" y="1278" type="line"/>
    </contour>
    <contour>
      <point x="760" y="1176" type="line"/>
      <point x="910" y="1176" type="line"/>
      <point x="910" y="845" type="line"/>
      <point x="448" y="845" type="line"/>
      <point x="305" y="845"/>
      <point x="256" y="787"/>
      <point x="256" y="711" type="curve" smooth="yes"/>
      <point x="256" y="643"/>
      <point x="299" y="592"/>
      <point x="419" y="536" type="curve"/>
      <point x="324" y="459" type="line"/>
      <point x="194" y="527"/>
      <point x="112" y="621"/>
      <point x="112" y="744" type="curve" smooth="yes"/>
      <point x="112" y="869"/>
      <point x="206" y="957"/>
      <point x="393" y="957" type="curve" smooth="yes"/>
      <point x="799" y="957" type="line"/>
      <point x="760" y="904" type="line"/>
    </contour>
    <contour>
      <point x="1034" y="289" type="curve"/>
      <point x="941" y="289" type="line"/>
      <point x="808" y="289"/>
      <point x="752" y="216"/>
      <point x="752" y="154" type="curve" smooth="yes"/>
      <point x="752" y="83"/>
      <point x="811" y="40"/>
      <point x="903" y="40" type="curve" smooth="yes"/>
      <point x="960" y="40"/>
      <point x="1003" y="49"/>
      <point x="1078" y="80" type="curve"/>
      <point x="1099" y="-15" type="line"/>
      <point x="1022" y="-44"/>
      <point x="972" y="-55"/>
      <point x="900" y="-55" type="curve" smooth="yes"/>
      <point x="747" y="-55"/>
      <point x="633" y="30"/>
      <point x="633" y="162" type="curve" smooth="yes"/>
      <point x="633" y="285"/>
      <point x="736" y="375"/>
      <point x="939" y="375" type="curve"/>
      <point x="911" y="339" type="line"/>
      <point x="911" y="427"/>
      <point x="807" y="501"/>
      <point x="632" y="501" type="curve" smooth="yes"/>
      <point x="451" y="501"/>
      <point x="327" y="393"/>
      <point x="327" y="245" type="curve" smooth="yes"/>
      <point x="327" y="82"/>
      <point x="429" y="-36"/>
      <point x="679" y="-195" type="curve"/>
      <point x="606" y="-282" type="line"/>
      <point x="351" y="-120"/>
      <point x="191" y="46"/>
      <point x="191" y="272" type="curve" smooth="yes"/>
      <point x="191" y="467"/>
      <point x="352" y="619"/>
      <point x="621" y="619" type="curve" smooth="yes"/>
      <point x="875" y="619"/>
      <point x="1036" y="489"/>
      <point x="1036" y="334" type="curve" smooth="yes"/>
      <point x="1036" y="315"/>
      <point x="1035" y="301"/>
    </contour>
  </outline>
</glyph>
<glyph name="haudeva" format="1">
  <advance width="1106"/>
  <outline>
    <contour>
      <point x="601" y="619" type="curve" smooth="yes"/>
      <point x="839" y="619"/>
      <point x="969" y="486"/>
      <point x="969" y="334" type="curve" smooth="yes"/>
      <point x="969" y="249"/>
      <point x="941" y="178"/>
      <point x="899" y="110" type="curve"/>
      <point x="776" y="144" type="line"/>
      <point x="814" y="200"/>
      <point x="836" y="258"/>
      <point x="836" y="335" type="curve" smooth="yes"/>
      <point x="836" y="414"/>
      <point x="761" y="500"/>
      <point x="611" y="500" type="curve" smooth="yes"/>
      <point x="441" y="500"/>
      <point x="331" y="400"/>
      <point x="331" y="257" type="curve" smooth="yes"/>
      <point x="331" y="85"/>
      <point x="491" y="-31"/>
      <point x="758" y="-84" type="curve"/>
      <point x="694" y="-184" type="line"/>
      <point x="413" y="-132"/>
      <point x="191" y="21"/>
      <point x="191" y="272" type="curve" smooth="yes"/>
      <point x="191" y="467"/>
      <point x="338" y="619"/>
    </contour>
    <contour>
      <point x="1143" y="1166" type="line"/>
      <point x="-19" y="1166" type="line"/>
      <point x="-19" y="1278" type="line"/>
      <point x="1143" y="1278" type="line"/>
    </contour>
    <contour>
      <point x="760" y="1176" type="line"/>
      <point x="910" y="1176" type="line"/>
      <point x="910" y="845" type="line"/>
      <point x="448" y="845" type="line"/>
      <point x="305" y="845"/>
      <point x="256" y="787"/>
      <point x="256" y="711" type="curve" smooth="yes"/>
      <point x="256" y="643"/>
      <point x="299" y="592"/>
      <point x="419" y="536" type="curve"/>
      <point x="324" y="459" type="line"/>
      <point x="194" y="527"/>
      <point x="112" y="621"/>
      <point x="112" y="744" type="curve" smooth="yes"/>
      <point x="112" y="869"/>
      <point x="206" y="957"/>
      <point x="393" y="957" type="curve" smooth="yes"/>
      <point x="799" y="957" type="line"/>
      <point x="760" y="904" type="line"/>
    </contour>
    <component base="uvowelsigndeva" xOffset="1029" yOffset="-87"/>
  </outline>
</glyph>
<glyph name="hauudeva" format="1">
  <advance width="1106"/>
  <outline>
    <contour>
      <point x="601" y="619" type="curve" smooth="yes"/>
      <point x="839" y="619"/>
      <point x="969" y="486"/>
      <point x="969" y="334" type="curve" smooth="yes"/>
      <point x="969" y="249"/>
      <point x="941" y="178"/>
      <point x="899" y="110" type="curve"/>
      <point x="776" y="144" type="line"/>
      <point x="814" y="200"/>
      <point x="836" y="258"/>
      <point x="836" y="335" type="curve" smooth="yes"/>
      <point x="836" y="414"/>
      <point x="761" y="500"/>
      <point x="611" y="500" type="curve" smooth="yes"/>
      <point x="441" y="500"/>
      <point x="331" y="400"/>
      <point x="331" y="257" type="curve" smooth="yes"/>
      <point x="331" y="85"/>
      <point x="488" y="-18"/>
      <point x="689" y="-69" type="curve"/>
      <point x="710" y="-183" type="line"/>
      <point x="405" y="-130"/>
      <point x="191" y="21"/>
      <point x="191" y="272" type="curve" smooth="yes"/>
      <point x="191" y="467"/>
      <point x="338" y="619"/>
    </contour>
    <contour>
      <point x="1143" y="1166" type="line"/>
      <point x="-19" y="1166" type="line"/>
      <point x="-19" y="1278" type="line"/>
      <point x="1143" y="1278" type="line"/>
    </contour>
    <contour>
      <point x="760" y="1176" type="line"/>
      <point x="910" y="1176" type="line"/>
      <point x="910" y="845" type="line"/>
      <point x="448" y="845" type="line"/>
      <point x="305" y="845"/>
      <point x="256" y="787"/>
      <point x="256" y="711" type="curve" smooth="yes"/>
      <point x="256" y="643"/>
      <point x="299" y="592"/>
      <point x="419" y="536" type="curve"/>
      <point x="324" y="459" type="line"/>
      <point x="194" y="527"/>
      <point x="112" y="621"/>
      <point x="112" y="744" type="curve" smooth="yes"/>
      <point x="112" y="869"/>
      <point x="206" y="957"/>
      <point x="393" y="957" type="curve" smooth="yes"/>
      <point x="799" y="957" type="line"/>
      <point x="760" y="904" type="line"/>
    </contour>
    <component base="uuvowelsigndeva" xOffset="876" yOffset="-71"/>
  </outline>
</glyph>
<glyph name="havadeva" format="1">
  <advance width="1404"/>
  <outline>
    <contour>
      <point x="716" y="629" type="curve" smooth="yes"/>
      <point x="1071" y="629"/>
      <point x="1247" y="454"/>
      <point x="1247" y="209" type="curve" smooth="yes"/>
      <point x="1247" y="-211" type="line"/>
      <point x="1108" y="-211" type="line"/>
      <point x="1108" y="228" type="line"/>
      <point x="1108" y="386"/>
      <point x="981" y="507"/>
      <point x="732" y="507" type="curve" smooth="yes"/>
      <point x="456" y="507"/>
      <point x="308" y="351"/>
      <point x="308" y="171" type="curve" smooth="yes"/>
      <point x="308" y="17"/>
      <point x="412" y="-136"/>
      <point x="710" y="-331" type="curve"/>
      <point x="623" y="-412" type="line"/>
      <point x="302" y="-203"/>
      <point x="177" y="-12"/>
      <point x="177" y="197" type="curve" smooth="yes"/>
      <point x="177" y="419"/>
      <point x="364" y="629"/>
    </contour>
    <contour>
      <point x="1416" y="1166" type="line"/>
      <point x="-17" y="1166" type="line"/>
      <point x="-17" y="1278" type="line"/>
      <point x="1416" y="1278" type="line"/>
    </contour>
    <contour>
      <point x="1026" y="1176" type="line"/>
      <point x="1176" y="1176" type="line"/>
      <point x="1176" y="845" type="line"/>
      <point x="436" y="845" type="line"/>
      <point x="300" y="845"/>
      <point x="257" y="780"/>
      <point x="257" y="712" type="curve" smooth="yes"/>
      <point x="257" y="657"/>
      <point x="299" y="592"/>
      <point x="422" y="536" type="curve"/>
      <point x="325" y="452" type="line"/>
      <point x="182" y="536"/>
      <point x="116" y="628"/>
      <point x="116" y="741" type="curve" smooth="yes"/>
      <point x="116" y="855"/>
      <point x="197" y="957"/>
      <point x="390" y="957" type="curve" smooth="yes"/>
      <point x="1065" y="957" type="line"/>
      <point x="1026" y="904" type="line"/>
    </contour>
    <contour>
      <point x="1121" y="87" type="curve"/>
      <point x="1121" y="-39" type="line"/>
      <point x="1061" y="-83"/>
      <point x="993" y="-108"/>
      <point x="898" y="-108" type="curve" smooth="yes"/>
      <point x="728" y="-108"/>
      <point x="610" y="8"/>
      <point x="610" y="137" type="curve" smooth="yes"/>
      <point x="610" y="258"/>
      <point x="703" y="343"/>
      <point x="863" y="343" type="curve" smooth="yes"/>
      <point x="983" y="343"/>
      <point x="1064" y="316"/>
      <point x="1138" y="277" type="curve"/>
      <point x="1137" y="186" type="line"/>
      <point x="1050" y="230"/>
      <point x="990" y="248"/>
      <point x="901" y="248" type="curve" smooth="yes"/>
      <point x="781" y="248"/>
      <point x="728" y="190"/>
      <point x="728" y="116" type="curve" smooth="yes"/>
      <point x="728" y="37"/>
      <point x="807" y="-13"/>
      <point x="890" y="-13" type="curve" smooth="yes"/>
      <point x="987" y="-13"/>
      <point x="1051" y="19"/>
    </contour>
    <contour>
      <point x="1114" y="1252" type="move" name="mark0"/>
    </contour>
  </outline>
</glyph>
<glyph name="hayadeva" format="1">
  <advance width="1767"/>
  <outline>
    <contour>
      <point x="310" y="198" type="curve" smooth="yes"/>
      <point x="310" y="43"/>
      <point x="401" y="-94"/>
      <point x="650" y="-281" type="curve"/>
      <point x="565" y="-363" type="line"/>
      <point x="287" y="-157"/>
      <point x="179" y="15"/>
      <point x="179" y="222" type="curve" smooth="yes"/>
      <point x="179" y="447"/>
      <point x="356" y="620"/>
      <point x="649" y="620" type="curve" smooth="yes"/>
      <point x="925" y="620"/>
      <point x="1065" y="465"/>
      <point x="1065" y="334" type="curve" smooth="yes"/>
      <point x="1065" y="223"/>
      <point x="994" y="120"/>
      <point x="778" y="67" type="curve"/>
      <point x="782" y="119" type="line"/>
      <point x="861" y="5"/>
      <point x="955" y="-56"/>
      <point x="1086" y="-56" type="curve" smooth="yes"/>
      <point x="1237" y="-56"/>
      <point x="1350" y="27"/>
      <point x="1430" y="166" type="curve"/>
      <point x="1430" y="-29" type="line"/>
      <point x="1356" y="-120"/>
      <point x="1262" y="-180"/>
      <point x="1115" y="-180" type="curve" smooth="yes"/>
      <point x="926" y="-180"/>
      <point x="746" y="-72"/>
      <point x="640" y="133" type="curve"/>
      <point x="640" y="139" type="line"/>
      <point x="878" y="189"/>
      <point x="929" y="263"/>
      <point x="929" y="337" type="curve" smooth="yes"/>
      <point x="929" y="415"/>
      <point x="827" y="503"/>
      <point x="652" y="503" type="curve" smooth="yes"/>
      <point x="451" y="503"/>
      <point x="310" y="380"/>
    </contour>
    <contour>
      <point x="1780" y="1166" type="line"/>
      <point x="-19" y="1166" type="line"/>
      <point x="-19" y="1278" type="line"/>
      <point x="1780" y="1278" type="line"/>
    </contour>
    <contour>
      <point x="861" y="1176" type="line"/>
      <point x="1012" y="1176" type="line"/>
      <point x="1012" y="845" type="line"/>
      <point x="448" y="845" type="line"/>
      <point x="305" y="845"/>
      <point x="256" y="787"/>
      <point x="256" y="711" type="curve" smooth="yes"/>
      <point x="256" y="643"/>
      <point x="299" y="592"/>
      <point x="419" y="536" type="curve"/>
      <point x="324" y="459" type="line"/>
      <point x="194" y="527"/>
      <point x="112" y="621"/>
      <point x="112" y="744" type="curve" smooth="yes"/>
      <point x="112" y="869"/>
      <point x="206" y="957"/>
      <point x="393" y="957" type="curve" smooth="yes"/>
      <point x="900" y="957" type="line"/>
      <point x="861" y="904" type="line"/>
    </contour>
    <contour>
      <point x="1381" y="1197" type="line"/>
      <point x="1532" y="1197" type="line"/>
      <point x="1532" y="-361" type="line"/>
      <point x="1381" y="-361" type="line"/>
    </contour>
  </outline>
</glyph>
<glyph name="iivowelsign2deva" format="1">
  <advance width="593"/>
  <outline>
    <contour>
      <point x="208" y="1239" type="line"/>
      <point x="116" y="1484"/>
      <point x="-130" y="1662"/>
      <point x="-347" y="1662" type="curve" smooth="yes"/>
      <point x="-472" y="1662"/>
      <point x="-535" y="1596"/>
      <point x="-535" y="1508" type="curve" smooth="yes"/>
      <point x="-535" y="1428"/>
      <point x="-490" y="1353"/>
      <point x="-396" y="1258" type="curve"/>
      <point x="-548" y="1258" type="line"/>
      <point x="-616" y="1331"/>
      <point x="-677" y="1431"/>
      <point x="-677" y="1551" type="curve" smooth="yes"/>
      <point x="-677" y="1668"/>
      <point x="-579" y="1793"/>
      <point x="-371" y="1793" type="curve" smooth="yes"/>
      <point x="-82" y="1793"/>
      <point x="220" y="1591"/>
      <point x="354" y="1239" type="curve"/>
    </contour>
    <component base="aavowelsigndeva"/>
  </outline>
</glyph>
<glyph name="iivowelsign3deva" format="1">
  <advance width="593"/>
  <outline>
    <contour>
      <point x="206" y="1239" type="line"/>
      <point x="-30" y="1528"/>
      <point x="-277" y="1662"/>
      <point x="-542" y="1662" type="curve" smooth="yes"/>
      <point x="-705" y="1662"/>
      <point x="-777" y="1584"/>
      <point x="-777" y="1487" type="curve" smooth="yes"/>
      <point x="-777" y="1409"/>
      <point x="-734" y="1345"/>
      <point x="-640" y="1258" type="curve"/>
      <point x="-792" y="1258" type="line"/>
      <point x="-860" y="1323"/>
      <point x="-919" y="1410"/>
      <point x="-919" y="1530" type="curve" smooth="yes"/>
      <point x="-919" y="1655"/>
      <point x="-812" y="1793"/>
      <point x="-566" y="1793" type="curve" smooth="yes"/>
      <point x="-231" y="1793"/>
      <point x="84" y="1630"/>
      <point x="368" y="1239" type="curve"/>
    </contour>
    <component base="aavowelsigndeva"/>
  </outline>
</glyph>
<glyph name="ivowelsign00deva" format="1">
  <advance width="593"/>
  <outline>
    <contour>
      <point x="207" y="1254" type="line"/>
      <point x="207" y="1356" type="line"/>
      <point x="207" y="1595"/>
      <point x="359" y="1744"/>
      <point x="765" y="1744" type="curve" smooth="yes"/>
      <point x="1509" y="1744"/>
      <point x="2138" y="1530"/>
      <point x="2617" y="1258" type="curve"/>
      <point x="2405" y="1258" type="line"/>
      <point x="1928" y="1471"/>
      <point x="1421" y="1614"/>
      <point x="792" y="1614" type="curve" smooth="yes"/>
      <point x="454" y="1614"/>
      <point x="357" y="1511"/>
      <point x="357" y="1344" type="curve" smooth="yes"/>
      <point x="357" y="1254" type="line"/>
    </contour>
    <component base="aavowelsigndeva"/>
  </outline>
</glyph>
<glyph name="ivowelsign02deva" format="1">
  <advance width="593"/>
  <outline>
    <contour>
      <point x="207" y="1254" type="line"/>
      <point x="207" y="1385" type="line"/>
      <point x="207" y="1594"/>
      <point x="305" y="1734"/>
      <point x="554" y="1735" type="curve" smooth="yes"/>
      <point x="856" y="1738"/>
      <point x="1167" y="1538"/>
      <point x="1406" y="1258" type="curve"/>
      <point x="1235" y="1258" type="line"/>
      <point x="1010" y="1482"/>
      <point x="775" y="1602"/>
      <point x="579" y="1602" type="curve" smooth="yes"/>
      <point x="419" y="1602"/>
      <point x="357" y="1516"/>
      <point x="357" y="1371" type="curve" smooth="yes"/>
      <point x="357" y="1254" type="line"/>
    </contour>
    <component base="aavowelsigndeva"/>
  </outline>
</glyph>
<glyph name="ivowelsign03deva" format="1">
  <advance width="567"/>
  <outline>
    <contour>
      <point x="205" y="1254" type="line"/>
      <point x="205" y="1378" type="line"/>
      <point x="205" y="1583"/>
      <point x="313" y="1734"/>
      <point x="589" y="1734" type="curve" smooth="yes"/>
      <point x="905" y="1734"/>
      <point x="1264" y="1546"/>
      <point x="1510" y="1258" type="curve"/>
      <point x="1343" y="1258" type="line"/>
      <point x="1110" y="1481"/>
      <point x="837" y="1600"/>
      <point x="610" y="1600" type="curve" smooth="yes"/>
      <point x="430" y="1600"/>
      <point x="355" y="1520"/>
      <point x="355" y="1364" type="curve" smooth="yes"/>
      <point x="355" y="1254" type="line"/>
    </contour>
    <component base="aavowelsigndeva"/>
  </outline>
</glyph>
<glyph name="ivowelsign04deva" format="1">
  <advance width="593"/>
  <outline>
    <contour>
      <point x="207" y="1254" type="line"/>
      <point x="207" y="1356" type="line"/>
      <point x="207" y="1595"/>
      <point x="349" y="1744"/>
      <point x="672" y="1744" type="curve" smooth="yes"/>
      <point x="1055" y="1744"/>
      <point x="1447" y="1517"/>
      <point x="1688" y="1258" type="curve"/>
      <point x="1510" y="1258" type="line"/>
      <point x="1277" y="1457"/>
      <point x="978" y="1609"/>
      <point x="683" y="1609" type="curve" smooth="yes"/>
      <point x="454" y="1609"/>
      <point x="357" y="1507"/>
      <point x="357" y="1344" type="curve" smooth="yes"/>
      <point x="357" y="1254" type="line"/>
    </contour>
    <component base="aavowelsigndeva"/>
  </outline>
</glyph>
<glyph name="ivowelsign06deva" format="1">
  <advance width="593"/>
  <outline>
    <contour>
      <point x="207" y="1254" type="line"/>
      <point x="207" y="1352" type="line"/>
      <point x="207" y="1590"/>
      <point x="347" y="1744"/>
      <point x="692" y="1744" type="curve" smooth="yes"/>
      <point x="1122" y="1744"/>
      <point x="1573" y="1536"/>
      <point x="1927" y="1258" type="curve"/>
      <point x="1736" y="1258" type="line"/>
      <point x="1415" y="1464"/>
      <point x="1042" y="1614"/>
      <point x="705" y="1614" type="curve" smooth="yes"/>
      <point x="457" y="1614"/>
      <point x="357" y="1505"/>
      <point x="357" y="1340" type="curve" smooth="yes"/>
      <point x="357" y="1254" type="line"/>
    </contour>
    <component base="aavowelsigndeva"/>
  </outline>
</glyph>
